<svg width="201" height="201" viewBox="0 0 201 201" fill="none" xmlns="http://www.w3.org/2000/svg">
<circle cx="100.5" cy="100.5" r="100.5" fill="white"/>
<g clip-path="url(#clip0_322_768)">
<path d="M55.5336 95.4856V90.4452C55.5336 90.367 55.5642 90.2921 55.6188 90.2368C55.6734 90.1815 55.7475 90.1504 55.8247 90.1504H61.2142C61.2914 90.1504 61.3654 90.1815 61.42 90.2368C61.4746 90.2921 61.5053 90.367 61.5053 90.4452V95.4856C61.5053 95.5638 61.4746 95.6388 61.42 95.6941C61.3654 95.7494 61.2914 95.7805 61.2142 95.7805H55.8212C55.7446 95.7796 55.6715 95.7481 55.6176 95.6929C55.5638 95.6377 55.5336 95.5632 55.5336 95.4856ZM55.5336 121.101V98.8195C55.5336 98.7413 55.5642 98.6663 55.6188 98.611C55.6734 98.5557 55.7475 98.5246 55.8247 98.5246H61.2142C61.2914 98.5246 61.3654 98.5557 61.42 98.611C61.4746 98.6663 61.5053 98.7413 61.5053 98.8195V121.1C61.5053 121.178 61.4746 121.253 61.42 121.308C61.3654 121.364 61.2914 121.395 61.2142 121.395H55.8212C55.7448 121.394 55.6717 121.362 55.6179 121.307C55.5641 121.252 55.5338 121.178 55.5336 121.101Z" fill="#0D0E0E"/>
<path d="M63.4331 121.101V116.854C63.4331 116.783 63.4584 116.714 63.5044 116.661L74.5444 103.788C74.581 103.745 74.6046 103.693 74.6126 103.637C74.6205 103.581 74.6124 103.524 74.5893 103.472C74.5661 103.421 74.5288 103.377 74.4819 103.347C74.435 103.316 74.3804 103.3 74.3246 103.3H64.5048C64.4276 103.3 64.3536 103.269 64.299 103.213C64.2444 103.158 64.2137 103.083 64.2137 103.005V98.8022C64.2137 98.724 64.2444 98.649 64.299 98.5937C64.3536 98.5384 64.4276 98.5073 64.5048 98.5073H82.2972C82.3354 98.5073 82.3733 98.515 82.4086 98.5298C82.4439 98.5446 82.476 98.5663 82.503 98.5937C82.5301 98.6211 82.5515 98.6536 82.5662 98.6894C82.5808 98.7251 82.5883 98.7635 82.5883 98.8022V103.281C82.5884 103.353 82.5621 103.423 82.5144 103.477L71.4916 115.976C71.4541 116.018 71.4296 116.071 71.4209 116.127C71.4123 116.184 71.4199 116.241 71.4429 116.293C71.4659 116.345 71.5032 116.389 71.5504 116.42C71.5976 116.451 71.6526 116.467 71.7088 116.467H82.6149C82.6921 116.467 82.7662 116.498 82.8208 116.554C82.8754 116.609 82.9061 116.684 82.9061 116.762V121.104C82.9061 121.182 82.8754 121.257 82.8208 121.313C82.7662 121.368 82.6921 121.399 82.6149 121.399H63.7225C63.6842 121.399 63.6462 121.391 63.6108 121.376C63.5755 121.361 63.5435 121.339 63.5166 121.311C63.4897 121.283 63.4684 121.25 63.4541 121.214C63.4398 121.178 63.4327 121.14 63.4331 121.101Z" fill="#0D0E0E"/>
<path d="M108.725 121.101V97.8923C108.725 97.8141 108.756 97.7391 108.81 97.6838C108.865 97.6285 108.939 97.5974 109.016 97.5974H114.038C114.076 97.5974 114.114 97.6051 114.15 97.6199C114.185 97.6347 114.217 97.6564 114.244 97.6838C114.271 97.7112 114.293 97.7437 114.307 97.7794C114.322 97.8152 114.329 97.8535 114.329 97.8923V100.322C114.329 100.384 114.348 100.443 114.383 100.493C114.419 100.543 114.468 100.581 114.526 100.6C114.583 100.62 114.645 100.621 114.703 100.604C114.761 100.586 114.812 100.551 114.849 100.502C115.147 100.108 115.489 99.7497 115.868 99.4352C116.369 99.0222 116.926 98.6853 117.522 98.435C118.073 98.2066 118.653 98.0578 119.245 97.9932C119.84 97.9305 120.438 97.8995 121.036 97.9001H121.526C121.604 97.9001 121.678 97.9311 121.732 97.9864C121.787 98.0417 121.818 98.1168 121.818 98.195V103.748C121.817 103.79 121.808 103.831 121.791 103.87C121.773 103.908 121.748 103.942 121.717 103.969C121.685 103.997 121.648 104.017 121.608 104.029C121.568 104.04 121.526 104.043 121.485 104.037C121.268 104.008 121.052 103.986 120.835 103.971C120.044 103.924 119.252 104.042 118.508 104.317C117.764 104.592 117.083 105.018 116.508 105.57C115.933 106.122 115.476 106.787 115.164 107.525C114.853 108.263 114.694 109.057 114.698 109.86V121.101C114.698 121.139 114.69 121.178 114.676 121.213C114.661 121.249 114.639 121.282 114.612 121.309C114.585 121.336 114.553 121.358 114.518 121.373C114.483 121.388 114.445 121.395 114.407 121.395H109.017C108.979 121.396 108.941 121.388 108.905 121.373C108.87 121.359 108.838 121.337 108.81 121.31C108.783 121.282 108.762 121.25 108.747 121.214C108.732 121.178 108.725 121.139 108.725 121.101Z" fill="#0D0E0E"/>
<path d="M136.456 121.184C136.347 120.785 136.266 120.378 136.214 119.967C136.207 119.913 136.186 119.862 136.152 119.821C136.119 119.779 136.074 119.747 136.024 119.729C135.974 119.711 135.919 119.707 135.867 119.719C135.815 119.73 135.767 119.755 135.728 119.793C135.031 120.432 134.225 120.938 133.349 121.285C132.06 121.789 130.687 122.034 129.307 122.006C126.703 122.006 124.797 121.425 123.587 120.261C122.986 119.678 122.513 118.972 122.2 118.19C121.887 117.409 121.742 116.569 121.773 115.726C121.712 114.37 121.98 113.02 122.554 111.794C123.052 110.841 123.799 110.044 124.713 109.491C125.73 108.892 126.84 108.472 127.996 108.249C129.267 107.986 130.652 107.745 132.153 107.528C133.21 107.447 134.241 107.154 135.186 106.667C135.45 106.451 135.659 106.173 135.795 105.858C135.93 105.542 135.988 105.198 135.963 104.855C135.938 104.512 135.831 104.18 135.652 103.888C135.473 103.595 135.226 103.352 134.933 103.177C134.079 102.719 133.119 102.502 132.153 102.549C131.623 102.498 131.088 102.553 130.58 102.713C130.071 102.873 129.599 103.134 129.191 103.48C128.619 104.095 128.242 104.869 128.106 105.702C128.094 105.77 128.059 105.832 128.008 105.876C127.956 105.921 127.89 105.946 127.822 105.947H122.812C122.772 105.947 122.733 105.938 122.697 105.923C122.661 105.907 122.628 105.884 122.6 105.855C122.573 105.826 122.552 105.792 122.538 105.754C122.524 105.717 122.517 105.677 122.519 105.637C122.562 104.632 122.752 103.639 123.082 102.69C123.428 101.707 124.012 100.827 124.781 100.131C125.667 99.3598 126.71 98.7956 127.836 98.4787C129.331 98.0591 130.878 97.863 132.429 97.8968C133.959 97.8642 135.485 98.0695 136.954 98.5056C138.072 98.8372 139.096 99.4355 139.94 100.25C140.709 101.043 141.27 102.019 141.571 103.088C141.924 104.336 142.094 105.629 142.077 106.927V121.104C142.077 121.182 142.046 121.257 141.992 121.313C141.937 121.368 141.863 121.399 141.786 121.399H136.736C136.672 121.399 136.61 121.378 136.56 121.34C136.509 121.301 136.473 121.246 136.456 121.184ZM136.093 110.794C136.094 110.741 136.08 110.688 136.054 110.642C136.027 110.596 135.989 110.558 135.943 110.532C135.897 110.506 135.845 110.494 135.792 110.495C135.74 110.497 135.689 110.513 135.644 110.542C135.37 110.704 135.077 110.834 134.773 110.927C133.942 111.176 133.098 111.379 132.246 111.536C130.986 111.7 129.778 112.145 128.709 112.84C128.384 113.118 128.128 113.469 127.96 113.865C127.793 114.26 127.719 114.69 127.745 115.12C127.745 116.827 128.709 117.68 130.639 117.68C131.369 117.686 132.094 117.552 132.774 117.284C134.025 116.804 135.045 115.854 135.623 114.632C135.913 114.031 136.062 113.37 136.059 112.701L136.093 110.794Z" fill="#0D0E0E"/>
<path d="M144.831 121.101V98.0471C144.831 97.9689 144.862 97.8939 144.916 97.8386C144.971 97.7833 145.045 97.7522 145.122 97.7522H150.512C150.589 97.7522 150.663 97.7833 150.718 97.8386C150.772 97.8939 150.803 97.9689 150.803 98.0471V121.101C150.803 121.179 150.772 121.254 150.718 121.309C150.663 121.364 150.589 121.395 150.512 121.395H145.122C145.045 121.395 144.971 121.364 144.916 121.309C144.862 121.254 144.831 121.179 144.831 121.101Z" fill="#0D0E0E"/>
<path d="M168.273 121.395C168.235 121.395 168.197 121.387 168.162 121.372C168.126 121.357 168.094 121.336 168.067 121.308C168.04 121.281 168.019 121.248 168.004 121.213C167.989 121.177 167.982 121.139 167.982 121.1V107.531C167.982 105.763 167.691 104.569 167.109 103.949C166.699 103.599 166.223 103.336 165.71 103.176C165.197 103.016 164.657 102.963 164.124 103.018C161.032 103.018 159.486 104.77 159.486 108.275V121.101C159.486 121.179 159.456 121.254 159.401 121.309C159.347 121.364 159.272 121.396 159.195 121.396H153.806C153.729 121.396 153.655 121.364 153.6 121.309C153.545 121.254 153.515 121.179 153.515 121.101V98.1942C153.515 98.116 153.545 98.041 153.6 97.9857C153.655 97.9304 153.729 97.8993 153.806 97.8993H158.92C158.997 97.8993 159.071 97.9304 159.125 97.9857C159.18 98.041 159.211 98.116 159.211 98.1942V100.829C159.211 100.891 159.231 100.952 159.267 101.003C159.304 101.053 159.356 101.091 159.415 101.109C159.474 101.128 159.537 101.127 159.596 101.106C159.654 101.086 159.705 101.047 159.74 100.996C160.335 100.136 161.111 99.4199 162.012 98.9004C163.403 98.1804 164.953 97.8359 166.513 97.9002C167.529 97.8909 168.539 98.0562 169.499 98.389C170.385 98.6942 171.193 99.1948 171.865 99.8546C172.543 100.536 173.075 101.352 173.427 102.251C173.828 103.296 174.023 104.41 174.002 105.531V121.1C174.002 121.178 173.971 121.253 173.917 121.308C173.862 121.364 173.788 121.395 173.711 121.395H168.273Z" fill="#0D0E0E"/>
<path d="M50.7564 101.203C49.9843 100.169 48.9845 99.3329 47.8367 98.7603C46.6109 98.1691 45.2662 97.8743 43.9088 97.8993C42.7263 97.8728 41.5535 98.1211 40.4805 98.6252C39.4075 99.1292 38.4628 99.8756 37.7189 100.807C37.6809 100.853 37.6296 100.887 37.5721 100.903C37.5146 100.919 37.4536 100.917 37.3974 100.897C37.3412 100.876 37.2925 100.839 37.2578 100.79C37.2232 100.741 37.2043 100.682 37.2037 100.622V85.6858C37.2036 85.6373 37.1918 85.5896 37.1692 85.5469C37.1466 85.5041 37.114 85.4676 37.0742 85.4406C37.0344 85.4137 36.9886 85.397 36.941 85.3921C36.8933 85.3872 36.8452 85.3944 36.8009 85.4128C34.8844 86.349 33.0871 87.5172 31.4484 88.8919C31.4096 88.919 31.3781 88.9552 31.3564 88.9975C31.3347 89.0398 31.3235 89.0869 31.3239 89.1345V121.1C31.3239 121.178 31.3545 121.253 31.4091 121.308C31.4637 121.364 31.5378 121.395 31.615 121.395H36.7855C36.8618 121.395 36.9351 121.364 36.9895 121.31C37.044 121.256 37.0752 121.182 37.0766 121.105L37.1032 119.515C37.1055 119.455 37.1257 119.398 37.1611 119.35C37.1966 119.302 37.2455 119.267 37.3015 119.248C37.3574 119.229 37.4177 119.228 37.4744 119.244C37.531 119.261 37.5812 119.295 37.6185 119.341C38.3029 120.222 39.1861 120.923 40.1937 121.386C41.2013 121.85 42.3039 122.061 43.409 122.003C44.7624 122.015 46.1022 121.729 47.336 121.166C48.5397 120.612 49.6009 119.784 50.4369 118.747C51.3436 117.599 52.0293 116.289 52.4584 114.885C52.9705 113.214 53.2186 111.47 53.1935 109.72C53.2101 108.109 53.0013 106.504 52.5735 104.951C52.2035 103.598 51.5873 102.327 50.7564 101.203ZM45.7035 115.137C45.2949 115.74 44.7459 116.232 44.1049 116.569C43.464 116.906 42.751 117.077 42.029 117.068C41.3294 117.074 40.6384 116.912 40.0118 116.597C39.3852 116.282 38.8407 115.822 38.4222 115.254C37.4087 113.891 36.8969 112.213 36.9753 110.508C36.9753 105.546 38.6444 103.065 41.9826 103.064C45.4119 103.064 47.1268 105.421 47.1273 110.136C47.2057 111.916 46.7055 113.673 45.7035 115.137Z" fill="#0D0E0E"/>
<path d="M36.9143 73.6282H36.2453C36.2453 73.6282 31.3256 73.6134 31.3256 76.9281V82.5391C31.3254 82.5885 31.3375 82.6371 31.3609 82.6805C31.3843 82.7238 31.4182 82.7605 31.4594 82.787C31.5005 82.8135 31.5477 82.829 31.5964 82.832C31.645 82.835 31.6937 82.8255 31.7378 82.8043C33.3694 82.0302 35.1272 80.6473 37.0053 80.021C37.0633 80.0018 37.1139 79.9646 37.1498 79.9146C37.1857 79.8647 37.2052 79.8045 37.2054 79.7427V73.9248C37.2056 73.8859 37.1983 73.8474 37.1837 73.8114C37.1692 73.7754 37.1478 73.7427 37.1208 73.7151C37.0937 73.6876 37.0615 73.6657 37.0261 73.6508C36.9907 73.6359 36.9527 73.6282 36.9143 73.6282Z" fill="#0D0E0E"/>
<path d="M85.7142 69H84.9465C84.9083 69 84.8704 69.0076 84.8351 69.0224C84.7998 69.0372 84.7677 69.0589 84.7407 69.0863C84.7136 69.1137 84.6922 69.1462 84.6776 69.182C84.6629 69.2178 84.6554 69.2561 84.6554 69.2948V75.2093C84.6552 75.2817 84.6814 75.3515 84.7289 75.4054C84.7765 75.4594 84.842 75.4936 84.913 75.5016C86.6494 75.7068 88.4132 75.9388 90.2046 76.1974C90.2458 76.2034 90.2879 76.2003 90.3279 76.1884C90.3678 76.1765 90.4049 76.1561 90.4364 76.1284C90.4679 76.1008 90.4931 76.0667 90.5105 76.0283C90.5278 75.9899 90.5369 75.9483 90.5369 75.906V72.3008C90.5352 69.2574 86.3986 69.0183 85.7142 69Z" fill="#0D0E0E"/>
<path d="M104.086 101.204C103.314 100.17 102.314 99.3339 101.167 98.7613C99.941 98.1701 98.5967 97.8753 97.2395 97.9002C96.0571 97.8737 94.8843 98.1219 93.8114 98.6258C92.7384 99.1297 91.7937 99.8758 91.0496 100.807C91.0116 100.853 90.9603 100.887 90.9028 100.903C90.8453 100.919 90.7843 100.917 90.7281 100.897C90.6719 100.876 90.6231 100.839 90.5885 100.79C90.5539 100.741 90.535 100.682 90.5344 100.622V81.19C90.5341 81.119 90.5088 81.0505 90.4629 80.9969C90.4171 80.9433 90.3538 80.9081 90.2845 80.8977C88.5143 80.6339 86.7468 80.3921 84.9818 80.1723C84.9407 80.1673 84.8991 80.1711 84.8596 80.1836C84.8201 80.1961 84.7837 80.2169 84.7528 80.2447C84.7218 80.2725 84.6971 80.3066 84.6802 80.3448C84.6632 80.383 84.6545 80.4244 84.6545 80.4663V121.102C84.6545 121.18 84.6852 121.255 84.7398 121.31C84.7944 121.365 84.8685 121.396 84.9457 121.396H90.1102C90.1865 121.396 90.2598 121.366 90.3142 121.312C90.3687 121.258 90.3999 121.184 90.4013 121.107L90.4279 119.517C90.4298 119.457 90.4497 119.399 90.485 119.351C90.5204 119.303 90.5695 119.267 90.6257 119.248C90.6818 119.229 90.7424 119.228 90.7992 119.245C90.8559 119.262 90.9062 119.296 90.9431 119.343C91.6278 120.223 92.5111 120.925 93.5188 121.388C94.5266 121.851 95.6293 122.063 96.7345 122.005C98.0879 122.017 99.4277 121.731 100.662 121.168C101.865 120.614 102.926 119.786 103.762 118.749C104.668 117.601 105.354 116.291 105.783 114.887C106.295 113.215 106.543 111.472 106.518 109.722C106.535 108.111 106.326 106.505 105.898 104.953C105.53 103.6 104.915 102.328 104.086 101.204ZM99.0334 115.138C98.6248 115.741 98.0758 116.233 97.4348 116.57C96.7939 116.907 96.0808 117.078 95.3588 117.069C94.6592 117.075 93.9682 116.913 93.3416 116.598C92.715 116.283 92.1705 115.823 91.7521 115.255C90.7385 113.892 90.2267 112.214 90.3051 110.509C90.3051 105.547 91.9742 103.066 95.3124 103.065C98.7417 103.065 100.457 105.422 100.457 110.137C100.535 111.917 100.035 113.674 99.0334 115.138Z" fill="#0D0E0E"/>
<path d="M142.143 89.9189L141.322 89.6702C126.028 85.2665 110.446 81.9643 94.6923 79.7886C80.2311 77.8751 67.6092 77.4402 57.1763 78.497C44.2531 79.8112 34.7081 83.4286 28.8077 89.2492L28.1937 89.858L26.9983 88.6151L27.6123 88.0063C33.7953 81.9039 43.6906 78.123 57.0149 76.7696C67.5817 75.6972 80.3401 76.1347 94.9353 78.0743C110.773 80.2627 126.437 83.5834 141.812 88.0115L142.633 88.2603L142.143 89.9189Z" fill="#E52929"/>
<path d="M144.148 90.3495L144.475 89.3666C144.524 89.2109 144.664 89.1779 144.819 89.2266L149.985 90.8044C150.059 90.8278 150.12 90.8798 150.156 90.9489C150.191 91.018 150.199 91.0986 150.176 91.1731L149.88 92.1534L144.337 90.6565C144.183 90.6104 144.1 90.5069 144.148 90.3495Z" fill="#E52929"/>
</g>
<defs>
<clipPath id="clip0_322_768">
<rect width="147" height="53" fill="white" transform="translate(27 69)"/>
</clipPath>
</defs>
</svg>
