<svg width="201" height="201" viewBox="0 0 201 201" fill="none" xmlns="http://www.w3.org/2000/svg">
<circle cx="100.5" cy="100.5" r="100.5" fill="white"/>
<path d="M42.2294 130.149C43.1946 130.149 43.9025 130.245 44.4817 130.664C45.0287 131.05 45.1895 131.565 45.1895 132.016C45.1895 132.37 45.0608 132.756 44.8034 133.046C44.1599 133.786 43.0659 133.786 42.3259 133.786H38.7865V136.2H37.7247V130.181H42.2294V130.149ZM42.1972 133.046C42.6155 133.046 43.1303 133.046 43.5164 132.82C43.8382 132.659 44.0634 132.337 44.0634 131.951C44.0634 131.758 44.0312 131.468 43.7095 131.211C43.2912 130.857 42.6476 130.857 42.0685 130.857H38.7865V133.046H42.1972Z" fill="#858585"/>
<path d="M56.9981 130.149H58.092L61.8888 136.168H60.6983L59.7974 134.687H55.2606L54.3596 136.168H53.2013L56.9981 130.149ZM57.7703 131.468C57.7059 131.372 57.6416 131.275 57.6094 131.146C57.5772 131.082 57.545 130.986 57.5129 130.921C57.4807 130.986 57.4485 131.082 57.4163 131.179C57.352 131.275 57.2876 131.404 57.2233 131.501L55.6788 134.011H59.3147L57.7703 131.468Z" fill="#858585"/>
<path d="M71.3164 130.149H76.3359C76.9794 130.149 77.7838 130.181 78.3951 130.631C78.6204 130.792 79.0387 131.211 79.0387 131.919C79.0387 133.367 77.5586 133.561 77.0437 133.625L79.7787 136.168H78.3951L75.8854 133.754H72.3139V136.168H71.2521V130.149H71.3164ZM72.3461 130.889V133.078H75.9819C76.5611 133.078 77.3011 133.078 77.7194 132.627C77.9125 132.434 77.9768 132.209 77.9768 131.983C77.9768 131.758 77.9125 131.533 77.7516 131.34C77.4299 130.889 76.8829 130.889 76.4002 130.889H72.3461Z" fill="#858585"/>
<path d="M88.3696 130.149H95.4483V130.857H92.4237V136.168H91.3619V130.857H88.3374V130.149H88.3696Z" fill="#858585"/>
<path d="M106.034 130.149L111.021 134.462C111.375 134.784 111.44 134.848 111.794 135.202C111.729 134.784 111.729 134.687 111.729 134.301V130.149H112.727V136.168H111.697L106.452 131.661C106.195 131.404 106.099 131.34 105.873 131.114C105.905 131.533 105.938 131.661 105.938 132.144V136.168H104.94V130.149H106.034Z" fill="#858585"/>
<path d="M123.088 130.149H129.909V130.889H124.117V132.691H129.748V133.4H124.117V135.427H130.166V136.168H123.088V130.149Z" fill="#858585"/>
<path d="M139.883 130.149H144.903C145.546 130.149 146.351 130.181 146.962 130.631C147.187 130.792 147.606 131.211 147.606 131.919C147.606 133.367 146.125 133.561 145.611 133.625L148.346 136.168H146.962L144.452 133.754H140.881V136.168H139.819V130.149H139.883ZM140.913 130.889V133.078H144.549C145.128 133.078 145.868 133.078 146.286 132.627C146.479 132.434 146.544 132.209 146.544 131.983C146.544 131.758 146.479 131.533 146.319 131.34C145.997 130.889 145.45 130.889 144.967 130.889H140.913Z" fill="#858585"/>
<path d="M157.934 134.623C158.063 134.719 158.159 134.848 158.449 134.977C159.253 135.427 160.251 135.556 161.216 135.556C162.825 135.556 163.726 135.073 163.726 134.333C163.726 133.496 162.567 133.432 161.087 133.303C159.221 133.174 158.61 133.142 158.03 132.724C157.58 132.37 157.516 131.983 157.516 131.726C157.516 130.02 160.315 129.956 160.991 129.956C162.02 129.956 163.082 130.084 163.919 130.567C164.273 130.76 164.466 130.921 164.659 131.179L163.693 131.501C163.533 131.372 163.436 131.275 163.275 131.179C162.632 130.792 161.795 130.664 160.991 130.664C160.379 130.664 159.639 130.728 159.221 130.921C158.706 131.114 158.577 131.436 158.577 131.694C158.577 131.887 158.674 132.048 158.803 132.144C159.06 132.37 159.446 132.434 160.122 132.498C160.798 132.563 161.441 132.595 162.117 132.659C162.439 132.691 162.76 132.724 163.082 132.788C163.887 132.949 164.787 133.367 164.787 134.365C164.787 134.623 164.723 135.009 164.401 135.363C163.822 136.039 162.696 136.329 161.152 136.329C160.54 136.329 159.768 136.264 159.253 136.136C157.741 135.814 157.194 135.202 157.001 134.945L157.934 134.623Z" fill="#858585"/>
<path d="M73.247 102.822H67.1335V122.52H73.247V102.822Z" fill="#858585"/>
<path d="M91.4264 102.822H85.313V122.52H91.4264V102.822Z" fill="#858585"/>
<path d="M77.1403 107.907L81.0979 102.757H101.369L97.4111 107.907H77.1403Z" fill="#858585"/>
<path d="M61.0523 102.822H55.0676V113.669L42.8407 103.562C42.8407 103.562 41.9076 102.725 40.1701 102.757C40.1701 102.757 38.1752 102.757 37.7247 104.656V122.52H43.8382V111.738L52.5257 119.012C52.5257 119.012 54.9067 121.04 55.9685 121.876C56.0328 121.941 56.1294 122.005 56.2902 122.134C56.3546 122.166 56.3868 122.198 56.4189 122.198C56.8372 122.456 57.5451 122.746 58.5104 122.81C58.5104 122.81 60.5053 122.874 61.1166 121.007L61.0523 102.822Z" fill="#858585"/>
<path d="M155.746 122.52H164.594L157.483 116.598C157.548 116.566 157.612 116.533 157.677 116.501C157.741 116.469 157.837 116.437 157.902 116.405C157.998 116.372 158.095 116.308 158.159 116.276C158.352 116.179 158.545 116.051 158.706 115.954C158.931 115.825 159.124 115.696 159.318 115.536C159.478 115.407 159.639 115.31 159.768 115.181C161.312 113.862 162.278 112.092 162.278 110.096C162.278 107.135 160.154 104.624 157.097 103.498C156.969 103.465 156.84 103.401 156.711 103.369C156.615 103.337 156.486 103.304 156.357 103.272C156.261 103.24 156.164 103.208 156.036 103.176C154.169 102.693 152.593 102.661 152.593 102.661H139.111L135.153 107.778H152.496C154.362 107.875 155.102 108.422 155.102 108.422C156.711 109.452 155.81 111.094 155.81 111.094C155.102 112.574 152.464 112.381 152.464 112.381H135.121V122.488H141.235V117.499H149.826L155.746 122.52Z" fill="#858585"/>
<path d="M126.305 104.367C124.085 103.111 120.224 102.854 120.224 102.854H112.695C108.544 103.143 105.97 104.753 105.97 104.753H106.002C103.364 106.298 101.594 109.227 101.594 112.574C101.594 116.598 104.136 120.01 107.643 121.168C108.801 121.619 110.539 122.102 112.663 122.263H120.192C120.192 122.263 123.667 122.037 125.919 120.943C129.137 119.623 131.389 116.372 131.389 112.574C131.421 108.937 129.33 105.783 126.305 104.367ZM120.288 117.37H120.224C120.16 117.37 120.063 117.37 119.999 117.37C119.934 117.37 119.838 117.37 119.773 117.37H113.049C112.984 117.37 112.888 117.37 112.823 117.37C109.928 117.37 107.579 115.246 107.579 112.639C107.579 110.192 109.638 108.197 112.276 107.939H112.341C112.437 107.939 112.534 107.939 112.663 107.939H119.999C122.894 107.939 125.211 110.064 125.211 112.671C125.243 115.181 123.055 117.241 120.288 117.37Z" fill="#858585"/>
<path d="M84.8624 68.703C84.8624 68.703 78.9099 62.3943 76.8185 60.9137C76.8185 60.9137 72.9895 57.7272 70.7372 59.0146C70.7372 59.0146 68.1953 60.0768 68.7745 65.7418C68.7745 65.7418 69.4824 75.0761 78.0733 89.1741C78.0733 89.1741 79.3925 91.1375 78.6525 91.6525C78.6525 91.6525 78.202 92.1354 76.8828 90.2685C76.8828 90.2685 73.0217 85.0541 70.0293 80.0007C70.0293 80.0007 67.2622 75.6877 65.1708 68.5743C65.1708 68.5743 64.2377 64.8727 64.2699 60.9459C64.2699 60.9459 64.3664 56.0856 67.9701 53.8325C67.9701 53.8325 70.3189 51.8369 74.8557 53.8325C74.8557 53.8325 77.1402 54.8947 80.8083 58.5962C80.8083 58.5962 106.42 82.8332 108.544 84.8288C108.544 84.8288 112.244 88.2729 113.853 89.7213C113.853 89.7213 116.041 91.4272 114.464 91.556H108.383C108.383 91.556 107.675 91.6847 107.064 91.2341C106.613 90.9444 105.938 90.2685 104.49 88.7879C104.49 88.7879 96.3171 80.1939 95.0622 79.2283L84.8624 68.703Z" fill="#ABCE3D"/>
<path d="M109.22 75.3015C109.22 75.3015 114.818 80.8377 116.91 82.3183C116.91 82.3183 120.127 84.7002 122.154 83.477C122.154 83.477 123.956 82.5114 124.085 78.9386C124.085 78.9386 124.375 71.2459 114.915 55.4741C114.915 55.4741 113.403 53.2532 114.207 52.6738C114.207 52.6738 114.657 52.1588 116.105 54.3476C116.105 54.3476 120.642 60.3022 122.927 64.8406C122.927 64.8406 125.79 69.3146 127.656 75.9452C127.656 75.9452 128.976 80.5158 128.397 84.5392C128.397 84.5392 128.268 87.8545 125.147 90.2686C125.147 90.2686 122.734 92.586 118.39 90.687C118.39 90.687 115.526 89.6248 112.18 86.0198C112.18 86.0198 86.1496 61.3966 84.4442 59.7872C84.4442 59.7872 79.8752 55.6351 79.1352 54.8948C79.1352 54.8948 76.9151 52.9957 78.4595 52.867L84.766 52.8348C84.766 52.8348 85.2808 52.7704 85.8921 53.2854C86.4391 53.7682 87.3401 54.4119 88.6915 55.8926C88.6915 55.8926 97.1859 63.9072 98.666 65.2591L109.22 75.3015Z" fill="#ABCE3D"/>
</svg>
