<svg width="201" height="201" viewBox="0 0 201 201" fill="none" xmlns="http://www.w3.org/2000/svg">
<circle cx="100.5" cy="100.5" r="100.5" fill="white"/>
<path fill-rule="evenodd" clip-rule="evenodd" d="M42 134H108.712L174 68H42V134Z" fill="url(#paint0_linear_322_808)"/>
<path fill-rule="evenodd" clip-rule="evenodd" d="M120.335 80.4103L107.342 80.4022V111.629L95.9914 80.4022H84.7369L75.0454 106.516C74.0135 99.9318 67.2745 97.658 61.9728 95.9533C58.472 94.8171 54.7576 93.1457 54.7919 91.2987C54.821 89.7823 56.7844 88.374 60.6742 88.5859C63.2894 88.726 65.595 88.9392 70.1842 91.1761L74.6981 83.2312C70.5088 81.0771 64.7212 79.7154 59.9787 79.7102H59.9511C54.4209 79.7102 49.8115 81.5213 46.9547 84.5062C44.9634 86.5907 43.8908 89.2381 43.846 92.1671C43.7733 96.1963 45.2355 99.0557 48.3074 101.335C50.9015 103.258 54.2189 104.504 57.143 105.42C60.7504 106.55 63.6943 107.531 63.66 109.627C63.6335 110.389 63.3473 111.099 62.8051 111.677C61.9066 112.614 60.5247 112.966 58.617 113.003C54.9369 113.081 52.2068 112.498 47.8586 109.902L43.846 117.959C48.1819 120.451 53.3162 121.913 58.5549 121.913L59.229 121.905C63.7894 121.822 67.4698 120.509 70.4095 118.116C70.5782 117.981 70.7299 117.843 70.8858 117.703L69.5821 121.221H81.3855L83.3666 115.132C85.4398 115.848 87.7989 116.243 90.3049 116.243C92.7434 116.243 95.0407 115.865 97.0768 115.191L98.9862 121.221H118.236V108.613H122.433C132.582 108.613 138.584 103.389 138.584 94.6362C138.584 84.8854 132.752 80.411 120.335 80.411L120.335 80.4103ZM90.3056 107.13C88.7893 107.13 87.3681 106.862 86.1424 106.394L90.2607 93.2606H90.3388L94.3858 106.431C93.1691 106.867 91.7809 107.13 90.3059 107.13H90.3056ZM121.098 99.5836H118.236V89.0007H121.098C124.916 89.0007 127.96 90.2822 127.96 94.2221C127.96 98.2992 124.916 99.5836 121.098 99.5836Z" fill="white"/>
<defs>
<linearGradient id="paint0_linear_322_808" x1="108" y1="68" x2="108" y2="134" gradientUnits="userSpaceOnUse">
<stop stop-color="#00B1EB"/>
<stop offset="0.212" stop-color="#009AD9"/>
<stop offset="0.519" stop-color="#007FC4"/>
<stop offset="0.792" stop-color="#006EB8"/>
<stop offset="1" stop-color="#0069B4"/>
</linearGradient>
</defs>
</svg>
