<svg preserveAspectRatio="xMinYMid slice" width="330" height="321" viewBox="190 0 520 321" fill="none" xmlns="http://www.w3.org/2000/svg">
<mask id="path-1-inside-1_370_590" fill="white">
<path fill-rule="evenodd" clip-rule="evenodd" d="M215 20C215 8.95431 223.954 0 235 0H466C477.046 0 486 8.95431 486 20C486 31.0457 494.954 40 506 40H1135C1151.57 40 1165 53.4315 1165 70V269.368V291C1165 307.568 1151.57 321 1135 321H30C13.4315 321 0 307.569 0 291V70C0 53.4315 13.4315 40 30 40H195C206.046 40 215 31.0457 215 20Z"/>
</mask>
<path fill-rule="evenodd" clip-rule="evenodd" d="M215 20C215 8.95431 223.954 0 235 0H466C477.046 0 486 8.95431 486 20C486 31.0457 494.954 40 506 40H1135C1151.57 40 1165 53.4315 1165 70V269.368V291C1165 307.568 1151.57 321 1135 321H30C13.4315 321 0 307.569 0 291V70C0 53.4315 13.4315 40 30 40H195C206.046 40 215 31.0457 215 20Z" fill="white"/>
<path d="M466 -2H235V2H466V-2ZM1135 38H506V42H1135V38ZM1167 269.368V70H1163V269.368H1167ZM1163 269.368V291H1167V269.368H1163ZM30 323H1135V319H30V323ZM-2 70V291H2V70H-2ZM195 38H30V42H195V38ZM195 42C207.15 42 217 32.1503 217 20H213C213 29.9411 204.941 38 195 38V42ZM2 70C2 54.536 14.536 42 30 42V38C12.3269 38 -2 52.3269 -2 70H2ZM30 319C14.536 319 2 306.464 2 291H-2C-2 308.673 12.3269 323 30 323V319ZM1135 42C1150.46 42 1163 54.536 1163 70H1167C1167 52.3269 1152.67 38 1135 38V42ZM484 20C484 32.1503 493.85 42 506 42V38C496.059 38 488 29.9411 488 20H484ZM1163 291C1163 306.464 1150.46 319 1135 319V323C1152.67 323 1167 308.673 1167 291H1163ZM235 -2C222.85 -2 213 7.84974 213 20H217C217 10.0589 225.059 2 235 2V-2ZM466 2C475.941 2 484 10.0589 484 20H488C488 7.84974 478.15 -2 466 -2V2Z" fill="#1F9FE8" mask="url(#path-1-inside-1_370_590)"/>
</svg>
