<svg width="280" height="615" preserveAspectRatio="none" viewBox="0 0 280 615" fill="none" xmlns="http://www.w3.org/2000/svg">
<mask id="path-1-inside-1_506_3515" fill="white">
<path fill-rule="evenodd" clip-rule="evenodd" d="M0 30C0 13.4315 13.4315 0 30 0H250C266.569 0 280 13.4315 280 30V547V560V585C280 601.569 266.569 615 250 615H182C165.431 615 152 601.569 152 585C152 571.193 140.807 560 127 560H30C13.4315 560 0 546.569 0 530V30Z"/>
</mask>
<path fill-rule="evenodd" clip-rule="evenodd" d="M0 30C0 13.4315 13.4315 0 30 0H250C266.569 0 280 13.4315 280 30V547V560V585C280 601.569 266.569 615 250 615H182C165.431 615 152 601.569 152 585C152 571.193 140.807 560 127 560H30C13.4315 560 0 546.569 0 530V30Z" fill="white"/>
<path d="M250 -1H30V1H250V-1ZM281 547V30H279V547H281ZM279 547V560H281V547H279ZM279 560V585H281V560H279ZM279 585C279 601.016 266.016 614 250 614V616C267.121 616 281 602.121 281 585H279ZM250 614H182V616H250V614ZM182 614C165.984 614 153 601.016 153 585H151C151 602.121 164.879 616 182 616V614ZM30 561H127V559H30V561ZM-1 30V530H1V30H-1ZM30 559C13.9837 559 1 546.016 1 530H-1C-1 547.121 12.8792 561 30 561V559ZM153 585C153 570.641 141.359 559 127 559V561C140.255 561 151 571.745 151 585H153ZM30 -1C12.8792 -1 -1 12.8792 -1 30H1C1 13.9837 13.9837 1 30 1V-1ZM250 1C266.016 1 279 13.9837 279 30H281C281 12.8792 267.121 -1 250 -1V1Z" fill="#1F9FE8" mask="url(#path-1-inside-1_506_3515)"/>
</svg>
