<svg width="1164" height="502" viewBox="0 0 1164 502" fill="none" xmlns="http://www.w3.org/2000/svg">
<mask id="path-1-inside-1_370_595" fill="white">
<path fill-rule="evenodd" clip-rule="evenodd" d="M0 30C0 13.4315 13.4314 0 30 0H1134C1150.57 0 1164 13.4315 1164 30V370V454V472C1164 488.569 1150.57 502 1134 502H676C659.431 502 646 488.569 646 472C646 462.059 637.941 454 628 454H30C13.4315 454 0 440.569 0 424V30Z"/>
</mask>
<path fill-rule="evenodd" clip-rule="evenodd" d="M0 30C0 13.4315 13.4314 0 30 0H1134C1150.57 0 1164 13.4315 1164 30V370V454V472C1164 488.569 1150.57 502 1134 502H676C659.431 502 646 488.569 646 472C646 462.059 637.941 454 628 454H30C13.4315 454 0 440.569 0 424V30Z" fill="white"/>
<path d="M1134 -1H30V1H1134V-1ZM1165 370V30H1163V370H1165ZM1163 370V454H1165V370H1163ZM1163 454V472H1165V454H1163ZM1163 472C1163 488.016 1150.02 501 1134 501V503C1151.12 503 1165 489.121 1165 472H1163ZM1134 501H676V503H1134V501ZM676 501C659.984 501 647 488.016 647 472H645C645 489.121 658.879 503 676 503V501ZM30 455H628V453H30V455ZM-1 30V424H1V30H-1ZM30 453C13.9837 453 1 440.016 1 424H-1C-1 441.121 12.8792 455 30 455V453ZM647 472C647 461.507 638.493 453 628 453V455C637.389 455 645 462.611 645 472H647ZM30 -1C12.8791 -1 -1 12.8792 -1 30H1C1 13.9837 13.9837 1 30 1V-1ZM1134 1C1150.02 1 1163 13.9837 1163 30H1165C1165 12.8792 1151.12 -1 1134 -1V1Z" fill="#1F9FE8" mask="url(#path-1-inside-1_370_595)"/>
</svg>
