<svg width="477" height="472" viewBox="0 0 477 472" fill="none" xmlns="http://www.w3.org/2000/svg">
<path fill-rule="evenodd" clip-rule="evenodd" d="M373.477 46.0528C446.878 15.6488 525.55 -2.29725e-05 605 -2.64454e-05L605 128.905C542.478 128.905 480.569 141.22 422.806 165.146C365.044 189.072 312.56 224.14 268.35 268.35C224.141 312.56 189.072 365.044 165.146 422.806C141.22 480.569 128.905 542.478 128.905 605L0 605C-3.47286e-06 525.55 15.6488 446.878 46.0529 373.476C76.457 300.074 121.021 233.38 177.2 177.2C233.38 121.021 300.075 76.4569 373.477 46.0528ZM463.321 262.958C508.239 244.352 556.382 234.776 605 234.776C605 439.245 439.245 605 234.776 605C234.776 556.381 244.352 508.239 262.958 463.321C281.563 418.404 308.834 377.591 343.212 343.212C377.591 308.834 418.404 281.563 463.321 262.958Z" fill="#1F9FE8" fill-opacity="0.08"/>
</svg>
