<svg width="227" height="197" viewBox="0 0 227 197" fill="none" xmlns="http://www.w3.org/2000/svg">
<rect opacity="0.5" x="34.5" y="25.5" width="165" height="145" rx="19.5" fill="#BDE7FF" stroke="#1F9FE8"/>
<rect opacity="0.5" x="0.5" y="50.5" width="99" height="62" rx="19.5" fill="#BDE7FF" stroke="#1F9FE8"/>
<path fill-rule="evenodd" clip-rule="evenodd" d="M218.336 20.2415C219.586 23.0691 220.405 26.0411 220.774 29.0699C221.023 31.1141 219.331 32.7895 217.271 32.7895C215.212 32.7895 213.572 31.1104 213.256 29.0755C212.928 26.9645 212.321 24.8948 211.446 22.915C210.062 19.7845 208.033 16.9399 205.476 14.5439C202.918 12.1479 199.882 10.2472 196.54 8.95048C194.277 8.07236 191.904 7.48283 189.485 7.19372C187.569 6.9648 186 5.42239 186 3.49317C186 1.56394 187.567 -0.0169946 189.488 0.163239C192.888 0.482244 196.226 1.26652 199.394 2.49595C203.64 4.14377 207.499 6.55903 210.749 9.60381C213.999 12.6486 216.577 16.2633 218.336 20.2415Z" fill="#1F9FE8"/>
<path d="M171.5 153C171.5 146.649 176.649 141.5 183 141.5H215C221.351 141.5 226.5 146.649 226.5 153V185C226.5 191.351 221.351 196.5 215 196.5H183C176.649 196.5 171.5 191.351 171.5 185V153Z" fill="white" stroke="#115074"/>
<g clip-path="url(#clip0_354_402)">
<path d="M209.667 161H205.667V158.333C205.667 156.853 204.48 155.667 203 155.667H195C193.52 155.667 192.333 156.853 192.333 158.333V161H188.333C186.853 161 185.667 162.187 185.667 163.667V178.333C185.667 179.813 186.853 181 188.333 181H209.667C211.147 181 212.333 179.813 212.333 178.333V163.667C212.333 162.187 211.147 161 209.667 161ZM195 158.333H203V161H195V158.333ZM209.667 178.333H188.333V175.667H209.667V178.333ZM209.667 171.667H188.333V163.667H192.333V166.333H195V163.667H203V166.333H205.667V163.667H209.667V171.667Z" fill="#115074"/>
</g>
<defs>
<clipPath id="clip0_354_402">
<rect width="32" height="32" fill="white" transform="translate(183 153)"/>
</clipPath>
</defs>
</svg>
