<svg preserveAspectRatio="none" width="124" height="113" viewBox="0 0 124 113" fill="none" xmlns="http://www.w3.org/2000/svg">
<rect y="29" width="98" height="36" rx="12" fill="#7BCFFF"/>
<rect opacity="0.5" x="72" width="52" height="97" rx="12" fill="#BDE7FF"/>
<path d="M72 18H25C18.9249 18 14 22.9249 14 29V29M51 92H30C21.1634 92 14 84.8366 14 76V65" stroke="#1F9FE8" stroke-width="3"/>
<rect x="51.5" y="73.5" width="39" height="39" rx="11.5" fill="white" stroke="#115074"/>
<g clip-path="url(#clip0_357_466)">
<path d="M71 92C69.9 92 69 92.9 69 94C69 95.1 69.9 96 71 96C72.1 96 73 95.1 73 94C73 92.9 72.1 92 71 92ZM77 94C77 90.69 74.31 88 71 88C67.69 88 65 90.69 65 94C65 96.22 66.21 98.15 68 99.19L69 97.45C67.81 96.75 67 95.48 67 94C67 91.79 68.79 90 71 90C73.21 90 75 91.79 75 94C75 95.48 74.19 96.75 73 97.45L74 99.19C75.79 98.15 77 96.22 77 94ZM71 84C65.48 84 61 88.48 61 94C61 97.7 63.01 100.92 65.99 102.65L66.99 100.92C64.61 99.53 63 96.96 63 94C63 89.58 66.58 86 71 86C75.42 86 79 89.58 79 94C79 96.96 77.39 99.53 75 100.92L76 102.65C78.99 100.92 81 97.7 81 94C81 88.48 76.52 84 71 84Z" fill="#24506A"/>
</g>
<defs>
<clipPath id="clip0_357_466">
<rect width="24" height="24" fill="white" transform="translate(59 81)"/>
</clipPath>
</defs>
</svg>
