<svg preserveAspectRatio="none" width="123" height="125" viewBox="0 0 123 125" fill="none" xmlns="http://www.w3.org/2000/svg">
<rect x="38" y="16" width="71" height="30" rx="12" fill="#7BCFFF"/>
<rect opacity="0.5" y="24" width="72" height="101" rx="12" fill="#BDE7FF"/>
<path d="M23 24.4138V18C23 9.16344 30.1634 2 39 2H47.5M84.25 2H96.5H108.5C115.404 2 121 7.59644 121 14.5V14.5M121 39.5V39.75C121 46.5155 115.515 52 108.75 52V52" stroke="#1F9FE8" stroke-width="3"/>
<rect x="53.5" y="64.5" width="39" height="39" rx="11.5" fill="white" stroke="#115074"/>
<g clip-path="url(#clip0_300_233)">
<path d="M80.35 82.04C79.67 78.59 76.64 76 73 76C70.11 76 67.61 77.64 66.36 80.04C63.35 80.36 61 82.9 61 86C61 89.31 63.69 92 67 92H80C82.76 92 85 89.76 85 87C85 84.36 82.95 82.22 80.35 82.04ZM80 90H67C64.79 90 63 88.21 63 86C63 83.79 64.79 82 67 82C69.21 82 71 83.79 71 86H73C73 83.24 71.14 80.92 68.6 80.22C69.61 78.88 71.2 78 73 78C76.03 78 78.5 80.47 78.5 83.5V84H80C81.65 84 83 85.35 83 87C83 88.65 81.65 90 80 90Z" fill="#24506A"/>
</g>
<defs>
<clipPath id="clip0_300_233">
<rect width="24" height="24" fill="white" transform="translate(61 72)"/>
</clipPath>
</defs>
</svg>
