<svg width="280" height="910" preserveAspectRatio="none" viewBox="0 0 280 910" fill="none" xmlns="http://www.w3.org/2000/svg">
<path fill-rule="evenodd" clip-rule="evenodd" d="M0 20C0 8.95434 8.95431 3.05176e-05 20 3.05176e-05H207C218.046 3.05176e-05 227 8.95434 227 20V29C227 40.0457 235.954 49 247 49H260C271.046 49 280 57.9544 280 69V863V867V880C280 896.569 266.569 910 250 910H180C163.431 910 150 896.569 150 880C150 872.82 144.18 867 137 867H20C8.95431 867 0 858.046 0 847V136V49V20Z" fill="#115074"/>
</svg>
