<svg width="412" height="412" viewBox="0 0 412 412"  preserveAspectRatio="none" fill="none" xmlns="http://www.w3.org/2000/svg">
<path fill-rule="evenodd" clip-rule="evenodd" d="M380.638 254.334C401.343 304.321 412 357.895 412 412H324.217C324.217 369.423 315.831 327.263 299.537 287.928C283.244 248.592 259.362 212.85 229.256 182.744C199.15 152.638 163.408 128.756 124.072 112.463C84.7366 96.1694 42.5768 87.7833 0 87.7833L0 0C54.1046 0 107.679 10.6567 157.666 31.3616C207.652 52.0666 253.07 82.4143 291.328 120.672C329.586 158.93 359.933 204.348 380.638 254.334ZM232.928 315.518C245.598 346.107 252.119 378.891 252.119 412C112.878 412 0 299.122 0 159.881C33.1088 159.881 65.8934 166.402 96.4819 179.072C127.07 191.742 154.864 210.313 178.275 233.725C201.687 257.136 220.258 284.93 232.928 315.518Z" fill="#1F9FE8"/>
</svg>
