<svg width="435" height="408" viewBox="0 0 435 408" fill="none" xmlns="http://www.w3.org/2000/svg">
<path opacity="0.1" fill-rule="evenodd" clip-rule="evenodd" d="M401.888 251.994C423.748 301.437 435 354.43 435 407.947H342.316C342.316 365.833 333.462 324.131 316.259 285.222C299.056 246.314 273.841 210.96 242.054 181.181C210.267 151.401 172.53 127.779 130.999 111.663C89.467 95.5462 44.9536 87.2511 4.05134e-06 87.2511L0 0.421021C57.125 0.421021 113.691 10.962 166.467 31.4421C219.244 51.9222 267.198 81.9404 307.591 119.783C347.985 157.625 380.027 202.55 401.888 251.994ZM245.931 312.513C259.309 342.769 266.194 375.198 266.194 407.947C119.179 407.947 1.90145e-05 296.295 1.90145e-05 158.566C34.9571 158.566 69.5719 165.016 101.868 177.549C134.164 190.081 163.509 208.451 188.228 231.608C212.946 254.765 232.554 282.257 245.931 312.513Z" fill="#1F9FE8"/>
</svg>
