<svg width="67" height="75" viewBox="0 0 67 75" fill="none" xmlns="http://www.w3.org/2000/svg">
<path d="M64.5 5C65.8807 5 67 3.88071 67 2.5C67 1.11929 65.8807 0 64.5 0V5ZM39 2.5V0H36.5V2.5H39ZM39 40H36.5V40.0625L36.5031 40.1248L39 40ZM0.5 60L25.5 74.4338V45.5662L0.5 60ZM64.5 0H39V5H64.5V0ZM36.5 2.5V40H41.5V2.5H36.5ZM36.5031 40.1248C36.6448 42.9589 35.8191 47.3186 32.8861 50.9218C30.0366 54.4225 24.9615 57.5 16 57.5V62.5C26.2385 62.5 32.8301 58.9108 36.7639 54.0782C40.6142 49.3481 41.6885 43.7078 41.4969 39.8752L36.5031 40.1248Z" fill="#1F9FE8"/>
</svg>
