<svg width="62" height="77" viewBox="0 0 62 77" fill="none" xmlns="http://www.w3.org/2000/svg">
<path d="M4.5 1C3.67157 -0.104569 2.10457 -0.328427 1 0.5C-0.104569 1.32843 -0.328427 2.89543 0.5 4L4.5 1ZM47.5 10H50V7.5H47.5V10ZM47.5 76.5L61.9338 51.5H33.0662L47.5 76.5ZM0.5 4C2.96877 7.2917 5.66984 9.46647 8.68252 10.7891C11.672 12.1016 14.799 12.5 18 12.5V7.5C15.201 7.5 12.828 7.14845 10.6925 6.21089C8.58016 5.28353 6.53123 3.7083 4.5 1L0.5 4ZM18 12.5C18.0094 12.5 18.0188 12.5 18.0283 12.5C18.0377 12.5 18.0472 12.5 18.0568 12.5C18.0664 12.5 18.076 12.5 18.0856 12.5C18.0953 12.5 18.105 12.5 18.1147 12.5C18.1244 12.5 18.1342 12.5 18.1441 12.5C18.1539 12.5 18.1638 12.5 18.1737 12.5C18.1836 12.5 18.1936 12.5 18.2036 12.5C18.2136 12.5 18.2237 12.5 18.2338 12.5C18.2439 12.5 18.254 12.5 18.2642 12.5C18.2744 12.5 18.2846 12.5 18.2949 12.5C18.3052 12.5 18.3155 12.5 18.3259 12.5C18.3362 12.5 18.3467 12.5 18.3571 12.5C18.3676 12.5 18.3781 12.5 18.3886 12.5C18.3992 12.5 18.4098 12.5 18.4204 12.5C18.431 12.5 18.4417 12.5 18.4524 12.5C18.4631 12.5 18.4739 12.5 18.4847 12.5C18.4955 12.5 18.5064 12.5 18.5173 12.5C18.5282 12.5 18.5391 12.5 18.5501 12.5C18.5611 12.5 18.5721 12.5 18.5831 12.5C18.5942 12.5 18.6053 12.5 18.6165 12.5C18.6276 12.5 18.6388 12.5 18.6501 12.5C18.6613 12.5 18.6726 12.5 18.6839 12.5C18.6952 12.5 18.7066 12.5 18.718 12.5C18.7294 12.5 18.7409 12.5 18.7524 12.5C18.7639 12.5 18.7754 12.5 18.787 12.5C18.7986 12.5 18.8102 12.5 18.8218 12.5C18.8335 12.5 18.8452 12.5 18.857 12.5C18.8687 12.5 18.8805 12.5 18.8923 12.5C18.9041 12.5 18.916 12.5 18.9279 12.5C18.9398 12.5 18.9518 12.5 18.9638 12.5C18.9758 12.5 18.9878 12.5 18.9999 12.5C19.012 12.5 19.0241 12.5 19.0363 12.5C19.0484 12.5 19.0606 12.5 19.0729 12.5C19.0851 12.5 19.0974 12.5 19.1097 12.5C19.122 12.5 19.1344 12.5 19.1468 12.5C19.1592 12.5 19.1716 12.5 19.1841 12.5C19.1966 12.5 19.2091 12.5 19.2217 12.5C19.2343 12.5 19.2469 12.5 19.2595 12.5C19.2722 12.5 19.2849 12.5 19.2976 12.5C19.3103 12.5 19.3231 12.5 19.3359 12.5C19.3487 12.5 19.3615 12.5 19.3744 12.5C19.3873 12.5 19.4002 12.5 19.4132 12.5C19.4262 12.5 19.4392 12.5 19.4522 12.5C19.4653 12.5 19.4783 12.5 19.4915 12.5C19.5046 12.5 19.5177 12.5 19.5309 12.5C19.5441 12.5 19.5574 12.5 19.5707 12.5C19.5839 12.5 19.5972 12.5 19.6106 12.5C19.624 12.5 19.6373 12.5 19.6508 12.5C19.6642 12.5 19.6777 12.5 19.6912 12.5C19.7047 12.5 19.7182 12.5 19.7318 12.5C19.7454 12.5 19.759 12.5 19.7727 12.5C19.7864 12.5 19.8001 12.5 19.8138 12.5C19.8275 12.5 19.8413 12.5 19.8551 12.5C19.8689 12.5 19.8828 12.5 19.8967 12.5C19.9106 12.5 19.9245 12.5 19.9384 12.5C19.9524 12.5 19.9664 12.5 19.9804 12.5C19.9945 12.5 20.0086 12.5 20.0227 12.5C20.0368 12.5 20.0509 12.5 20.0651 12.5C20.0793 12.5 20.0935 12.5 20.1078 12.5C20.122 12.5 20.1363 12.5 20.1507 12.5C20.165 12.5 20.1794 12.5 20.1938 12.5C20.2082 12.5 20.2226 12.5 20.2371 12.5C20.2516 12.5 20.2661 12.5 20.2807 12.5C20.2952 12.5 20.3098 12.5 20.3244 12.5C20.339 12.5 20.3537 12.5 20.3684 12.5C20.3831 12.5 20.3978 12.5 20.4126 12.5C20.4273 12.5 20.4422 12.5 20.457 12.5C20.4718 12.5 20.4867 12.5 20.5016 12.5C20.5165 12.5 20.5315 12.5 20.5464 12.5C20.5614 12.5 20.5764 12.5 20.5915 12.5C20.6065 12.5 20.6216 12.5 20.6367 12.5C20.6518 12.5 20.667 12.5 20.6822 12.5C20.6974 12.5 20.7126 12.5 20.7279 12.5C20.7431 12.5 20.7584 12.5 20.7737 12.5C20.7891 12.5 20.8044 12.5 20.8198 12.5C20.8352 12.5 20.8506 12.5 20.8661 12.5C20.8816 12.5 20.8971 12.5 20.9126 12.5C20.9281 12.5 20.9437 12.5 20.9593 12.5C20.9749 12.5 20.9905 12.5 21.0062 12.5C21.0219 12.5 21.0376 12.5 21.0533 12.5C21.069 12.5 21.0848 12.5 21.1006 12.5C21.1164 12.5 21.1322 12.5 21.1481 12.5C21.164 12.5 21.1799 12.5 21.1958 12.5C21.2117 12.5 21.2277 12.5 21.2437 12.5C21.2597 12.5 21.2757 12.5 21.2918 12.5C21.3079 12.5 21.324 12.5 21.3401 12.5C21.3562 12.5 21.3724 12.5 21.3886 12.5C21.4048 12.5 21.421 12.5 21.4373 12.5C21.4535 12.5 21.4698 12.5 21.4861 12.5C21.5024 12.5 21.5188 12.5 21.5352 12.5C21.5516 12.5 21.568 12.5 21.5844 12.5C21.6009 12.5 21.6174 12.5 21.6339 12.5C21.6504 12.5 21.667 12.5 21.6835 12.5C21.7001 12.5 21.7167 12.5 21.7334 12.5C21.75 12.5 21.7667 12.5 21.7834 12.5C21.8001 12.5 21.8168 12.5 21.8336 12.5C21.8503 12.5 21.8671 12.5 21.884 12.5C21.9008 12.5 21.9176 12.5 21.9345 12.5C21.9514 12.5 21.9683 12.5 21.9853 12.5C22.0022 12.5 22.0192 12.5 22.0362 12.5C22.0532 12.5 22.0703 12.5 22.0873 12.5C22.1044 12.5 22.1215 12.5 22.1386 12.5C22.1558 12.5 22.1729 12.5 22.1901 12.5C22.2073 12.5 22.2245 12.5 22.2418 12.5C22.259 12.5 22.2763 12.5 22.2936 12.5C22.3109 12.5 22.3282 12.5 22.3456 12.5C22.363 12.5 22.3804 12.5 22.3978 12.5C22.4152 12.5 22.4327 12.5 22.4502 12.5C22.4677 12.5 22.4852 12.5 22.5027 12.5C22.5203 12.5 22.5378 12.5 22.5554 12.5C22.573 12.5 22.5906 12.5 22.6083 12.5C22.626 12.5 22.6436 12.5 22.6614 12.5C22.6791 12.5 22.6968 12.5 22.7146 12.5C22.7324 12.5 22.7502 12.5 22.768 12.5C22.7858 12.5 22.8037 12.5 22.8216 12.5C22.8394 12.5 22.8573 12.5 22.8753 12.5C22.8932 12.5 22.9112 12.5 22.9292 12.5C22.9472 12.5 22.9652 12.5 22.9832 12.5C23.0013 12.5 23.0194 12.5 23.0375 12.5C23.0556 12.5 23.0737 12.5 23.0919 12.5C23.11 12.5 23.1282 12.5 23.1464 12.5C23.1646 12.5 23.1829 12.5 23.2011 12.5C23.2194 12.5 23.2377 12.5 23.256 12.5C23.2743 12.5 23.2927 12.5 23.3111 12.5C23.3294 12.5 23.3478 12.5 23.3663 12.5C23.3847 12.5 23.4031 12.5 23.4216 12.5C23.4401 12.5 23.4586 12.5 23.4771 12.5C23.4957 12.5 23.5142 12.5 23.5328 12.5C23.5514 12.5 23.57 12.5 23.5886 12.5C23.6073 12.5 23.6259 12.5 23.6446 12.5C23.6633 12.5 23.682 12.5 23.7008 12.5C23.7195 12.5 23.7383 12.5 23.757 12.5C23.7758 12.5 23.7946 12.5 23.8135 12.5C23.8323 12.5 23.8512 12.5 23.8701 12.5C23.889 12.5 23.9079 12.5 23.9268 12.5C23.9458 12.5 23.9647 12.5 23.9837 12.5C24.0027 12.5 24.0217 12.5 24.0407 12.5C24.0598 12.5 24.0788 12.5 24.0979 12.5C24.117 12.5 24.1361 12.5 24.1553 12.5C24.1744 12.5 24.1935 12.5 24.2127 12.5C24.2319 12.5 24.2511 12.5 24.2703 12.5C24.2896 12.5 24.3088 12.5 24.3281 12.5C24.3474 12.5 24.3667 12.5 24.386 12.5C24.4053 12.5 24.4247 12.5 24.4441 12.5C24.4634 12.5 24.4828 12.5 24.5022 12.5C24.5217 12.5 24.5411 12.5 24.5606 12.5C24.58 12.5 24.5995 12.5 24.619 12.5C24.6385 12.5 24.6581 12.5 24.6776 12.5C24.6972 12.5 24.7168 12.5 24.7364 12.5C24.756 12.5 24.7756 12.5 24.7952 12.5C24.8149 12.5 24.8346 12.5 24.8543 12.5C24.8739 12.5 24.8937 12.5 24.9134 12.5C24.9331 12.5 24.9529 12.5 24.9727 12.5C24.9925 12.5 25.0123 12.5 25.0321 12.5C25.0519 12.5 25.0717 12.5 25.0916 12.5C25.1115 12.5 25.1314 12.5 25.1513 12.5C25.1712 12.5 25.1911 12.5 25.2111 12.5C25.231 12.5 25.251 12.5 25.271 12.5C25.291 12.5 25.311 12.5 25.3311 12.5C25.3511 12.5 25.3712 12.5 25.3912 12.5C25.4113 12.5 25.4314 12.5 25.4515 12.5C25.4717 12.5 25.4918 12.5 25.512 12.5C25.5321 12.5 25.5523 12.5 25.5725 12.5C25.5927 12.5 25.6129 12.5 25.6332 12.5C25.6534 12.5 25.6737 12.5 25.694 12.5C25.7143 12.5 25.7346 12.5 25.7549 12.5C25.7752 12.5 25.7956 12.5 25.8159 12.5C25.8363 12.5 25.8567 12.5 25.8771 12.5C25.8975 12.5 25.9179 12.5 25.9384 12.5C25.9588 12.5 25.9793 12.5 25.9998 12.5C26.0202 12.5 26.0407 12.5 26.0613 12.5C26.0818 12.5 26.1023 12.5 26.1229 12.5C26.1434 12.5 26.164 12.5 26.1846 12.5C26.2052 12.5 26.2258 12.5 26.2465 12.5C26.2671 12.5 26.2877 12.5 26.3084 12.5C26.3291 12.5 26.3498 12.5 26.3705 12.5C26.3912 12.5 26.4119 12.5 26.4327 12.5C26.4534 12.5 26.4742 12.5 26.4949 12.5C26.5157 12.5 26.5365 12.5 26.5573 12.5C26.5782 12.5 26.599 12.5 26.6199 12.5C26.6407 12.5 26.6616 12.5 26.6825 12.5C26.7033 12.5 26.7243 12.5 26.7452 12.5C26.7661 12.5 26.787 12.5 26.808 12.5C26.829 12.5 26.8499 12.5 26.8709 12.5C26.8919 12.5 26.9129 12.5 26.9339 12.5C26.955 12.5 26.976 12.5 26.9971 12.5C27.0181 12.5 27.0392 12.5 27.0603 12.5C27.0814 12.5 27.1025 12.5 27.1236 12.5C27.1448 12.5 27.1659 12.5 27.1871 12.5C27.2082 12.5 27.2294 12.5 27.2506 12.5C27.2718 12.5 27.293 12.5 27.3142 12.5C27.3354 12.5 27.3567 12.5 27.3779 12.5C27.3992 12.5 27.4205 12.5 27.4417 12.5C27.463 12.5 27.4843 12.5 27.5057 12.5C27.527 12.5 27.5483 12.5 27.5697 12.5C27.591 12.5 27.6124 12.5 27.6337 12.5C27.6551 12.5 27.6765 12.5 27.6979 12.5C27.7193 12.5 27.7408 12.5 27.7622 12.5C27.7836 12.5 27.8051 12.5 27.8266 12.5C27.848 12.5 27.8695 12.5 27.891 12.5C27.9125 12.5 27.934 12.5 27.9556 12.5C27.9771 12.5 27.9986 12.5 28.0202 12.5C28.0417 12.5 28.0633 12.5 28.0849 12.5C28.1065 12.5 28.1281 12.5 28.1497 12.5C28.1713 12.5 28.1929 12.5 28.2146 12.5C28.2362 12.5 28.2579 12.5 28.2795 12.5C28.3012 12.5 28.3229 12.5 28.3446 12.5C28.3663 12.5 28.388 12.5 28.4097 12.5C28.4314 12.5 28.4532 12.5 28.4749 12.5C28.4967 12.5 28.5184 12.5 28.5402 12.5C28.562 12.5 28.5838 12.5 28.6056 12.5C28.6274 12.5 28.6492 12.5 28.671 12.5C28.6928 12.5 28.7147 12.5 28.7365 12.5C28.7584 12.5 28.7803 12.5 28.8021 12.5C28.824 12.5 28.8459 12.5 28.8678 12.5C28.8897 12.5 28.9116 12.5 28.9335 12.5C28.9555 12.5 28.9774 12.5 28.9993 12.5C29.0213 12.5 29.0433 12.5 29.0652 12.5C29.0872 12.5 29.1092 12.5 29.1312 12.5C29.1532 12.5 29.1752 12.5 29.1972 12.5C29.2192 12.5 29.2413 12.5 29.2633 12.5C29.2853 12.5 29.3074 12.5 29.3295 12.5C29.3515 12.5 29.3736 12.5 29.3957 12.5C29.4178 12.5 29.4399 12.5 29.462 12.5C29.4841 12.5 29.5062 12.5 29.5283 12.5C29.5505 12.5 29.5726 12.5 29.5948 12.5C29.6169 12.5 29.6391 12.5 29.6613 12.5C29.6834 12.5 29.7056 12.5 29.7278 12.5C29.75 12.5 29.7722 12.5 29.7944 12.5C29.8166 12.5 29.8388 12.5 29.8611 12.5C29.8833 12.5 29.9056 12.5 29.9278 12.5C29.9501 12.5 29.9723 12.5 29.9946 12.5C30.0169 12.5 30.0391 12.5 30.0614 12.5C30.0837 12.5 30.106 12.5 30.1283 12.5C30.1506 12.5 30.173 12.5 30.1953 12.5C30.2176 12.5 30.24 12.5 30.2623 12.5C30.2846 12.5 30.307 12.5 30.3294 12.5C30.3517 12.5 30.3741 12.5 30.3965 12.5C30.4189 12.5 30.4413 12.5 30.4636 12.5C30.486 12.5 30.5085 12.5 30.5309 12.5C30.5533 12.5 30.5757 12.5 30.5981 12.5C30.6206 12.5 30.643 12.5 30.6655 12.5C30.6879 12.5 30.7104 12.5 30.7328 12.5C30.7553 12.5 30.7778 12.5 30.8002 12.5C30.8227 12.5 30.8452 12.5 30.8677 12.5C30.8902 12.5 30.9127 12.5 30.9352 12.5C30.9577 12.5 30.9802 12.5 31.0027 12.5C31.0253 12.5 31.0478 12.5 31.0703 12.5C31.0929 12.5 31.1154 12.5 31.138 12.5C31.1605 12.5 31.1831 12.5 31.2056 12.5C31.2282 12.5 31.2508 12.5 31.2734 12.5C31.2959 12.5 31.3185 12.5 31.3411 12.5C31.3637 12.5 31.3863 12.5 31.4089 12.5C31.4315 12.5 31.4541 12.5 31.4767 12.5C31.4993 12.5 31.522 12.5 31.5446 12.5C31.5672 12.5 31.5899 12.5 31.6125 12.5C31.6351 12.5 31.6578 12.5 31.6804 12.5C31.7031 12.5 31.7257 12.5 31.7484 12.5C31.7711 12.5 31.7937 12.5 31.8164 12.5C31.8391 12.5 31.8618 12.5 31.8844 12.5C31.9071 12.5 31.9298 12.5 31.9525 12.5C31.9752 12.5 31.9979 12.5 32.0206 12.5C32.0433 12.5 32.066 12.5 32.0887 12.5C32.1115 12.5 32.1342 12.5 32.1569 12.5C32.1796 12.5 32.2023 12.5 32.2251 12.5C32.2478 12.5 32.2705 12.5 32.2933 12.5C32.316 12.5 32.3388 12.5 32.3615 12.5C32.3843 12.5 32.407 12.5 32.4298 12.5C32.4525 12.5 32.4753 12.5 32.498 12.5C32.5208 12.5 32.5436 12.5 32.5663 12.5C32.5891 12.5 32.6119 12.5 32.6347 12.5C32.6575 12.5 32.6802 12.5 32.703 12.5C32.7258 12.5 32.7486 12.5 32.7714 12.5C32.7942 12.5 32.817 12.5 32.8398 12.5C32.8626 12.5 32.8854 12.5 32.9082 12.5C32.931 12.5 32.9538 12.5 32.9766 12.5C32.9994 12.5 33.0222 12.5 33.045 12.5C33.0678 12.5 33.0906 12.5 33.1135 12.5C33.1363 12.5 33.1591 12.5 33.1819 12.5C33.2048 12.5 33.2276 12.5 33.2504 12.5C33.2732 12.5 33.2961 12.5 33.3189 12.5C33.3417 12.5 33.3646 12.5 33.3874 12.5C33.4102 12.5 33.4331 12.5 33.4559 12.5C33.4787 12.5 33.5016 12.5 33.5244 12.5C33.5473 12.5 33.5701 12.5 33.5929 12.5C33.6158 12.5 33.6386 12.5 33.6615 12.5C33.6843 12.5 33.7072 12.5 33.73 12.5C33.7529 12.5 33.7757 12.5 33.7986 12.5C33.8214 12.5 33.8443 12.5 33.8671 12.5C33.89 12.5 33.9128 12.5 33.9357 12.5C33.9585 12.5 33.9814 12.5 34.0042 12.5C34.0271 12.5 34.0499 12.5 34.0728 12.5C34.0956 12.5 34.1185 12.5 34.1413 12.5C34.1642 12.5 34.187 12.5 34.2099 12.5C34.2327 12.5 34.2556 12.5 34.2785 12.5C34.3013 12.5 34.3242 12.5 34.347 12.5C34.3699 12.5 34.3927 12.5 34.4156 12.5C34.4384 12.5 34.4613 12.5 34.4841 12.5C34.507 12.5 34.5298 12.5 34.5527 12.5C34.5755 12.5 34.5983 12.5 34.6212 12.5C34.644 12.5 34.6669 12.5 34.6897 12.5C34.7126 12.5 34.7354 12.5 34.7582 12.5C34.7811 12.5 34.8039 12.5 34.8268 12.5C34.8496 12.5 34.8724 12.5 34.8953 12.5C34.9181 12.5 34.9409 12.5 34.9638 12.5C34.9866 12.5 35.0094 12.5 35.0322 12.5C35.0551 12.5 35.0779 12.5 35.1007 12.5C35.1235 12.5 35.1463 12.5 35.1692 12.5C35.192 12.5 35.2148 12.5 35.2376 12.5C35.2604 12.5 35.2832 12.5 35.306 12.5C35.3288 12.5 35.3516 12.5 35.3744 12.5C35.3972 12.5 35.42 12.5 35.4428 12.5C35.4656 12.5 35.4884 12.5 35.5112 12.5C35.534 12.5 35.5568 12.5 35.5796 12.5C35.6024 12.5 35.6251 12.5 35.6479 12.5C35.6707 12.5 35.6935 12.5 35.7162 12.5C35.739 12.5 35.7618 12.5 35.7845 12.5C35.8073 12.5 35.83 12.5 35.8528 12.5C35.8755 12.5 35.8983 12.5 35.921 12.5C35.9438 12.5 35.9665 12.5 35.9893 12.5C36.012 12.5 36.0347 12.5 36.0575 12.5C36.0802 12.5 36.1029 12.5 36.1256 12.5C36.1483 12.5 36.1711 12.5 36.1938 12.5C36.2165 12.5 36.2392 12.5 36.2619 12.5C36.2846 12.5 36.3073 12.5 36.33 12.5C36.3527 12.5 36.3753 12.5 36.398 12.5C36.4207 12.5 36.4434 12.5 36.466 12.5C36.4887 12.5 36.5114 12.5 36.534 12.5C36.5567 12.5 36.5793 12.5 36.602 12.5C36.6246 12.5 36.6473 12.5 36.6699 12.5C36.6926 12.5 36.7152 12.5 36.7378 12.5C36.7604 12.5 36.783 12.5 36.8057 12.5C36.8283 12.5 36.8509 12.5 36.8735 12.5C36.8961 12.5 36.9187 12.5 36.9412 12.5C36.9638 12.5 36.9864 12.5 37.009 12.5C37.0316 12.5 37.0541 12.5 37.0767 12.5C37.0992 12.5 37.1218 12.5 37.1443 12.5C37.1669 12.5 37.1894 12.5 37.212 12.5C37.2345 12.5 37.257 12.5 37.2795 12.5C37.3021 12.5 37.3246 12.5 37.3471 12.5C37.3696 12.5 37.3921 12.5 37.4146 12.5C37.437 12.5 37.4595 12.5 37.482 12.5C37.5045 12.5 37.5269 12.5 37.5494 12.5C37.5718 12.5 37.5943 12.5 37.6167 12.5C37.6392 12.5 37.6616 12.5 37.684 12.5C37.7065 12.5 37.7289 12.5 37.7513 12.5C37.7737 12.5 37.7961 12.5 37.8185 12.5C37.8409 12.5 37.8633 12.5 37.8856 12.5C37.908 12.5 37.9304 12.5 37.9527 12.5C37.9751 12.5 37.9974 12.5 38.0198 12.5C38.0421 12.5 38.0644 12.5 38.0868 12.5C38.1091 12.5 38.1314 12.5 38.1537 12.5C38.176 12.5 38.1983 12.5 38.2206 12.5C38.2428 12.5 38.2651 12.5 38.2874 12.5C38.3097 12.5 38.3319 12.5 38.3541 12.5C38.3764 12.5 38.3986 12.5 38.4209 12.5C38.4431 12.5 38.4653 12.5 38.4875 12.5C38.5097 12.5 38.5319 12.5 38.5541 12.5C38.5763 12.5 38.5984 12.5 38.6206 12.5C38.6428 12.5 38.6649 12.5 38.6871 12.5C38.7092 12.5 38.7313 12.5 38.7535 12.5C38.7756 12.5 38.7977 12.5 38.8198 12.5C38.8419 12.5 38.864 12.5 38.8861 12.5C38.9081 12.5 38.9302 12.5 38.9523 12.5C38.9743 12.5 38.9964 12.5 39.0184 12.5C39.0404 12.5 39.0625 12.5 39.0845 12.5C39.1065 12.5 39.1285 12.5 39.1505 12.5C39.1725 12.5 39.1944 12.5 39.2164 12.5C39.2384 12.5 39.2603 12.5 39.2822 12.5C39.3042 12.5 39.3261 12.5 39.348 12.5C39.3699 12.5 39.3919 12.5 39.4137 12.5C39.4356 12.5 39.4575 12.5 39.4794 12.5C39.5012 12.5 39.5231 12.5 39.5449 12.5C39.5668 12.5 39.5886 12.5 39.6104 12.5C39.6322 12.5 39.6541 12.5 39.6758 12.5C39.6976 12.5 39.7194 12.5 39.7412 12.5C39.7629 12.5 39.7847 12.5 39.8064 12.5C39.8282 12.5 39.8499 12.5 39.8716 12.5C39.8933 12.5 39.915 12.5 39.9367 12.5C39.9584 12.5 39.9801 12.5 40.0017 12.5C40.0234 12.5 40.045 12.5 40.0666 12.5C40.0883 12.5 40.1099 12.5 40.1315 12.5C40.1531 12.5 40.1747 12.5 40.1963 12.5C40.2178 12.5 40.2394 12.5 40.2609 12.5C40.2825 12.5 40.304 12.5 40.3255 12.5C40.347 12.5 40.3685 12.5 40.39 12.5C40.4115 12.5 40.433 12.5 40.4545 12.5C40.4759 12.5 40.4974 12.5 40.5188 12.5C40.5402 12.5 40.5616 12.5 40.583 12.5C40.6044 12.5 40.6258 12.5 40.6472 12.5C40.6685 12.5 40.6899 12.5 40.7112 12.5C40.7326 12.5 40.7539 12.5 40.7752 12.5C40.7965 12.5 40.8178 12.5 40.8391 12.5C40.8603 12.5 40.8816 12.5 40.9028 12.5C40.9241 12.5 40.9453 12.5 40.9665 12.5C40.9877 12.5 41.0089 12.5 41.0301 12.5C41.0513 12.5 41.0724 12.5 41.0936 12.5C41.1147 12.5 41.1359 12.5 41.157 12.5C41.1781 12.5 41.1992 12.5 41.2203 12.5C41.2414 12.5 41.2624 12.5 41.2835 12.5C41.3045 12.5 41.3255 12.5 41.3465 12.5C41.3676 12.5 41.3886 12.5 41.4095 12.5C41.4305 12.5 41.4515 12.5 41.4724 12.5C41.4934 12.5 41.5143 12.5 41.5352 12.5C41.5561 12.5 41.577 12.5 41.5979 12.5C41.6187 12.5 41.6396 12.5 41.6604 12.5C41.6813 12.5 41.7021 12.5 41.7229 12.5C41.7437 12.5 41.7645 12.5 41.7853 12.5C41.806 12.5 41.8268 12.5 41.8475 12.5C41.8682 12.5 41.8889 12.5 41.9096 12.5C41.9303 12.5 41.951 12.5 41.9717 12.5C41.9923 12.5 42.013 12.5 42.0336 12.5C42.0542 12.5 42.0748 12.5 42.0954 12.5C42.116 12.5 42.1365 12.5 42.1571 12.5C42.1776 12.5 42.1981 12.5 42.2186 12.5C42.2392 12.5 42.2596 12.5 42.2801 12.5C42.3006 12.5 42.321 12.5 42.3414 12.5C42.3619 12.5 42.3823 12.5 42.4027 12.5C42.4231 12.5 42.4434 12.5 42.4638 12.5C42.4841 12.5 42.5045 12.5 42.5248 12.5C42.5451 12.5 42.5654 12.5 42.5856 12.5C42.6059 12.5 42.6262 12.5 42.6464 12.5C42.6666 12.5 42.6868 12.5 42.707 12.5C42.7272 12.5 42.7474 12.5 42.7675 12.5C42.7877 12.5 42.8078 12.5 42.8279 12.5C42.848 12.5 42.8681 12.5 42.8881 12.5C42.9082 12.5 42.9282 12.5 42.9483 12.5C42.9683 12.5 42.9883 12.5 43.0083 12.5C43.0283 12.5 43.0482 12.5 43.0681 12.5C43.0881 12.5 43.108 12.5 43.1279 12.5C43.1478 12.5 43.1677 12.5 43.1875 12.5C43.2074 12.5 43.2272 12.5 43.247 12.5C43.2668 12.5 43.2866 12.5 43.3063 12.5C43.3261 12.5 43.3459 12.5 43.3656 12.5C43.3853 12.5 43.405 12.5 43.4247 12.5C43.4443 12.5 43.464 12.5 43.4836 12.5C43.5032 12.5 43.5229 12.5 43.5424 12.5C43.562 12.5 43.5816 12.5 43.6011 12.5C43.6207 12.5 43.6402 12.5 43.6597 12.5C43.6792 12.5 43.6986 12.5 43.7181 12.5C43.7375 12.5 43.7569 12.5 43.7763 12.5C43.7957 12.5 43.8151 12.5 43.8345 12.5C43.8538 12.5 43.8732 12.5 43.8925 12.5C43.9118 12.5 43.9311 12.5 43.9503 12.5C43.9696 12.5 43.9888 12.5 44.008 12.5C44.0272 12.5 44.0464 12.5 44.0656 12.5C44.0847 12.5 44.1039 12.5 44.123 12.5C44.1421 12.5 44.1612 12.5 44.1803 12.5C44.1993 12.5 44.2184 12.5 44.2374 12.5C44.2564 12.5 44.2754 12.5 44.2944 12.5C44.3133 12.5 44.3323 12.5 44.3512 12.5C44.3701 12.5 44.389 12.5 44.4079 12.5C44.4268 12.5 44.4456 12.5 44.4644 12.5C44.4832 12.5 44.502 12.5 44.5208 12.5C44.5396 12.5 44.5583 12.5 44.577 12.5C44.5957 12.5 44.6144 12.5 44.6331 12.5C44.6518 12.5 44.6704 12.5 44.689 12.5C44.7076 12.5 44.7262 12.5 44.7448 12.5C44.7634 12.5 44.7819 12.5 44.8004 12.5C44.8189 12.5 44.8374 12.5 44.8559 12.5C44.8743 12.5 44.8927 12.5 44.9111 12.5C44.9296 12.5 44.9479 12.5 44.9663 12.5C44.9846 12.5 45.003 12.5 45.0213 12.5C45.0396 12.5 45.0578 12.5 45.0761 12.5C45.0943 12.5 45.1125 12.5 45.1307 12.5C45.1489 12.5 45.1671 12.5 45.1852 12.5C45.2034 12.5 45.2215 12.5 45.2396 12.5C45.2576 12.5 45.2757 12.5 45.2937 12.5C45.3117 12.5 45.3297 12.5 45.3477 12.5C45.3657 12.5 45.3836 12.5 45.4016 12.5C45.4195 12.5 45.4374 12.5 45.4552 12.5C45.4731 12.5 45.4909 12.5 45.5087 12.5C45.5265 12.5 45.5443 12.5 45.562 12.5C45.5798 12.5 45.5975 12.5 45.6152 12.5C45.6329 12.5 45.6506 12.5 45.6682 12.5C45.6858 12.5 45.7034 12.5 45.721 12.5C45.7386 12.5 45.7561 12.5 45.7737 12.5C45.7912 12.5 45.8087 12.5 45.8261 12.5C45.8436 12.5 45.861 12.5 45.8784 12.5C45.8958 12.5 45.9132 12.5 45.9305 12.5C45.9479 12.5 45.9652 12.5 45.9825 12.5C45.9998 12.5 46.017 12.5 46.0343 12.5C46.0515 12.5 46.0687 12.5 46.0858 12.5C46.103 12.5 46.1201 12.5 46.1372 12.5C46.1544 12.5 46.1714 12.5 46.1885 12.5C46.2055 12.5 46.2225 12.5 46.2395 12.5C46.2565 12.5 46.2735 12.5 46.2904 12.5C46.3073 12.5 46.3242 12.5 46.3411 12.5C46.3579 12.5 46.3748 12.5 46.3916 12.5C46.4084 12.5 46.4251 12.5 46.4419 12.5C46.4586 12.5 46.4753 12.5 46.492 12.5C46.5087 12.5 46.5253 12.5 46.5419 12.5C46.5586 12.5 46.5751 12.5 46.5917 12.5C46.6082 12.5 46.6248 12.5 46.6413 12.5C46.6577 12.5 46.6742 12.5 46.6906 12.5C46.707 12.5 46.7234 12.5 46.7398 12.5C46.7562 12.5 46.7725 12.5 46.7888 12.5C46.8051 12.5 46.8214 12.5 46.8376 12.5C46.8538 12.5 46.87 12.5 46.8862 12.5C46.9024 12.5 46.9185 12.5 46.9346 12.5C46.9507 12.5 46.9668 12.5 46.9828 12.5C46.9989 12.5 47.0149 12.5 47.0308 12.5C47.0468 12.5 47.0627 12.5 47.0787 12.5C47.0946 12.5 47.1104 12.5 47.1263 12.5C47.1421 12.5 47.1579 12.5 47.1737 12.5C47.1895 12.5 47.2052 12.5 47.2209 12.5C47.2366 12.5 47.2523 12.5 47.2679 12.5C47.2836 12.5 47.2992 12.5 47.3148 12.5C47.3303 12.5 47.3459 12.5 47.3614 12.5C47.3769 12.5 47.3924 12.5 47.4078 12.5C47.4232 12.5 47.4386 12.5 47.454 12.5C47.4694 12.5 47.4847 12.5 47.5 12.5V7.5C47.4847 7.5 47.4694 7.5 47.454 7.5C47.4386 7.5 47.4232 7.5 47.4078 7.5C47.3924 7.5 47.3769 7.5 47.3614 7.5C47.3459 7.5 47.3303 7.5 47.3148 7.5C47.2992 7.5 47.2836 7.5 47.2679 7.5C47.2523 7.5 47.2366 7.5 47.2209 7.5C47.2052 7.5 47.1895 7.5 47.1737 7.5C47.1579 7.5 47.1421 7.5 47.1263 7.5C47.1104 7.5 47.0946 7.5 47.0787 7.5C47.0627 7.5 47.0468 7.5 47.0308 7.5C47.0149 7.5 46.9989 7.5 46.9828 7.5C46.9668 7.5 46.9507 7.5 46.9346 7.5C46.9185 7.5 46.9024 7.5 46.8862 7.5C46.87 7.5 46.8538 7.5 46.8376 7.5C46.8214 7.5 46.8051 7.5 46.7888 7.5C46.7725 7.5 46.7562 7.5 46.7398 7.5C46.7234 7.5 46.707 7.5 46.6906 7.5C46.6742 7.5 46.6577 7.5 46.6413 7.5C46.6248 7.5 46.6082 7.5 46.5917 7.5C46.5751 7.5 46.5586 7.5 46.5419 7.5C46.5253 7.5 46.5087 7.5 46.492 7.5C46.4753 7.5 46.4586 7.5 46.4419 7.5C46.4251 7.5 46.4084 7.5 46.3916 7.5C46.3748 7.5 46.3579 7.5 46.3411 7.5C46.3242 7.5 46.3073 7.5 46.2904 7.5C46.2735 7.5 46.2565 7.5 46.2395 7.5C46.2225 7.5 46.2055 7.5 46.1885 7.5C46.1714 7.5 46.1544 7.5 46.1372 7.5C46.1201 7.5 46.103 7.5 46.0858 7.5C46.0687 7.5 46.0515 7.5 46.0343 7.5C46.017 7.5 45.9998 7.5 45.9825 7.5C45.9652 7.5 45.9479 7.5 45.9305 7.5C45.9132 7.5 45.8958 7.5 45.8784 7.5C45.861 7.5 45.8436 7.5 45.8261 7.5C45.8087 7.5 45.7912 7.5 45.7737 7.5C45.7561 7.5 45.7386 7.5 45.721 7.5C45.7034 7.5 45.6858 7.5 45.6682 7.5C45.6506 7.5 45.6329 7.5 45.6152 7.5C45.5975 7.5 45.5798 7.5 45.562 7.5C45.5443 7.5 45.5265 7.5 45.5087 7.5C45.4909 7.5 45.4731 7.5 45.4552 7.5C45.4374 7.5 45.4195 7.5 45.4016 7.5C45.3836 7.5 45.3657 7.5 45.3477 7.5C45.3297 7.5 45.3117 7.5 45.2937 7.5C45.2757 7.5 45.2576 7.5 45.2396 7.5C45.2215 7.5 45.2034 7.5 45.1852 7.5C45.1671 7.5 45.1489 7.5 45.1307 7.5C45.1125 7.5 45.0943 7.5 45.0761 7.5C45.0578 7.5 45.0396 7.5 45.0213 7.5C45.003 7.5 44.9846 7.5 44.9663 7.5C44.9479 7.5 44.9296 7.5 44.9111 7.5C44.8927 7.5 44.8743 7.5 44.8559 7.5C44.8374 7.5 44.8189 7.5 44.8004 7.5C44.7819 7.5 44.7634 7.5 44.7448 7.5C44.7262 7.5 44.7076 7.5 44.689 7.5C44.6704 7.5 44.6518 7.5 44.6331 7.5C44.6144 7.5 44.5957 7.5 44.577 7.5C44.5583 7.5 44.5396 7.5 44.5208 7.5C44.502 7.5 44.4832 7.5 44.4644 7.5C44.4456 7.5 44.4268 7.5 44.4079 7.5C44.389 7.5 44.3701 7.5 44.3512 7.5C44.3323 7.5 44.3133 7.5 44.2944 7.5C44.2754 7.5 44.2564 7.5 44.2374 7.5C44.2184 7.5 44.1993 7.5 44.1803 7.5C44.1612 7.5 44.1421 7.5 44.123 7.5C44.1039 7.5 44.0847 7.5 44.0656 7.5C44.0464 7.5 44.0272 7.5 44.008 7.5C43.9888 7.5 43.9696 7.5 43.9503 7.5C43.9311 7.5 43.9118 7.5 43.8925 7.5C43.8732 7.5 43.8538 7.5 43.8345 7.5C43.8151 7.5 43.7957 7.5 43.7763 7.5C43.7569 7.5 43.7375 7.5 43.7181 7.5C43.6986 7.5 43.6792 7.5 43.6597 7.5C43.6402 7.5 43.6207 7.5 43.6011 7.5C43.5816 7.5 43.562 7.5 43.5424 7.5C43.5229 7.5 43.5032 7.5 43.4836 7.5C43.464 7.5 43.4443 7.5 43.4247 7.5C43.405 7.5 43.3853 7.5 43.3656 7.5C43.3459 7.5 43.3261 7.5 43.3063 7.5C43.2866 7.5 43.2668 7.5 43.247 7.5C43.2272 7.5 43.2074 7.5 43.1875 7.5C43.1677 7.5 43.1478 7.5 43.1279 7.5C43.108 7.5 43.0881 7.5 43.0681 7.5C43.0482 7.5 43.0283 7.5 43.0083 7.5C42.9883 7.5 42.9683 7.5 42.9483 7.5C42.9282 7.5 42.9082 7.5 42.8881 7.5C42.8681 7.5 42.848 7.5 42.8279 7.5C42.8078 7.5 42.7877 7.5 42.7675 7.5C42.7474 7.5 42.7272 7.5 42.707 7.5C42.6868 7.5 42.6666 7.5 42.6464 7.5C42.6262 7.5 42.6059 7.5 42.5856 7.5C42.5654 7.5 42.5451 7.5 42.5248 7.5C42.5045 7.5 42.4841 7.5 42.4638 7.5C42.4434 7.5 42.4231 7.5 42.4027 7.5C42.3823 7.5 42.3619 7.5 42.3414 7.5C42.321 7.5 42.3006 7.5 42.2801 7.5C42.2596 7.5 42.2392 7.5 42.2186 7.5C42.1981 7.5 42.1776 7.5 42.1571 7.5C42.1365 7.5 42.116 7.5 42.0954 7.5C42.0748 7.5 42.0542 7.5 42.0336 7.5C42.013 7.5 41.9923 7.5 41.9717 7.5C41.951 7.5 41.9303 7.5 41.9096 7.5C41.8889 7.5 41.8682 7.5 41.8475 7.5C41.8268 7.5 41.806 7.5 41.7853 7.5C41.7645 7.5 41.7437 7.5 41.7229 7.5C41.7021 7.5 41.6813 7.5 41.6604 7.5C41.6396 7.5 41.6187 7.5 41.5979 7.5C41.577 7.5 41.5561 7.5 41.5352 7.5C41.5143 7.5 41.4934 7.5 41.4724 7.5C41.4515 7.5 41.4305 7.5 41.4095 7.5C41.3886 7.5 41.3676 7.5 41.3465 7.5C41.3255 7.5 41.3045 7.5 41.2835 7.5C41.2624 7.5 41.2414 7.5 41.2203 7.5C41.1992 7.5 41.1781 7.5 41.157 7.5C41.1359 7.5 41.1147 7.5 41.0936 7.5C41.0724 7.5 41.0513 7.5 41.0301 7.5C41.0089 7.5 40.9877 7.5 40.9665 7.5C40.9453 7.5 40.9241 7.5 40.9028 7.5C40.8816 7.5 40.8603 7.5 40.8391 7.5C40.8178 7.5 40.7965 7.5 40.7752 7.5C40.7539 7.5 40.7326 7.5 40.7112 7.5C40.6899 7.5 40.6685 7.5 40.6472 7.5C40.6258 7.5 40.6044 7.5 40.583 7.5C40.5616 7.5 40.5402 7.5 40.5188 7.5C40.4974 7.5 40.4759 7.5 40.4545 7.5C40.433 7.5 40.4115 7.5 40.39 7.5C40.3685 7.5 40.347 7.5 40.3255 7.5C40.304 7.5 40.2825 7.5 40.2609 7.5C40.2394 7.5 40.2178 7.5 40.1963 7.5C40.1747 7.5 40.1531 7.5 40.1315 7.5C40.1099 7.5 40.0883 7.5 40.0666 7.5C40.045 7.5 40.0234 7.5 40.0017 7.5C39.9801 7.5 39.9584 7.5 39.9367 7.5C39.915 7.5 39.8933 7.5 39.8716 7.5C39.8499 7.5 39.8282 7.5 39.8064 7.5C39.7847 7.5 39.7629 7.5 39.7412 7.5C39.7194 7.5 39.6976 7.5 39.6758 7.5C39.6541 7.5 39.6322 7.5 39.6104 7.5C39.5886 7.5 39.5668 7.5 39.5449 7.5C39.5231 7.5 39.5012 7.5 39.4794 7.5C39.4575 7.5 39.4356 7.5 39.4137 7.5C39.3919 7.5 39.3699 7.5 39.348 7.5C39.3261 7.5 39.3042 7.5 39.2822 7.5C39.2603 7.5 39.2384 7.5 39.2164 7.5C39.1944 7.5 39.1725 7.5 39.1505 7.5C39.1285 7.5 39.1065 7.5 39.0845 7.5C39.0625 7.5 39.0404 7.5 39.0184 7.5C38.9964 7.5 38.9743 7.5 38.9523 7.5C38.9302 7.5 38.9081 7.5 38.8861 7.5C38.864 7.5 38.8419 7.5 38.8198 7.5C38.7977 7.5 38.7756 7.5 38.7535 7.5C38.7313 7.5 38.7092 7.5 38.6871 7.5C38.6649 7.5 38.6428 7.5 38.6206 7.5C38.5984 7.5 38.5763 7.5 38.5541 7.5C38.5319 7.5 38.5097 7.5 38.4875 7.5C38.4653 7.5 38.4431 7.5 38.4209 7.5C38.3986 7.5 38.3764 7.5 38.3541 7.5C38.3319 7.5 38.3097 7.5 38.2874 7.5C38.2651 7.5 38.2428 7.5 38.2206 7.5C38.1983 7.5 38.176 7.5 38.1537 7.5C38.1314 7.5 38.1091 7.5 38.0868 7.5C38.0644 7.5 38.0421 7.5 38.0198 7.5C37.9974 7.5 37.9751 7.5 37.9527 7.5C37.9304 7.5 37.908 7.5 37.8856 7.5C37.8633 7.5 37.8409 7.5 37.8185 7.5C37.7961 7.5 37.7737 7.5 37.7513 7.5C37.7289 7.5 37.7065 7.5 37.684 7.5C37.6616 7.5 37.6392 7.5 37.6167 7.5C37.5943 7.5 37.5718 7.5 37.5494 7.5C37.5269 7.5 37.5045 7.5 37.482 7.5C37.4595 7.5 37.437 7.5 37.4146 7.5C37.3921 7.5 37.3696 7.5 37.3471 7.5C37.3246 7.5 37.3021 7.5 37.2795 7.5C37.257 7.5 37.2345 7.5 37.212 7.5C37.1894 7.5 37.1669 7.5 37.1443 7.5C37.1218 7.5 37.0992 7.5 37.0767 7.5C37.0541 7.5 37.0316 7.5 37.009 7.5C36.9864 7.5 36.9638 7.5 36.9412 7.5C36.9187 7.5 36.8961 7.5 36.8735 7.5C36.8509 7.5 36.8283 7.5 36.8057 7.5C36.783 7.5 36.7604 7.5 36.7378 7.5C36.7152 7.5 36.6926 7.5 36.6699 7.5C36.6473 7.5 36.6246 7.5 36.602 7.5C36.5793 7.5 36.5567 7.5 36.534 7.5C36.5114 7.5 36.4887 7.5 36.466 7.5C36.4434 7.5 36.4207 7.5 36.398 7.5C36.3753 7.5 36.3527 7.5 36.33 7.5C36.3073 7.5 36.2846 7.5 36.2619 7.5C36.2392 7.5 36.2165 7.5 36.1938 7.5C36.1711 7.5 36.1483 7.5 36.1256 7.5C36.1029 7.5 36.0802 7.5 36.0575 7.5C36.0347 7.5 36.012 7.5 35.9893 7.5C35.9665 7.5 35.9438 7.5 35.921 7.5C35.8983 7.5 35.8755 7.5 35.8528 7.5C35.83 7.5 35.8073 7.5 35.7845 7.5C35.7618 7.5 35.739 7.5 35.7162 7.5C35.6935 7.5 35.6707 7.5 35.6479 7.5C35.6251 7.5 35.6024 7.5 35.5796 7.5C35.5568 7.5 35.534 7.5 35.5112 7.5C35.4884 7.5 35.4656 7.5 35.4428 7.5C35.42 7.5 35.3972 7.5 35.3744 7.5C35.3516 7.5 35.3288 7.5 35.306 7.5C35.2832 7.5 35.2604 7.5 35.2376 7.5C35.2148 7.5 35.192 7.5 35.1692 7.5C35.1463 7.5 35.1235 7.5 35.1007 7.5C35.0779 7.5 35.0551 7.5 35.0322 7.5C35.0094 7.5 34.9866 7.5 34.9638 7.5C34.9409 7.5 34.9181 7.5 34.8953 7.5C34.8724 7.5 34.8496 7.5 34.8268 7.5C34.8039 7.5 34.7811 7.5 34.7582 7.5C34.7354 7.5 34.7126 7.5 34.6897 7.5C34.6669 7.5 34.644 7.5 34.6212 7.5C34.5983 7.5 34.5755 7.5 34.5527 7.5C34.5298 7.5 34.507 7.5 34.4841 7.5C34.4613 7.5 34.4384 7.5 34.4156 7.5C34.3927 7.5 34.3699 7.5 34.347 7.5C34.3242 7.5 34.3013 7.5 34.2785 7.5C34.2556 7.5 34.2327 7.5 34.2099 7.5C34.187 7.5 34.1642 7.5 34.1413 7.5C34.1185 7.5 34.0956 7.5 34.0728 7.5C34.0499 7.5 34.0271 7.5 34.0042 7.5C33.9814 7.5 33.9585 7.5 33.9357 7.5C33.9128 7.5 33.89 7.5 33.8671 7.5C33.8443 7.5 33.8214 7.5 33.7986 7.5C33.7757 7.5 33.7529 7.5 33.73 7.5C33.7072 7.5 33.6843 7.5 33.6615 7.5C33.6386 7.5 33.6158 7.5 33.5929 7.5C33.5701 7.5 33.5473 7.5 33.5244 7.5C33.5016 7.5 33.4787 7.5 33.4559 7.5C33.4331 7.5 33.4102 7.5 33.3874 7.5C33.3646 7.5 33.3417 7.5 33.3189 7.5C33.2961 7.5 33.2732 7.5 33.2504 7.5C33.2276 7.5 33.2048 7.5 33.1819 7.5C33.1591 7.5 33.1363 7.5 33.1135 7.5C33.0906 7.5 33.0678 7.5 33.045 7.5C33.0222 7.5 32.9994 7.5 32.9766 7.5C32.9538 7.5 32.931 7.5 32.9082 7.5C32.8854 7.5 32.8626 7.5 32.8398 7.5C32.817 7.5 32.7942 7.5 32.7714 7.5C32.7486 7.5 32.7258 7.5 32.703 7.5C32.6802 7.5 32.6575 7.5 32.6347 7.5C32.6119 7.5 32.5891 7.5 32.5663 7.5C32.5436 7.5 32.5208 7.5 32.498 7.5C32.4753 7.5 32.4525 7.5 32.4298 7.5C32.407 7.5 32.3843 7.5 32.3615 7.5C32.3388 7.5 32.316 7.5 32.2933 7.5C32.2705 7.5 32.2478 7.5 32.2251 7.5C32.2023 7.5 32.1796 7.5 32.1569 7.5C32.1342 7.5 32.1115 7.5 32.0887 7.5C32.066 7.5 32.0433 7.5 32.0206 7.5C31.9979 7.5 31.9752 7.5 31.9525 7.5C31.9298 7.5 31.9071 7.5 31.8844 7.5C31.8618 7.5 31.8391 7.5 31.8164 7.5C31.7937 7.5 31.7711 7.5 31.7484 7.5C31.7257 7.5 31.7031 7.5 31.6804 7.5C31.6578 7.5 31.6351 7.5 31.6125 7.5C31.5899 7.5 31.5672 7.5 31.5446 7.5C31.522 7.5 31.4993 7.5 31.4767 7.5C31.4541 7.5 31.4315 7.5 31.4089 7.5C31.3863 7.5 31.3637 7.5 31.3411 7.5C31.3185 7.5 31.2959 7.5 31.2734 7.5C31.2508 7.5 31.2282 7.5 31.2056 7.5C31.1831 7.5 31.1605 7.5 31.138 7.5C31.1154 7.5 31.0929 7.5 31.0703 7.5C31.0478 7.5 31.0253 7.5 31.0027 7.5C30.9802 7.5 30.9577 7.5 30.9352 7.5C30.9127 7.5 30.8902 7.5 30.8677 7.5C30.8452 7.5 30.8227 7.5 30.8002 7.5C30.7778 7.5 30.7553 7.5 30.7328 7.5C30.7104 7.5 30.6879 7.5 30.6655 7.5C30.643 7.5 30.6206 7.5 30.5981 7.5C30.5757 7.5 30.5533 7.5 30.5309 7.5C30.5085 7.5 30.486 7.5 30.4636 7.5C30.4413 7.5 30.4189 7.5 30.3965 7.5C30.3741 7.5 30.3517 7.5 30.3294 7.5C30.307 7.5 30.2846 7.5 30.2623 7.5C30.24 7.5 30.2176 7.5 30.1953 7.5C30.173 7.5 30.1506 7.5 30.1283 7.5C30.106 7.5 30.0837 7.5 30.0614 7.5C30.0391 7.5 30.0169 7.5 29.9946 7.5C29.9723 7.5 29.9501 7.5 29.9278 7.5C29.9056 7.5 29.8833 7.5 29.8611 7.5C29.8388 7.5 29.8166 7.5 29.7944 7.5C29.7722 7.5 29.75 7.5 29.7278 7.5C29.7056 7.5 29.6834 7.5 29.6613 7.5C29.6391 7.5 29.6169 7.5 29.5948 7.5C29.5726 7.5 29.5505 7.5 29.5283 7.5C29.5062 7.5 29.4841 7.5 29.462 7.5C29.4399 7.5 29.4178 7.5 29.3957 7.5C29.3736 7.5 29.3515 7.5 29.3295 7.5C29.3074 7.5 29.2853 7.5 29.2633 7.5C29.2413 7.5 29.2192 7.5 29.1972 7.5C29.1752 7.5 29.1532 7.5 29.1312 7.5C29.1092 7.5 29.0872 7.5 29.0652 7.5C29.0433 7.5 29.0213 7.5 28.9993 7.5C28.9774 7.5 28.9555 7.5 28.9335 7.5C28.9116 7.5 28.8897 7.5 28.8678 7.5C28.8459 7.5 28.824 7.5 28.8021 7.5C28.7803 7.5 28.7584 7.5 28.7365 7.5C28.7147 7.5 28.6928 7.5 28.671 7.5C28.6492 7.5 28.6274 7.5 28.6056 7.5C28.5838 7.5 28.562 7.5 28.5402 7.5C28.5184 7.5 28.4967 7.5 28.4749 7.5C28.4532 7.5 28.4314 7.5 28.4097 7.5C28.388 7.5 28.3663 7.5 28.3446 7.5C28.3229 7.5 28.3012 7.5 28.2795 7.5C28.2579 7.5 28.2362 7.5 28.2146 7.5C28.1929 7.5 28.1713 7.5 28.1497 7.5C28.1281 7.5 28.1065 7.5 28.0849 7.5C28.0633 7.5 28.0417 7.5 28.0202 7.5C27.9986 7.5 27.9771 7.5 27.9556 7.5C27.934 7.5 27.9125 7.5 27.891 7.5C27.8695 7.5 27.848 7.5 27.8266 7.5C27.8051 7.5 27.7836 7.5 27.7622 7.5C27.7408 7.5 27.7193 7.5 27.6979 7.5C27.6765 7.5 27.6551 7.5 27.6337 7.5C27.6124 7.5 27.591 7.5 27.5697 7.5C27.5483 7.5 27.527 7.5 27.5057 7.5C27.4843 7.5 27.463 7.5 27.4417 7.5C27.4205 7.5 27.3992 7.5 27.3779 7.5C27.3567 7.5 27.3354 7.5 27.3142 7.5C27.293 7.5 27.2718 7.5 27.2506 7.5C27.2294 7.5 27.2082 7.5 27.1871 7.5C27.1659 7.5 27.1448 7.5 27.1236 7.5C27.1025 7.5 27.0814 7.5 27.0603 7.5C27.0392 7.5 27.0181 7.5 26.9971 7.5C26.976 7.5 26.955 7.5 26.9339 7.5C26.9129 7.5 26.8919 7.5 26.8709 7.5C26.8499 7.5 26.829 7.5 26.808 7.5C26.787 7.5 26.7661 7.5 26.7452 7.5C26.7243 7.5 26.7033 7.5 26.6825 7.5C26.6616 7.5 26.6407 7.5 26.6199 7.5C26.599 7.5 26.5782 7.5 26.5573 7.5C26.5365 7.5 26.5157 7.5 26.4949 7.5C26.4742 7.5 26.4534 7.5 26.4327 7.5C26.4119 7.5 26.3912 7.5 26.3705 7.5C26.3498 7.5 26.3291 7.5 26.3084 7.5C26.2877 7.5 26.2671 7.5 26.2465 7.5C26.2258 7.5 26.2052 7.5 26.1846 7.5C26.164 7.5 26.1434 7.5 26.1229 7.5C26.1023 7.5 26.0818 7.5 26.0613 7.5C26.0407 7.5 26.0202 7.5 25.9998 7.5C25.9793 7.5 25.9588 7.5 25.9384 7.5C25.9179 7.5 25.8975 7.5 25.8771 7.5C25.8567 7.5 25.8363 7.5 25.8159 7.5C25.7956 7.5 25.7752 7.5 25.7549 7.5C25.7346 7.5 25.7143 7.5 25.694 7.5C25.6737 7.5 25.6534 7.5 25.6332 7.5C25.6129 7.5 25.5927 7.5 25.5725 7.5C25.5523 7.5 25.5321 7.5 25.512 7.5C25.4918 7.5 25.4717 7.5 25.4515 7.5C25.4314 7.5 25.4113 7.5 25.3912 7.5C25.3712 7.5 25.3511 7.5 25.3311 7.5C25.311 7.5 25.291 7.5 25.271 7.5C25.251 7.5 25.231 7.5 25.2111 7.5C25.1911 7.5 25.1712 7.5 25.1513 7.5C25.1314 7.5 25.1115 7.5 25.0916 7.5C25.0717 7.5 25.0519 7.5 25.0321 7.5C25.0123 7.5 24.9925 7.5 24.9727 7.5C24.9529 7.5 24.9331 7.5 24.9134 7.5C24.8937 7.5 24.8739 7.5 24.8543 7.5C24.8346 7.5 24.8149 7.5 24.7952 7.5C24.7756 7.5 24.756 7.5 24.7364 7.5C24.7168 7.5 24.6972 7.5 24.6776 7.5C24.6581 7.5 24.6385 7.5 24.619 7.5C24.5995 7.5 24.58 7.5 24.5606 7.5C24.5411 7.5 24.5217 7.5 24.5022 7.5C24.4828 7.5 24.4634 7.5 24.4441 7.5C24.4247 7.5 24.4053 7.5 24.386 7.5C24.3667 7.5 24.3474 7.5 24.3281 7.5C24.3088 7.5 24.2896 7.5 24.2703 7.5C24.2511 7.5 24.2319 7.5 24.2127 7.5C24.1935 7.5 24.1744 7.5 24.1553 7.5C24.1361 7.5 24.117 7.5 24.0979 7.5C24.0788 7.5 24.0598 7.5 24.0407 7.5C24.0217 7.5 24.0027 7.5 23.9837 7.5C23.9647 7.5 23.9458 7.5 23.9268 7.5C23.9079 7.5 23.889 7.5 23.8701 7.5C23.8512 7.5 23.8323 7.5 23.8135 7.5C23.7946 7.5 23.7758 7.5 23.757 7.5C23.7383 7.5 23.7195 7.5 23.7008 7.5C23.682 7.5 23.6633 7.5 23.6446 7.5C23.6259 7.5 23.6073 7.5 23.5886 7.5C23.57 7.5 23.5514 7.5 23.5328 7.5C23.5142 7.5 23.4957 7.5 23.4771 7.5C23.4586 7.5 23.4401 7.5 23.4216 7.5C23.4031 7.5 23.3847 7.5 23.3663 7.5C23.3478 7.5 23.3294 7.5 23.3111 7.5C23.2927 7.5 23.2743 7.5 23.256 7.5C23.2377 7.5 23.2194 7.5 23.2011 7.5C23.1829 7.5 23.1646 7.5 23.1464 7.5C23.1282 7.5 23.11 7.5 23.0919 7.5C23.0737 7.5 23.0556 7.5 23.0375 7.5C23.0194 7.5 23.0013 7.5 22.9832 7.5C22.9652 7.5 22.9472 7.5 22.9292 7.5C22.9112 7.5 22.8932 7.5 22.8753 7.5C22.8573 7.5 22.8394 7.5 22.8216 7.5C22.8037 7.5 22.7858 7.5 22.768 7.5C22.7502 7.5 22.7324 7.5 22.7146 7.5C22.6968 7.5 22.6791 7.5 22.6614 7.5C22.6436 7.5 22.626 7.5 22.6083 7.5C22.5906 7.5 22.573 7.5 22.5554 7.5C22.5378 7.5 22.5203 7.5 22.5027 7.5C22.4852 7.5 22.4677 7.5 22.4502 7.5C22.4327 7.5 22.4152 7.5 22.3978 7.5C22.3804 7.5 22.363 7.5 22.3456 7.5C22.3282 7.5 22.3109 7.5 22.2936 7.5C22.2763 7.5 22.259 7.5 22.2418 7.5C22.2245 7.5 22.2073 7.5 22.1901 7.5C22.1729 7.5 22.1558 7.5 22.1386 7.5C22.1215 7.5 22.1044 7.5 22.0873 7.5C22.0703 7.5 22.0532 7.5 22.0362 7.5C22.0192 7.5 22.0022 7.5 21.9853 7.5C21.9683 7.5 21.9514 7.5 21.9345 7.5C21.9176 7.5 21.9008 7.5 21.884 7.5C21.8671 7.5 21.8503 7.5 21.8336 7.5C21.8168 7.5 21.8001 7.5 21.7834 7.5C21.7667 7.5 21.75 7.5 21.7334 7.5C21.7167 7.5 21.7001 7.5 21.6835 7.5C21.667 7.5 21.6504 7.5 21.6339 7.5C21.6174 7.5 21.6009 7.5 21.5844 7.5C21.568 7.5 21.5516 7.5 21.5352 7.5C21.5188 7.5 21.5024 7.5 21.4861 7.5C21.4698 7.5 21.4535 7.5 21.4373 7.5C21.421 7.5 21.4048 7.5 21.3886 7.5C21.3724 7.5 21.3562 7.5 21.3401 7.5C21.324 7.5 21.3079 7.5 21.2918 7.5C21.2757 7.5 21.2597 7.5 21.2437 7.5C21.2277 7.5 21.2117 7.5 21.1958 7.5C21.1799 7.5 21.164 7.5 21.1481 7.5C21.1322 7.5 21.1164 7.5 21.1006 7.5C21.0848 7.5 21.069 7.5 21.0533 7.5C21.0376 7.5 21.0219 7.5 21.0062 7.5C20.9905 7.5 20.9749 7.5 20.9593 7.5C20.9437 7.5 20.9281 7.5 20.9126 7.5C20.8971 7.5 20.8816 7.5 20.8661 7.5C20.8506 7.5 20.8352 7.5 20.8198 7.5C20.8044 7.5 20.7891 7.5 20.7737 7.5C20.7584 7.5 20.7431 7.5 20.7279 7.5C20.7126 7.5 20.6974 7.5 20.6822 7.5C20.667 7.5 20.6518 7.5 20.6367 7.5C20.6216 7.5 20.6065 7.5 20.5915 7.5C20.5764 7.5 20.5614 7.5 20.5464 7.5C20.5315 7.5 20.5165 7.5 20.5016 7.5C20.4867 7.5 20.4718 7.5 20.457 7.5C20.4422 7.5 20.4273 7.5 20.4126 7.5C20.3978 7.5 20.3831 7.5 20.3684 7.5C20.3537 7.5 20.339 7.5 20.3244 7.5C20.3098 7.5 20.2952 7.5 20.2807 7.5C20.2661 7.5 20.2516 7.5 20.2371 7.5C20.2226 7.5 20.2082 7.5 20.1938 7.5C20.1794 7.5 20.165 7.5 20.1507 7.5C20.1363 7.5 20.122 7.5 20.1078 7.5C20.0935 7.5 20.0793 7.5 20.0651 7.5C20.0509 7.5 20.0368 7.5 20.0227 7.5C20.0086 7.5 19.9945 7.5 19.9804 7.5C19.9664 7.5 19.9524 7.5 19.9384 7.5C19.9245 7.5 19.9106 7.5 19.8967 7.5C19.8828 7.5 19.8689 7.5 19.8551 7.5C19.8413 7.5 19.8275 7.5 19.8138 7.5C19.8001 7.5 19.7864 7.5 19.7727 7.5C19.759 7.5 19.7454 7.5 19.7318 7.5C19.7182 7.5 19.7047 7.5 19.6912 7.5C19.6777 7.5 19.6642 7.5 19.6508 7.5C19.6373 7.5 19.624 7.5 19.6106 7.5C19.5972 7.5 19.5839 7.5 19.5707 7.5C19.5574 7.5 19.5441 7.5 19.5309 7.5C19.5177 7.5 19.5046 7.5 19.4915 7.5C19.4783 7.5 19.4653 7.5 19.4522 7.5C19.4392 7.5 19.4262 7.5 19.4132 7.5C19.4002 7.5 19.3873 7.5 19.3744 7.5C19.3615 7.5 19.3487 7.5 19.3359 7.5C19.3231 7.5 19.3103 7.5 19.2976 7.5C19.2849 7.5 19.2722 7.5 19.2595 7.5C19.2469 7.5 19.2343 7.5 19.2217 7.5C19.2091 7.5 19.1966 7.5 19.1841 7.5C19.1716 7.5 19.1592 7.5 19.1468 7.5C19.1344 7.5 19.122 7.5 19.1097 7.5C19.0974 7.5 19.0851 7.5 19.0729 7.5C19.0606 7.5 19.0484 7.5 19.0363 7.5C19.0241 7.5 19.012 7.5 18.9999 7.5C18.9878 7.5 18.9758 7.5 18.9638 7.5C18.9518 7.5 18.9398 7.5 18.9279 7.5C18.916 7.5 18.9041 7.5 18.8923 7.5C18.8805 7.5 18.8687 7.5 18.857 7.5C18.8452 7.5 18.8335 7.5 18.8218 7.5C18.8102 7.5 18.7986 7.5 18.787 7.5C18.7754 7.5 18.7639 7.5 18.7524 7.5C18.7409 7.5 18.7294 7.5 18.718 7.5C18.7066 7.5 18.6952 7.5 18.6839 7.5C18.6726 7.5 18.6613 7.5 18.6501 7.5C18.6388 7.5 18.6276 7.5 18.6165 7.5C18.6053 7.5 18.5942 7.5 18.5831 7.5C18.5721 7.5 18.5611 7.5 18.5501 7.5C18.5391 7.5 18.5282 7.5 18.5173 7.5C18.5064 7.5 18.4955 7.5 18.4847 7.5C18.4739 7.5 18.4631 7.5 18.4524 7.5C18.4417 7.5 18.431 7.5 18.4204 7.5C18.4098 7.5 18.3992 7.5 18.3886 7.5C18.3781 7.5 18.3676 7.5 18.3571 7.5C18.3467 7.5 18.3362 7.5 18.3259 7.5C18.3155 7.5 18.3052 7.5 18.2949 7.5C18.2846 7.5 18.2744 7.5 18.2642 7.5C18.254 7.5 18.2439 7.5 18.2338 7.5C18.2237 7.5 18.2136 7.5 18.2036 7.5C18.1936 7.5 18.1836 7.5 18.1737 7.5C18.1638 7.5 18.1539 7.5 18.1441 7.5C18.1342 7.5 18.1244 7.5 18.1147 7.5C18.105 7.5 18.0953 7.5 18.0856 7.5C18.076 7.5 18.0664 7.5 18.0568 7.5C18.0472 7.5 18.0377 7.5 18.0283 7.5C18.0188 7.5 18.0094 7.5 18 7.5V12.5ZM45 10V54H50V10H45Z" fill="#1F9FE8"/>
</svg>
