<svg width="74" height="78" viewBox="0 0 74 78" fill="none" xmlns="http://www.w3.org/2000/svg">
<path d="M74 2.5C74 1.11929 72.8807 0 71.5 0C70.1193 0 69 1.11929 69 2.5H74ZM14.5 44.5V42H12V44.5H14.5ZM14.5 78L28.9338 53H0.0662432L14.5 78ZM69 2.5V21.5H74V2.5H69ZM69 21.5C69 24.9551 67.9888 30.1768 65.041 34.457C62.1844 38.605 57.4374 42 49.5 42V47C59.1626 47 65.4156 42.7284 69.159 37.293C72.8112 31.9899 74 25.7116 74 21.5H69ZM49.5 42C49.4656 42 49.4313 42 49.3969 42C49.3626 42 49.3283 42 49.294 42C49.2597 42 49.2254 42 49.1911 42C49.1568 42 49.1226 42 49.0883 42C49.0541 42 49.0199 42 48.9857 42C48.9515 42 48.9173 42 48.8831 42C48.849 42 48.8148 42 48.7807 42C48.7465 42 48.7124 42 48.6783 42C48.6442 42 48.6102 42 48.5761 42C48.542 42 48.508 42 48.474 42C48.4399 42 48.4059 42 48.3719 42C48.338 42 48.304 42 48.27 42C48.2361 42 48.2021 42 48.1682 42C48.1343 42 48.1004 42 48.0665 42C48.0326 42 47.9988 42 47.9649 42C47.9311 42 47.8972 42 47.8634 42C47.8296 42 47.7958 42 47.762 42C47.7282 42 47.6945 42 47.6607 42C47.627 42 47.5933 42 47.5596 42C47.5259 42 47.4922 42 47.4585 42C47.4248 42 47.3912 42 47.3575 42C47.3239 42 47.2903 42 47.2567 42C47.2231 42 47.1895 42 47.1559 42C47.1224 42 47.0888 42 47.0553 42C47.0218 42 46.9883 42 46.9548 42C46.9213 42 46.8878 42 46.8544 42C46.8209 42 46.7875 42 46.7541 42C46.7206 42 46.6872 42 46.6539 42C46.6205 42 46.5871 42 46.5538 42C46.5204 42 46.4871 42 46.4538 42C46.4205 42 46.3872 42 46.3539 42C46.3206 42 46.2874 42 46.2542 42C46.2209 42 46.1877 42 46.1545 42C46.1213 42 46.0881 42 46.055 42C46.0218 42 45.9886 42 45.9555 42C45.9224 42 45.8893 42 45.8562 42C45.8231 42 45.79 42 45.757 42C45.7239 42 45.6909 42 45.6579 42C45.6249 42 45.5919 42 45.5589 42C45.5259 42 45.493 42 45.46 42C45.4271 42 45.3941 42 45.3612 42C45.3283 42 45.2955 42 45.2626 42C45.2297 42 45.1969 42 45.164 42C45.1312 42 45.0984 42 45.0656 42C45.0328 42 45 42 44.9673 42C44.9345 42 44.9018 42 44.8691 42C44.8364 42 44.8037 42 44.771 42C44.7383 42 44.7056 42 44.673 42C44.6403 42 44.6077 42 44.5751 42C44.5425 42 44.5099 42 44.4774 42C44.4448 42 44.4122 42 44.3797 42C44.3472 42 44.3147 42 44.2822 42C44.2497 42 44.2172 42 44.1848 42C44.1523 42 44.1199 42 44.0875 42C44.055 42 44.0226 42 43.9903 42C43.9579 42 43.9255 42 43.8932 42C43.8609 42 43.8285 42 43.7962 42C43.7639 42 43.7316 42 43.6994 42C43.6671 42 43.6349 42 43.6026 42C43.5704 42 43.5382 42 43.506 42C43.4738 42 43.4417 42 43.4095 42C43.3774 42 43.3452 42 43.3131 42C43.281 42 43.2489 42 43.2169 42C43.1848 42 43.1527 42 43.1207 42C43.0887 42 43.0567 42 43.0247 42C42.9927 42 42.9607 42 42.9287 42C42.8968 42 42.8648 42 42.8329 42C42.801 42 42.7691 42 42.7372 42C42.7054 42 42.6735 42 42.6417 42C42.6098 42 42.578 42 42.5462 42C42.5144 42 42.4826 42 42.4509 42C42.4191 42 42.3873 42 42.3556 42C42.3239 42 42.2922 42 42.2605 42C42.2288 42 42.1972 42 42.1655 42C42.1339 42 42.1023 42 42.0707 42C42.039 42 42.0075 42 41.9759 42C41.9443 42 41.9128 42 41.8813 42C41.8497 42 41.8182 42 41.7867 42C41.7553 42 41.7238 42 41.6923 42C41.6609 42 41.6295 42 41.5981 42C41.5666 42 41.5353 42 41.5039 42C41.4725 42 41.4412 42 41.4098 42C41.3785 42 41.3472 42 41.3159 42C41.2846 42 41.2534 42 41.2221 42C41.1909 42 41.1596 42 41.1284 42C41.0972 42 41.066 42 41.0349 42C41.0037 42 40.9725 42 40.9414 42C40.9103 42 40.8792 42 40.8481 42C40.817 42 40.7859 42 40.7549 42C40.7238 42 40.6928 42 40.6618 42C40.6308 42 40.5998 42 40.5688 42C40.5379 42 40.5069 42 40.476 42C40.445 42 40.4141 42 40.3833 42C40.3524 42 40.3215 42 40.2907 42C40.2598 42 40.229 42 40.1982 42C40.1674 42 40.1366 42 40.1058 42C40.075 42 40.0443 42 40.0136 42C39.9828 42 39.9521 42 39.9215 42C39.8908 42 39.8601 42 39.8295 42C39.7988 42 39.7682 42 39.7376 42C39.707 42 39.6764 42 39.6458 42C39.6153 42 39.5847 42 39.5542 42C39.5237 42 39.4932 42 39.4627 42C39.4322 42 39.4018 42 39.3713 42C39.3409 42 39.3105 42 39.2801 42C39.2497 42 39.2193 42 39.1889 42C39.1586 42 39.1282 42 39.0979 42C39.0676 42 39.0373 42 39.007 42C38.9768 42 38.9465 42 38.9163 42C38.8861 42 38.8558 42 38.8256 42C38.7955 42 38.7653 42 38.7351 42C38.705 42 38.6749 42 38.6447 42C38.6146 42 38.5845 42 38.5545 42C38.5244 42 38.4944 42 38.4643 42C38.4343 42 38.4043 42 38.3743 42C38.3443 42 38.3144 42 38.2844 42C38.2545 42 38.2246 42 38.1947 42C38.1648 42 38.1349 42 38.105 42C38.0752 42 38.0453 42 38.0155 42C37.9857 42 37.9559 42 37.9261 42C37.8964 42 37.8666 42 37.8369 42C37.8072 42 37.7774 42 37.7478 42C37.7181 42 37.6884 42 37.6587 42C37.6291 42 37.5995 42 37.5699 42C37.5403 42 37.5107 42 37.4811 42C37.4516 42 37.422 42 37.3925 42C37.363 42 37.3335 42 37.304 42C37.2745 42 37.2451 42 37.2156 42C37.1862 42 37.1568 42 37.1274 42C37.098 42 37.0686 42 37.0393 42C37.0099 42 36.9806 42 36.9513 42C36.922 42 36.8927 42 36.8634 42C36.8342 42 36.8049 42 36.7757 42C36.7465 42 36.7173 42 36.6881 42C36.6589 42 36.6298 42 36.6006 42C36.5715 42 36.5424 42 36.5133 42C36.4842 42 36.4551 42 36.4261 42C36.397 42 36.368 42 36.339 42C36.31 42 36.281 42 36.252 42C36.2231 42 36.1941 42 36.1652 42C36.1363 42 36.1074 42 36.0785 42C36.0496 42 36.0208 42 35.992 42C35.9631 42 35.9343 42 35.9055 42C35.8767 42 35.848 42 35.8192 42C35.7905 42 35.7618 42 35.733 42C35.7043 42 35.6757 42 35.647 42C35.6183 42 35.5897 42 35.5611 42C35.5325 42 35.5039 42 35.4753 42C35.4467 42 35.4182 42 35.3897 42C35.3611 42 35.3326 42 35.3042 42C35.2757 42 35.2472 42 35.2188 42C35.1903 42 35.1619 42 35.1335 42C35.1051 42 35.0768 42 35.0484 42C35.0201 42 34.9917 42 34.9634 42C34.9351 42 34.9068 42 34.8786 42C34.8503 42 34.8221 42 34.7938 42C34.7656 42 34.7374 42 34.7093 42C34.6811 42 34.6529 42 34.6248 42C34.5967 42 34.5686 42 34.5405 42C34.5124 42 34.4843 42 34.4563 42C34.4283 42 34.4002 42 34.3722 42C34.3442 42 34.3163 42 34.2883 42C34.2604 42 34.2324 42 34.2045 42C34.1766 42 34.1488 42 34.1209 42C34.093 42 34.0652 42 34.0374 42C34.0096 42 33.9818 42 33.954 42C33.9262 42 33.8985 42 33.8707 42C33.843 42 33.8153 42 33.7876 42C33.76 42 33.7323 42 33.7047 42C33.677 42 33.6494 42 33.6218 42C33.5942 42 33.5667 42 33.5391 42C33.5116 42 33.484 42 33.4565 42C33.429 42 33.4016 42 33.3741 42C33.3467 42 33.3192 42 33.2918 42C33.2644 42 33.237 42 33.2097 42C33.1823 42 33.1549 42 33.1276 42C33.1003 42 33.073 42 33.0457 42C33.0185 42 32.9912 42 32.964 42C32.9368 42 32.9096 42 32.8824 42C32.8552 42 32.828 42 32.8009 42C32.7738 42 32.7467 42 32.7196 42C32.6925 42 32.6654 42 32.6384 42C32.6113 42 32.5843 42 32.5573 42C32.5303 42 32.5033 42 32.4764 42C32.4494 42 32.4225 42 32.3956 42C32.3687 42 32.3418 42 32.3149 42C32.2881 42 32.2613 42 32.2344 42C32.2076 42 32.1808 42 32.1541 42C32.1273 42 32.1006 42 32.0738 42C32.0471 42 32.0204 42 31.9937 42C31.9671 42 31.9404 42 31.9138 42C31.8872 42 31.8606 42 31.834 42C31.8074 42 31.7808 42 31.7543 42C31.7278 42 31.7013 42 31.6748 42C31.6483 42 31.6218 42 31.5954 42C31.5689 42 31.5425 42 31.5161 42C31.4897 42 31.4634 42 31.437 42C31.4107 42 31.3844 42 31.3581 42C31.3318 42 31.3055 42 31.2792 42C31.253 42 31.2267 42 31.2005 42C31.1743 42 31.1481 42 31.122 42C31.0958 42 31.0697 42 31.0436 42C31.0175 42 30.9914 42 30.9653 42C30.9393 42 30.9132 42 30.8872 42C30.8612 42 30.8352 42 30.8092 42C30.7832 42 30.7573 42 30.7314 42C30.7055 42 30.6796 42 30.6537 42C30.6278 42 30.602 42 30.5761 42C30.5503 42 30.5245 42 30.4987 42C30.4729 42 30.4472 42 30.4215 42C30.3957 42 30.37 42 30.3443 42C30.3186 42 30.293 42 30.2673 42C30.2417 42 30.2161 42 30.1905 42C30.1649 42 30.1394 42 30.1138 42C30.0883 42 30.0628 42 30.0373 42C30.0118 42 29.9863 42 29.9609 42C29.9354 42 29.91 42 29.8846 42C29.8592 42 29.8338 42 29.8085 42C29.7831 42 29.7578 42 29.7325 42C29.7072 42 29.6819 42 29.6567 42C29.6314 42 29.6062 42 29.581 42C29.5558 42 29.5306 42 29.5055 42C29.4803 42 29.4552 42 29.4301 42C29.405 42 29.3799 42 29.3548 42C29.3298 42 29.3047 42 29.2797 42C29.2547 42 29.2297 42 29.2048 42C29.1798 42 29.1549 42 29.13 42C29.1051 42 29.0802 42 29.0553 42C29.0304 42 29.0056 42 28.9808 42C28.956 42 28.9312 42 28.9064 42C28.8817 42 28.8569 42 28.8322 42C28.8075 42 28.7828 42 28.7581 42C28.7335 42 28.7088 42 28.6842 42C28.6596 42 28.635 42 28.6104 42C28.5859 42 28.5613 42 28.5368 42C28.5123 42 28.4878 42 28.4633 42C28.4388 42 28.4144 42 28.39 42C28.3656 42 28.3412 42 28.3168 42C28.2924 42 28.2681 42 28.2438 42C28.2194 42 28.1951 42 28.1709 42C28.1466 42 28.1223 42 28.0981 42C28.0739 42 28.0497 42 28.0255 42C28.0014 42 27.9772 42 27.9531 42C27.929 42 27.9049 42 27.8808 42C27.8567 42 27.8327 42 27.8087 42C27.7846 42 27.7606 42 27.7367 42C27.7127 42 27.6887 42 27.6648 42C27.6409 42 27.617 42 27.5931 42C27.5693 42 27.5454 42 27.5216 42C27.4978 42 27.474 42 27.4502 42C27.4264 42 27.4027 42 27.3789 42C27.3552 42 27.3315 42 27.3079 42C27.2842 42 27.2605 42 27.2369 42C27.2133 42 27.1897 42 27.1661 42C27.1426 42 27.119 42 27.0955 42C27.072 42 27.0485 42 27.025 42C27.0015 42 26.9781 42 26.9547 42C26.9312 42 26.9079 42 26.8845 42C26.8611 42 26.8378 42 26.8145 42C26.7911 42 26.7678 42 26.7446 42C26.7213 42 26.6981 42 26.6749 42C26.6516 42 26.6284 42 26.6053 42C26.5821 42 26.559 42 26.5359 42C26.5127 42 26.4897 42 26.4666 42C26.4435 42 26.4205 42 26.3975 42C26.3745 42 26.3515 42 26.3285 42C26.3056 42 26.2826 42 26.2597 42C26.2368 42 26.2139 42 26.1911 42C26.1682 42 26.1454 42 26.1226 42C26.0998 42 26.077 42 26.0542 42C26.0315 42 26.0087 42 25.986 42C25.9633 42 25.9407 42 25.918 42C25.8953 42 25.8727 42 25.8501 42C25.8275 42 25.8049 42 25.7824 42C25.7598 42 25.7373 42 25.7148 42C25.6923 42 25.6699 42 25.6474 42C25.625 42 25.6025 42 25.5802 42C25.5578 42 25.5354 42 25.5131 42C25.4907 42 25.4684 42 25.4461 42C25.4238 42 25.4016 42 25.3793 42C25.3571 42 25.3349 42 25.3127 42C25.2905 42 25.2683 42 25.2462 42C25.2241 42 25.202 42 25.1799 42C25.1578 42 25.1357 42 25.1137 42C25.0917 42 25.0697 42 25.0477 42C25.0257 42 25.0038 42 24.9819 42C24.9599 42 24.938 42 24.9162 42C24.8943 42 24.8725 42 24.8506 42C24.8288 42 24.807 42 24.7853 42C24.7635 42 24.7418 42 24.72 42C24.6983 42 24.6766 42 24.655 42C24.6333 42 24.6117 42 24.5901 42C24.5685 42 24.5469 42 24.5253 42C24.5038 42 24.4823 42 24.4607 42C24.4392 42 24.4178 42 24.3963 42C24.3749 42 24.3535 42 24.3321 42C24.3107 42 24.2893 42 24.2679 42C24.2466 42 24.2253 42 24.204 42C24.1827 42 24.1614 42 24.1402 42C24.119 42 24.0978 42 24.0766 42C24.0554 42 24.0342 42 24.0131 42C23.992 42 23.9709 42 23.9498 42C23.9287 42 23.9077 42 23.8867 42C23.8656 42 23.8446 42 23.8237 42C23.8027 42 23.7818 42 23.7608 42C23.7399 42 23.719 42 23.6982 42C23.6773 42 23.6565 42 23.6357 42C23.6149 42 23.5941 42 23.5733 42C23.5526 42 23.5319 42 23.5112 42C23.4905 42 23.4698 42 23.4491 42C23.4285 42 23.4079 42 23.3873 42C23.3667 42 23.3461 42 23.3256 42C23.305 42 23.2845 42 23.2641 42C23.2436 42 23.2231 42 23.2027 42C23.1823 42 23.1619 42 23.1415 42C23.1211 42 23.1008 42 23.0804 42C23.0601 42 23.0398 42 23.0196 42C22.9993 42 22.979 42 22.9588 42C22.9386 42 22.9184 42 22.8983 42C22.8781 42 22.858 42 22.8379 42C22.8178 42 22.7977 42 22.7777 42C22.7576 42 22.7376 42 22.7176 42C22.6976 42 22.6776 42 22.6577 42C22.6378 42 22.6179 42 22.598 42C22.5781 42 22.5582 42 22.5384 42C22.5186 42 22.4988 42 22.479 42C22.4592 42 22.4395 42 22.4198 42C22.4 42 22.3803 42 22.3607 42C22.341 42 22.3214 42 22.3018 42C22.2822 42 22.2626 42 22.243 42C22.2235 42 22.2039 42 22.1844 42C22.1649 42 22.1455 42 22.126 42C22.1066 42 22.0872 42 22.0678 42C22.0484 42 22.029 42 22.0097 42C21.9904 42 21.9711 42 21.9518 42C21.9325 42 21.9133 42 21.894 42C21.8748 42 21.8556 42 21.8365 42C21.8173 42 21.7982 42 21.7791 42C21.7599 42 21.7409 42 21.7218 42C21.7028 42 21.6837 42 21.6647 42C21.6457 42 21.6268 42 21.6078 42C21.5889 42 21.57 42 21.5511 42C21.5322 42 21.5133 42 21.4945 42C21.4757 42 21.4569 42 21.4381 42C21.4193 42 21.4006 42 21.3819 42C21.3631 42 21.3445 42 21.3258 42C21.3071 42 21.2885 42 21.2699 42C21.2513 42 21.2327 42 21.2142 42C21.1956 42 21.1771 42 21.1586 42C21.1401 42 21.1216 42 21.1032 42C21.0848 42 21.0664 42 21.048 42C21.0296 42 21.0112 42 20.9929 42C20.9746 42 20.9563 42 20.938 42C20.9198 42 20.9015 42 20.8833 42C20.8651 42 20.8469 42 20.8288 42C20.8106 42 20.7925 42 20.7744 42C20.7563 42 20.7382 42 20.7202 42C20.7022 42 20.6841 42 20.6662 42C20.6482 42 20.6302 42 20.6123 42C20.5944 42 20.5765 42 20.5586 42C20.5407 42 20.5229 42 20.5051 42C20.4873 42 20.4695 42 20.4517 42C20.434 42 20.4163 42 20.3986 42C20.3809 42 20.3632 42 20.3456 42C20.3279 42 20.3103 42 20.2927 42C20.2752 42 20.2576 42 20.2401 42C20.2225 42 20.2051 42 20.1876 42C20.1701 42 20.1527 42 20.1353 42C20.1179 42 20.1005 42 20.0831 42C20.0658 42 20.0485 42 20.0312 42C20.0139 42 19.9966 42 19.9794 42C19.9621 42 19.9449 42 19.9277 42C19.9106 42 19.8934 42 19.8763 42C19.8592 42 19.8421 42 19.825 42C19.808 42 19.7909 42 19.7739 42C19.7569 42 19.7399 42 19.723 42C19.706 42 19.6891 42 19.6722 42C19.6554 42 19.6385 42 19.6217 42C19.6048 42 19.588 42 19.5713 42C19.5545 42 19.5377 42 19.521 42C19.5043 42 19.4876 42 19.471 42C19.4543 42 19.4377 42 19.4211 42C19.4045 42 19.3879 42 19.3714 42C19.3549 42 19.3384 42 19.3219 42C19.3054 42 19.2889 42 19.2725 42C19.2561 42 19.2397 42 19.2234 42C19.207 42 19.1907 42 19.1744 42C19.158 42 19.1418 42 19.1255 42C19.1093 42 19.0931 42 19.0769 42C19.0607 42 19.0445 42 19.0284 42C19.0123 42 18.9962 42 18.9801 42C18.9641 42 18.948 42 18.932 42C18.916 42 18.9 42 18.8841 42C18.8681 42 18.8522 42 18.8363 42C18.8204 42 18.8046 42 18.7887 42C18.7729 42 18.7571 42 18.7413 42C18.7256 42 18.7098 42 18.6941 42C18.6784 42 18.6627 42 18.6471 42C18.6314 42 18.6158 42 18.6002 42C18.5846 42 18.569 42 18.5535 42C18.538 42 18.5225 42 18.507 42C18.4915 42 18.4761 42 18.4607 42C18.4452 42 18.4299 42 18.4145 42C18.3991 42 18.3838 42 18.3685 42C18.3532 42 18.338 42 18.3227 42C18.3075 42 18.2923 42 18.2771 42C18.2619 42 18.2468 42 18.2317 42C18.2166 42 18.2015 42 18.1864 42C18.1714 42 18.1564 42 18.1414 42C18.1264 42 18.1114 42 18.0965 42C18.0815 42 18.0666 42 18.0518 42C18.0369 42 18.022 42 18.0072 42C17.9924 42 17.9776 42 17.9629 42C17.9481 42 17.9334 42 17.9187 42C17.904 42 17.8893 42 17.8747 42C17.8601 42 17.8455 42 17.8309 42C17.8163 42 17.8018 42 17.7873 42C17.7728 42 17.7583 42 17.7438 42C17.7294 42 17.715 42 17.7006 42C17.6862 42 17.6718 42 17.6575 42C17.6432 42 17.6289 42 17.6146 42C17.6003 42 17.5861 42 17.5719 42C17.5577 42 17.5435 42 17.5294 42C17.5152 42 17.5011 42 17.487 42C17.4729 42 17.4589 42 17.4449 42C17.4308 42 17.4168 42 17.4029 42C17.3889 42 17.375 42 17.3611 42C17.3472 42 17.3333 42 17.3195 42C17.3056 42 17.2918 42 17.2781 42C17.2643 42 17.2505 42 17.2368 42C17.2231 42 17.2094 42 17.1958 42C17.1821 42 17.1685 42 17.1549 42C17.1413 42 17.1277 42 17.1142 42C17.1007 42 17.0872 42 17.0737 42C17.0602 42 17.0468 42 17.0334 42C17.02 42 17.0066 42 16.9932 42C16.9799 42 16.9666 42 16.9533 42C16.94 42 16.9267 42 16.9135 42C16.9003 42 16.8871 42 16.8739 42C16.8608 42 16.8477 42 16.8346 42C16.8215 42 16.8084 42 16.7954 42C16.7823 42 16.7693 42 16.7563 42C16.7434 42 16.7304 42 16.7175 42C16.7046 42 16.6917 42 16.6789 42C16.666 42 16.6532 42 16.6404 42C16.6276 42 16.6149 42 16.6021 42C16.5894 42 16.5767 42 16.5641 42C16.5514 42 16.5388 42 16.5262 42C16.5136 42 16.501 42 16.4885 42C16.4759 42 16.4634 42 16.4509 42C16.4385 42 16.426 42 16.4136 42C16.4012 42 16.3888 42 16.3765 42C16.3641 42 16.3518 42 16.3395 42C16.3272 42 16.315 42 16.3028 42C16.2905 42 16.2784 42 16.2662 42C16.254 42 16.2419 42 16.2298 42C16.2177 42 16.2056 42 16.1936 42C16.1816 42 16.1696 42 16.1576 42C16.1456 42 16.1337 42 16.1218 42C16.1099 42 16.098 42 16.0862 42C16.0743 42 16.0625 42 16.0507 42C16.0389 42 16.0272 42 16.0155 42C16.0038 42 15.9921 42 15.9804 42C15.9688 42 15.9572 42 15.9456 42C15.934 42 15.9224 42 15.9109 42C15.8994 42 15.8879 42 15.8764 42C15.8649 42 15.8535 42 15.8421 42C15.8307 42 15.8194 42 15.808 42C15.7967 42 15.7854 42 15.7741 42C15.7628 42 15.7516 42 15.7404 42C15.7292 42 15.718 42 15.7069 42C15.6957 42 15.6846 42 15.6735 42C15.6625 42 15.6514 42 15.6404 42C15.6294 42 15.6184 42 15.6074 42C15.5965 42 15.5856 42 15.5747 42C15.5638 42 15.553 42 15.5421 42C15.5313 42 15.5205 42 15.5098 42C15.499 42 15.4883 42 15.4776 42C15.4669 42 15.4562 42 15.4456 42C15.435 42 15.4244 42 15.4138 42C15.4033 42 15.3927 42 15.3822 42C15.3717 42 15.3613 42 15.3508 42C15.3404 42 15.33 42 15.3196 42C15.3092 42 15.2989 42 15.2886 42C15.2783 42 15.268 42 15.2578 42C15.2476 42 15.2373 42 15.2272 42C15.217 42 15.2069 42 15.1967 42C15.1866 42 15.1766 42 15.1665 42C15.1565 42 15.1465 42 15.1365 42C15.1265 42 15.1165 42 15.1066 42C15.0967 42 15.0868 42 15.077 42C15.0671 42 15.0573 42 15.0475 42C15.0378 42 15.028 42 15.0183 42C15.0086 42 14.9989 42 14.9892 42C14.9796 42 14.97 42 14.9604 42C14.9508 42 14.9412 42 14.9317 42C14.9222 42 14.9127 42 14.9032 42C14.8938 42 14.8844 42 14.875 42C14.8656 42 14.8562 42 14.8469 42C14.8376 42 14.8283 42 14.819 42C14.8098 42 14.8005 42 14.7913 42C14.7822 42 14.773 42 14.7639 42C14.7547 42 14.7456 42 14.7366 42C14.7275 42 14.7185 42 14.7095 42C14.7005 42 14.6915 42 14.6826 42C14.6737 42 14.6648 42 14.6559 42C14.6471 42 14.6382 42 14.6294 42C14.6207 42 14.6119 42 14.6032 42C14.5944 42 14.5857 42 14.5771 42C14.5684 42 14.5598 42 14.5512 42C14.5426 42 14.534 42 14.5255 42C14.517 42 14.5085 42 14.5 42V47C14.5085 47 14.517 47 14.5255 47C14.534 47 14.5426 47 14.5512 47C14.5598 47 14.5684 47 14.5771 47C14.5857 47 14.5944 47 14.6032 47C14.6119 47 14.6207 47 14.6294 47C14.6382 47 14.6471 47 14.6559 47C14.6648 47 14.6737 47 14.6826 47C14.6915 47 14.7005 47 14.7095 47C14.7185 47 14.7275 47 14.7366 47C14.7456 47 14.7547 47 14.7639 47C14.773 47 14.7822 47 14.7913 47C14.8005 47 14.8098 47 14.819 47C14.8283 47 14.8376 47 14.8469 47C14.8562 47 14.8656 47 14.875 47C14.8844 47 14.8938 47 14.9032 47C14.9127 47 14.9222 47 14.9317 47C14.9412 47 14.9508 47 14.9604 47C14.97 47 14.9796 47 14.9892 47C14.9989 47 15.0086 47 15.0183 47C15.028 47 15.0378 47 15.0475 47C15.0573 47 15.0671 47 15.077 47C15.0868 47 15.0967 47 15.1066 47C15.1165 47 15.1265 47 15.1365 47C15.1465 47 15.1565 47 15.1665 47C15.1766 47 15.1866 47 15.1967 47C15.2069 47 15.217 47 15.2272 47C15.2373 47 15.2476 47 15.2578 47C15.268 47 15.2783 47 15.2886 47C15.2989 47 15.3092 47 15.3196 47C15.33 47 15.3404 47 15.3508 47C15.3613 47 15.3717 47 15.3822 47C15.3927 47 15.4033 47 15.4138 47C15.4244 47 15.435 47 15.4456 47C15.4562 47 15.4669 47 15.4776 47C15.4883 47 15.499 47 15.5098 47C15.5205 47 15.5313 47 15.5421 47C15.553 47 15.5638 47 15.5747 47C15.5856 47 15.5965 47 15.6074 47C15.6184 47 15.6294 47 15.6404 47C15.6514 47 15.6625 47 15.6735 47C15.6846 47 15.6957 47 15.7069 47C15.718 47 15.7292 47 15.7404 47C15.7516 47 15.7628 47 15.7741 47C15.7854 47 15.7967 47 15.808 47C15.8194 47 15.8307 47 15.8421 47C15.8535 47 15.8649 47 15.8764 47C15.8879 47 15.8994 47 15.9109 47C15.9224 47 15.934 47 15.9456 47C15.9572 47 15.9688 47 15.9804 47C15.9921 47 16.0038 47 16.0155 47C16.0272 47 16.0389 47 16.0507 47C16.0625 47 16.0743 47 16.0862 47C16.098 47 16.1099 47 16.1218 47C16.1337 47 16.1456 47 16.1576 47C16.1696 47 16.1816 47 16.1936 47C16.2056 47 16.2177 47 16.2298 47C16.2419 47 16.254 47 16.2662 47C16.2784 47 16.2905 47 16.3028 47C16.315 47 16.3272 47 16.3395 47C16.3518 47 16.3641 47 16.3765 47C16.3888 47 16.4012 47 16.4136 47C16.426 47 16.4385 47 16.4509 47C16.4634 47 16.4759 47 16.4885 47C16.501 47 16.5136 47 16.5262 47C16.5388 47 16.5514 47 16.5641 47C16.5767 47 16.5894 47 16.6021 47C16.6149 47 16.6276 47 16.6404 47C16.6532 47 16.666 47 16.6789 47C16.6917 47 16.7046 47 16.7175 47C16.7304 47 16.7434 47 16.7563 47C16.7693 47 16.7823 47 16.7954 47C16.8084 47 16.8215 47 16.8346 47C16.8477 47 16.8608 47 16.8739 47C16.8871 47 16.9003 47 16.9135 47C16.9267 47 16.94 47 16.9533 47C16.9666 47 16.9799 47 16.9932 47C17.0066 47 17.02 47 17.0334 47C17.0468 47 17.0602 47 17.0737 47C17.0872 47 17.1007 47 17.1142 47C17.1277 47 17.1413 47 17.1549 47C17.1685 47 17.1821 47 17.1958 47C17.2094 47 17.2231 47 17.2368 47C17.2505 47 17.2643 47 17.2781 47C17.2918 47 17.3056 47 17.3195 47C17.3333 47 17.3472 47 17.3611 47C17.375 47 17.3889 47 17.4029 47C17.4168 47 17.4308 47 17.4449 47C17.4589 47 17.4729 47 17.487 47C17.5011 47 17.5152 47 17.5294 47C17.5435 47 17.5577 47 17.5719 47C17.5861 47 17.6003 47 17.6146 47C17.6289 47 17.6432 47 17.6575 47C17.6718 47 17.6862 47 17.7006 47C17.715 47 17.7294 47 17.7438 47C17.7583 47 17.7728 47 17.7873 47C17.8018 47 17.8163 47 17.8309 47C17.8455 47 17.8601 47 17.8747 47C17.8893 47 17.904 47 17.9187 47C17.9334 47 17.9481 47 17.9629 47C17.9776 47 17.9924 47 18.0072 47C18.022 47 18.0369 47 18.0518 47C18.0666 47 18.0815 47 18.0965 47C18.1114 47 18.1264 47 18.1414 47C18.1564 47 18.1714 47 18.1864 47C18.2015 47 18.2166 47 18.2317 47C18.2468 47 18.2619 47 18.2771 47C18.2923 47 18.3075 47 18.3227 47C18.338 47 18.3532 47 18.3685 47C18.3838 47 18.3991 47 18.4145 47C18.4299 47 18.4452 47 18.4607 47C18.4761 47 18.4915 47 18.507 47C18.5225 47 18.538 47 18.5535 47C18.569 47 18.5846 47 18.6002 47C18.6158 47 18.6314 47 18.6471 47C18.6627 47 18.6784 47 18.6941 47C18.7098 47 18.7256 47 18.7413 47C18.7571 47 18.7729 47 18.7887 47C18.8046 47 18.8204 47 18.8363 47C18.8522 47 18.8681 47 18.8841 47C18.9 47 18.916 47 18.932 47C18.948 47 18.9641 47 18.9801 47C18.9962 47 19.0123 47 19.0284 47C19.0445 47 19.0607 47 19.0769 47C19.0931 47 19.1093 47 19.1255 47C19.1418 47 19.158 47 19.1744 47C19.1907 47 19.207 47 19.2234 47C19.2397 47 19.2561 47 19.2725 47C19.2889 47 19.3054 47 19.3219 47C19.3384 47 19.3549 47 19.3714 47C19.3879 47 19.4045 47 19.4211 47C19.4377 47 19.4543 47 19.471 47C19.4876 47 19.5043 47 19.521 47C19.5377 47 19.5545 47 19.5713 47C19.588 47 19.6048 47 19.6217 47C19.6385 47 19.6554 47 19.6722 47C19.6891 47 19.706 47 19.723 47C19.7399 47 19.7569 47 19.7739 47C19.7909 47 19.808 47 19.825 47C19.8421 47 19.8592 47 19.8763 47C19.8934 47 19.9106 47 19.9277 47C19.9449 47 19.9621 47 19.9794 47C19.9966 47 20.0139 47 20.0312 47C20.0485 47 20.0658 47 20.0831 47C20.1005 47 20.1179 47 20.1353 47C20.1527 47 20.1701 47 20.1876 47C20.2051 47 20.2225 47 20.2401 47C20.2576 47 20.2752 47 20.2927 47C20.3103 47 20.3279 47 20.3456 47C20.3632 47 20.3809 47 20.3986 47C20.4163 47 20.434 47 20.4517 47C20.4695 47 20.4873 47 20.5051 47C20.5229 47 20.5407 47 20.5586 47C20.5765 47 20.5944 47 20.6123 47C20.6302 47 20.6482 47 20.6662 47C20.6841 47 20.7022 47 20.7202 47C20.7382 47 20.7563 47 20.7744 47C20.7925 47 20.8106 47 20.8288 47C20.8469 47 20.8651 47 20.8833 47C20.9015 47 20.9198 47 20.938 47C20.9563 47 20.9746 47 20.9929 47C21.0112 47 21.0296 47 21.048 47C21.0664 47 21.0848 47 21.1032 47C21.1216 47 21.1401 47 21.1586 47C21.1771 47 21.1956 47 21.2142 47C21.2327 47 21.2513 47 21.2699 47C21.2885 47 21.3071 47 21.3258 47C21.3445 47 21.3631 47 21.3819 47C21.4006 47 21.4193 47 21.4381 47C21.4569 47 21.4757 47 21.4945 47C21.5133 47 21.5322 47 21.5511 47C21.57 47 21.5889 47 21.6078 47C21.6268 47 21.6457 47 21.6647 47C21.6837 47 21.7028 47 21.7218 47C21.7409 47 21.7599 47 21.7791 47C21.7982 47 21.8173 47 21.8365 47C21.8556 47 21.8748 47 21.894 47C21.9133 47 21.9325 47 21.9518 47C21.9711 47 21.9904 47 22.0097 47C22.029 47 22.0484 47 22.0678 47C22.0872 47 22.1066 47 22.126 47C22.1455 47 22.1649 47 22.1844 47C22.2039 47 22.2235 47 22.243 47C22.2626 47 22.2822 47 22.3018 47C22.3214 47 22.341 47 22.3607 47C22.3803 47 22.4 47 22.4198 47C22.4395 47 22.4592 47 22.479 47C22.4988 47 22.5186 47 22.5384 47C22.5582 47 22.5781 47 22.598 47C22.6179 47 22.6378 47 22.6577 47C22.6776 47 22.6976 47 22.7176 47C22.7376 47 22.7576 47 22.7777 47C22.7977 47 22.8178 47 22.8379 47C22.858 47 22.8781 47 22.8983 47C22.9184 47 22.9386 47 22.9588 47C22.979 47 22.9993 47 23.0196 47C23.0398 47 23.0601 47 23.0804 47C23.1008 47 23.1211 47 23.1415 47C23.1619 47 23.1823 47 23.2027 47C23.2231 47 23.2436 47 23.2641 47C23.2845 47 23.305 47 23.3256 47C23.3461 47 23.3667 47 23.3873 47C23.4079 47 23.4285 47 23.4491 47C23.4698 47 23.4905 47 23.5112 47C23.5319 47 23.5526 47 23.5733 47C23.5941 47 23.6149 47 23.6357 47C23.6565 47 23.6773 47 23.6982 47C23.719 47 23.7399 47 23.7608 47C23.7818 47 23.8027 47 23.8237 47C23.8446 47 23.8656 47 23.8867 47C23.9077 47 23.9287 47 23.9498 47C23.9709 47 23.992 47 24.0131 47C24.0342 47 24.0554 47 24.0766 47C24.0978 47 24.119 47 24.1402 47C24.1614 47 24.1827 47 24.204 47C24.2253 47 24.2466 47 24.2679 47C24.2893 47 24.3107 47 24.3321 47C24.3535 47 24.3749 47 24.3963 47C24.4178 47 24.4392 47 24.4607 47C24.4823 47 24.5038 47 24.5253 47C24.5469 47 24.5685 47 24.5901 47C24.6117 47 24.6333 47 24.655 47C24.6766 47 24.6983 47 24.72 47C24.7418 47 24.7635 47 24.7853 47C24.807 47 24.8288 47 24.8506 47C24.8725 47 24.8943 47 24.9162 47C24.938 47 24.9599 47 24.9819 47C25.0038 47 25.0257 47 25.0477 47C25.0697 47 25.0917 47 25.1137 47C25.1357 47 25.1578 47 25.1799 47C25.202 47 25.2241 47 25.2462 47C25.2683 47 25.2905 47 25.3127 47C25.3349 47 25.3571 47 25.3793 47C25.4016 47 25.4238 47 25.4461 47C25.4684 47 25.4907 47 25.5131 47C25.5354 47 25.5578 47 25.5802 47C25.6025 47 25.625 47 25.6474 47C25.6699 47 25.6923 47 25.7148 47C25.7373 47 25.7598 47 25.7824 47C25.8049 47 25.8275 47 25.8501 47C25.8727 47 25.8953 47 25.918 47C25.9407 47 25.9633 47 25.986 47C26.0087 47 26.0315 47 26.0542 47C26.077 47 26.0998 47 26.1226 47C26.1454 47 26.1682 47 26.1911 47C26.2139 47 26.2368 47 26.2597 47C26.2826 47 26.3056 47 26.3285 47C26.3515 47 26.3745 47 26.3975 47C26.4205 47 26.4435 47 26.4666 47C26.4897 47 26.5127 47 26.5359 47C26.559 47 26.5821 47 26.6053 47C26.6284 47 26.6516 47 26.6749 47C26.6981 47 26.7213 47 26.7446 47C26.7678 47 26.7911 47 26.8145 47C26.8378 47 26.8611 47 26.8845 47C26.9079 47 26.9312 47 26.9547 47C26.9781 47 27.0015 47 27.025 47C27.0485 47 27.072 47 27.0955 47C27.119 47 27.1426 47 27.1661 47C27.1897 47 27.2133 47 27.2369 47C27.2605 47 27.2842 47 27.3079 47C27.3315 47 27.3552 47 27.3789 47C27.4027 47 27.4264 47 27.4502 47C27.474 47 27.4978 47 27.5216 47C27.5454 47 27.5693 47 27.5931 47C27.617 47 27.6409 47 27.6648 47C27.6887 47 27.7127 47 27.7367 47C27.7606 47 27.7846 47 27.8087 47C27.8327 47 27.8567 47 27.8808 47C27.9049 47 27.929 47 27.9531 47C27.9772 47 28.0014 47 28.0255 47C28.0497 47 28.0739 47 28.0981 47C28.1223 47 28.1466 47 28.1709 47C28.1951 47 28.2194 47 28.2438 47C28.2681 47 28.2924 47 28.3168 47C28.3412 47 28.3656 47 28.39 47C28.4144 47 28.4388 47 28.4633 47C28.4878 47 28.5123 47 28.5368 47C28.5613 47 28.5859 47 28.6104 47C28.635 47 28.6596 47 28.6842 47C28.7088 47 28.7335 47 28.7581 47C28.7828 47 28.8075 47 28.8322 47C28.8569 47 28.8817 47 28.9064 47C28.9312 47 28.956 47 28.9808 47C29.0056 47 29.0304 47 29.0553 47C29.0802 47 29.1051 47 29.13 47C29.1549 47 29.1798 47 29.2048 47C29.2297 47 29.2547 47 29.2797 47C29.3047 47 29.3298 47 29.3548 47C29.3799 47 29.405 47 29.4301 47C29.4552 47 29.4803 47 29.5055 47C29.5306 47 29.5558 47 29.581 47C29.6062 47 29.6314 47 29.6567 47C29.6819 47 29.7072 47 29.7325 47C29.7578 47 29.7831 47 29.8085 47C29.8338 47 29.8592 47 29.8846 47C29.91 47 29.9354 47 29.9609 47C29.9863 47 30.0118 47 30.0373 47C30.0628 47 30.0883 47 30.1138 47C30.1394 47 30.1649 47 30.1905 47C30.2161 47 30.2417 47 30.2673 47C30.293 47 30.3186 47 30.3443 47C30.37 47 30.3957 47 30.4215 47C30.4472 47 30.4729 47 30.4987 47C30.5245 47 30.5503 47 30.5761 47C30.602 47 30.6278 47 30.6537 47C30.6796 47 30.7055 47 30.7314 47C30.7573 47 30.7832 47 30.8092 47C30.8352 47 30.8612 47 30.8872 47C30.9132 47 30.9393 47 30.9653 47C30.9914 47 31.0175 47 31.0436 47C31.0697 47 31.0958 47 31.122 47C31.1481 47 31.1743 47 31.2005 47C31.2267 47 31.253 47 31.2792 47C31.3055 47 31.3318 47 31.3581 47C31.3844 47 31.4107 47 31.437 47C31.4634 47 31.4897 47 31.5161 47C31.5425 47 31.5689 47 31.5954 47C31.6218 47 31.6483 47 31.6748 47C31.7013 47 31.7278 47 31.7543 47C31.7808 47 31.8074 47 31.834 47C31.8606 47 31.8872 47 31.9138 47C31.9404 47 31.9671 47 31.9937 47C32.0204 47 32.0471 47 32.0738 47C32.1006 47 32.1273 47 32.1541 47C32.1808 47 32.2076 47 32.2344 47C32.2613 47 32.2881 47 32.3149 47C32.3418 47 32.3687 47 32.3956 47C32.4225 47 32.4494 47 32.4764 47C32.5033 47 32.5303 47 32.5573 47C32.5843 47 32.6113 47 32.6384 47C32.6654 47 32.6925 47 32.7196 47C32.7467 47 32.7738 47 32.8009 47C32.828 47 32.8552 47 32.8824 47C32.9096 47 32.9368 47 32.964 47C32.9912 47 33.0185 47 33.0457 47C33.073 47 33.1003 47 33.1276 47C33.1549 47 33.1823 47 33.2097 47C33.237 47 33.2644 47 33.2918 47C33.3192 47 33.3467 47 33.3741 47C33.4016 47 33.429 47 33.4565 47C33.484 47 33.5116 47 33.5391 47C33.5667 47 33.5942 47 33.6218 47C33.6494 47 33.677 47 33.7047 47C33.7323 47 33.76 47 33.7876 47C33.8153 47 33.843 47 33.8707 47C33.8985 47 33.9262 47 33.954 47C33.9818 47 34.0096 47 34.0374 47C34.0652 47 34.093 47 34.1209 47C34.1488 47 34.1766 47 34.2045 47C34.2324 47 34.2604 47 34.2883 47C34.3163 47 34.3442 47 34.3722 47C34.4002 47 34.4283 47 34.4563 47C34.4843 47 34.5124 47 34.5405 47C34.5686 47 34.5967 47 34.6248 47C34.6529 47 34.6811 47 34.7093 47C34.7374 47 34.7656 47 34.7938 47C34.8221 47 34.8503 47 34.8786 47C34.9068 47 34.9351 47 34.9634 47C34.9917 47 35.0201 47 35.0484 47C35.0768 47 35.1051 47 35.1335 47C35.1619 47 35.1903 47 35.2188 47C35.2472 47 35.2757 47 35.3042 47C35.3326 47 35.3611 47 35.3897 47C35.4182 47 35.4467 47 35.4753 47C35.5039 47 35.5325 47 35.5611 47C35.5897 47 35.6183 47 35.647 47C35.6757 47 35.7043 47 35.733 47C35.7618 47 35.7905 47 35.8192 47C35.848 47 35.8767 47 35.9055 47C35.9343 47 35.9631 47 35.992 47C36.0208 47 36.0496 47 36.0785 47C36.1074 47 36.1363 47 36.1652 47C36.1941 47 36.2231 47 36.252 47C36.281 47 36.31 47 36.339 47C36.368 47 36.397 47 36.4261 47C36.4551 47 36.4842 47 36.5133 47C36.5424 47 36.5715 47 36.6006 47C36.6298 47 36.6589 47 36.6881 47C36.7173 47 36.7465 47 36.7757 47C36.8049 47 36.8342 47 36.8634 47C36.8927 47 36.922 47 36.9513 47C36.9806 47 37.0099 47 37.0393 47C37.0686 47 37.098 47 37.1274 47C37.1568 47 37.1862 47 37.2156 47C37.2451 47 37.2745 47 37.304 47C37.3335 47 37.363 47 37.3925 47C37.422 47 37.4516 47 37.4811 47C37.5107 47 37.5403 47 37.5699 47C37.5995 47 37.6291 47 37.6587 47C37.6884 47 37.7181 47 37.7478 47C37.7774 47 37.8072 47 37.8369 47C37.8666 47 37.8964 47 37.9261 47C37.9559 47 37.9857 47 38.0155 47C38.0453 47 38.0752 47 38.105 47C38.1349 47 38.1648 47 38.1947 47C38.2246 47 38.2545 47 38.2844 47C38.3144 47 38.3443 47 38.3743 47C38.4043 47 38.4343 47 38.4643 47C38.4944 47 38.5244 47 38.5545 47C38.5845 47 38.6146 47 38.6447 47C38.6749 47 38.705 47 38.7351 47C38.7653 47 38.7955 47 38.8256 47C38.8558 47 38.8861 47 38.9163 47C38.9465 47 38.9768 47 39.007 47C39.0373 47 39.0676 47 39.0979 47C39.1282 47 39.1586 47 39.1889 47C39.2193 47 39.2497 47 39.2801 47C39.3105 47 39.3409 47 39.3713 47C39.4018 47 39.4322 47 39.4627 47C39.4932 47 39.5237 47 39.5542 47C39.5847 47 39.6153 47 39.6458 47C39.6764 47 39.707 47 39.7376 47C39.7682 47 39.7988 47 39.8295 47C39.8601 47 39.8908 47 39.9215 47C39.9521 47 39.9828 47 40.0136 47C40.0443 47 40.075 47 40.1058 47C40.1366 47 40.1674 47 40.1982 47C40.229 47 40.2598 47 40.2907 47C40.3215 47 40.3524 47 40.3833 47C40.4141 47 40.445 47 40.476 47C40.5069 47 40.5379 47 40.5688 47C40.5998 47 40.6308 47 40.6618 47C40.6928 47 40.7238 47 40.7549 47C40.7859 47 40.817 47 40.8481 47C40.8792 47 40.9103 47 40.9414 47C40.9725 47 41.0037 47 41.0349 47C41.066 47 41.0972 47 41.1284 47C41.1596 47 41.1909 47 41.2221 47C41.2534 47 41.2846 47 41.3159 47C41.3472 47 41.3785 47 41.4098 47C41.4412 47 41.4725 47 41.5039 47C41.5353 47 41.5666 47 41.5981 47C41.6295 47 41.6609 47 41.6923 47C41.7238 47 41.7553 47 41.7867 47C41.8182 47 41.8497 47 41.8813 47C41.9128 47 41.9443 47 41.9759 47C42.0075 47 42.039 47 42.0707 47C42.1023 47 42.1339 47 42.1655 47C42.1972 47 42.2288 47 42.2605 47C42.2922 47 42.3239 47 42.3556 47C42.3873 47 42.4191 47 42.4509 47C42.4826 47 42.5144 47 42.5462 47C42.578 47 42.6098 47 42.6417 47C42.6735 47 42.7054 47 42.7372 47C42.7691 47 42.801 47 42.8329 47C42.8648 47 42.8968 47 42.9287 47C42.9607 47 42.9927 47 43.0247 47C43.0567 47 43.0887 47 43.1207 47C43.1527 47 43.1848 47 43.2169 47C43.2489 47 43.281 47 43.3131 47C43.3452 47 43.3774 47 43.4095 47C43.4417 47 43.4738 47 43.506 47C43.5382 47 43.5704 47 43.6026 47C43.6349 47 43.6671 47 43.6994 47C43.7316 47 43.7639 47 43.7962 47C43.8285 47 43.8609 47 43.8932 47C43.9255 47 43.9579 47 43.9903 47C44.0226 47 44.055 47 44.0875 47C44.1199 47 44.1523 47 44.1848 47C44.2172 47 44.2497 47 44.2822 47C44.3147 47 44.3472 47 44.3797 47C44.4122 47 44.4448 47 44.4774 47C44.5099 47 44.5425 47 44.5751 47C44.6077 47 44.6403 47 44.673 47C44.7056 47 44.7383 47 44.771 47C44.8037 47 44.8364 47 44.8691 47C44.9018 47 44.9345 47 44.9673 47C45 47 45.0328 47 45.0656 47C45.0984 47 45.1312 47 45.164 47C45.1969 47 45.2297 47 45.2626 47C45.2955 47 45.3283 47 45.3612 47C45.3941 47 45.4271 47 45.46 47C45.493 47 45.5259 47 45.5589 47C45.5919 47 45.6249 47 45.6579 47C45.6909 47 45.7239 47 45.757 47C45.79 47 45.8231 47 45.8562 47C45.8893 47 45.9224 47 45.9555 47C45.9886 47 46.0218 47 46.055 47C46.0881 47 46.1213 47 46.1545 47C46.1877 47 46.2209 47 46.2542 47C46.2874 47 46.3206 47 46.3539 47C46.3872 47 46.4205 47 46.4538 47C46.4871 47 46.5204 47 46.5538 47C46.5871 47 46.6205 47 46.6539 47C46.6872 47 46.7206 47 46.7541 47C46.7875 47 46.8209 47 46.8544 47C46.8878 47 46.9213 47 46.9548 47C46.9883 47 47.0218 47 47.0553 47C47.0888 47 47.1224 47 47.1559 47C47.1895 47 47.2231 47 47.2567 47C47.2903 47 47.3239 47 47.3575 47C47.3912 47 47.4248 47 47.4585 47C47.4922 47 47.5259 47 47.5596 47C47.5933 47 47.627 47 47.6607 47C47.6945 47 47.7282 47 47.762 47C47.7958 47 47.8296 47 47.8634 47C47.8972 47 47.9311 47 47.9649 47C47.9988 47 48.0326 47 48.0665 47C48.1004 47 48.1343 47 48.1682 47C48.2021 47 48.2361 47 48.27 47C48.304 47 48.338 47 48.3719 47C48.4059 47 48.4399 47 48.474 47C48.508 47 48.542 47 48.5761 47C48.6102 47 48.6442 47 48.6783 47C48.7124 47 48.7465 47 48.7807 47C48.8148 47 48.849 47 48.8831 47C48.9173 47 48.9515 47 48.9857 47C49.0199 47 49.0541 47 49.0883 47C49.1226 47 49.1568 47 49.1911 47C49.2254 47 49.2597 47 49.294 47C49.3283 47 49.3626 47 49.3969 47C49.4313 47 49.4656 47 49.5 47V42ZM12 44.5V55.5H17V44.5H12Z" fill="#1F9FE8"/>
</svg>
