<svg width="110" height="126" viewBox="0 0 110 126" fill="none" xmlns="http://www.w3.org/2000/svg">
<path d="M5 2.5C5 1.11929 3.88071 0 2.5 0C1.11929 0 0 1.11929 0 2.5H5ZM66 74.5H68.5V72H66V74.5ZM66 89H63.5V89.0284L63.5006 89.0568L66 89ZM110 111L85 96.5662V125.434L110 111ZM0 2.5V44.5H5V2.5H0ZM0 44.5C0 49.917 1.65809 57.9733 6.69424 64.7423C11.8216 71.6339 20.3192 77 33.5 77V72C21.8808 72 14.8784 67.3661 10.7058 61.7577C6.44191 56.0267 5 49.083 5 44.5H0ZM33.5 77C33.5484 77 33.5968 77 33.6451 77C33.6934 77 33.7417 77 33.7898 77C33.838 77 33.8861 77 33.9341 77C33.9822 77 34.0301 77 34.078 77C34.1259 77 34.1738 77 34.2215 77C34.2693 77 34.317 77 34.3646 77C34.4123 77 34.4598 77 34.5073 77C34.5548 77 34.6023 77 34.6497 77C34.697 77 34.7443 77 34.7916 77C34.8388 77 34.886 77 34.9331 77C34.9802 77 35.0272 77 35.0742 77C35.1211 77 35.168 77 35.2149 77C35.2617 77 35.3085 77 35.3552 77C35.4019 77 35.4485 77 35.4951 77C35.5417 77 35.5882 77 35.6346 77C35.6811 77 35.7275 77 35.7738 77C35.8201 77 35.8663 77 35.9125 77C35.9587 77 36.0048 77 36.0508 77C36.0969 77 36.1429 77 36.1888 77C36.2347 77 36.2805 77 36.3263 77C36.3721 77 36.4178 77 36.4635 77C36.5091 77 36.5547 77 36.6003 77C36.6458 77 36.6912 77 36.7366 77C36.782 77 36.8273 77 36.8726 77C36.9179 77 36.9631 77 37.0082 77C37.0533 77 37.0984 77 37.1434 77C37.1884 77 37.2333 77 37.2782 77C37.3231 77 37.3679 77 37.4126 77C37.4574 77 37.502 77 37.5467 77C37.5913 77 37.6358 77 37.6803 77C37.7248 77 37.7692 77 37.8135 77C37.8579 77 37.9022 77 37.9464 77C37.9906 77 38.0348 77 38.0789 77C38.123 77 38.167 77 38.211 77C38.2549 77 38.2988 77 38.3427 77C38.3865 77 38.4303 77 38.474 77C38.5177 77 38.5614 77 38.6049 77C38.6485 77 38.692 77 38.7355 77C38.7789 77 38.8223 77 38.8657 77C38.909 77 38.9522 77 38.9954 77C39.0386 77 39.0818 77 39.1248 77C39.1679 77 39.2109 77 39.2538 77C39.2968 77 39.3397 77 39.3825 77C39.4253 77 39.468 77 39.5107 77C39.5534 77 39.596 77 39.6386 77C39.6812 77 39.7237 77 39.7661 77C39.8085 77 39.8509 77 39.8932 77C39.9355 77 39.9777 77 40.0199 77C40.0621 77 40.1042 77 40.1463 77C40.1883 77 40.2303 77 40.2722 77C40.3142 77 40.356 77 40.3978 77C40.4396 77 40.4814 77 40.523 77C40.5647 77 40.6063 77 40.6479 77C40.6894 77 40.7309 77 40.7723 77C40.8138 77 40.8551 77 40.8964 77C40.9377 77 40.9789 77 41.0201 77C41.0613 77 41.1024 77 41.1435 77C41.1845 77 41.2255 77 41.2664 77C41.3073 77 41.3482 77 41.389 77C41.4298 77 41.4705 77 41.5112 77C41.5519 77 41.5925 77 41.633 77C41.6736 77 41.7141 77 41.7545 77C41.7949 77 41.8353 77 41.8756 77C41.9159 77 41.9561 77 41.9963 77C42.0365 77 42.0766 77 42.1166 77C42.1567 77 42.1967 77 42.2366 77C42.2765 77 42.3164 77 42.3562 77C42.396 77 42.4358 77 42.4754 77C42.5151 77 42.5547 77 42.5943 77C42.6339 77 42.6734 77 42.7128 77C42.7522 77 42.7916 77 42.8309 77C42.8702 77 42.9095 77 42.9487 77C42.9879 77 43.027 77 43.0661 77C43.1051 77 43.1441 77 43.1831 77C43.222 77 43.2609 77 43.2997 77C43.3386 77 43.3773 77 43.416 77C43.4547 77 43.4934 77 43.5319 77C43.5705 77 43.609 77 43.6475 77C43.686 77 43.7244 77 43.7627 77C43.801 77 43.8393 77 43.8775 77C43.9157 77 43.9539 77 43.992 77C44.0301 77 44.0681 77 44.1061 77C44.1441 77 44.182 77 44.2198 77C44.2577 77 44.2955 77 44.3332 77C44.3709 77 44.4086 77 44.4462 77C44.4838 77 44.5214 77 44.5589 77C44.5963 77 44.6338 77 44.6711 77C44.7085 77 44.7458 77 44.7831 77C44.8203 77 44.8575 77 44.8946 77C44.9318 77 44.9688 77 45.0059 77C45.0429 77 45.0798 77 45.1167 77C45.1536 77 45.1904 77 45.2272 77C45.264 77 45.3007 77 45.3373 77C45.374 77 45.4106 77 45.4471 77C45.4837 77 45.5201 77 45.5565 77C45.5929 77 45.6293 77 45.6656 77C45.7019 77 45.7381 77 45.7743 77C45.8105 77 45.8466 77 45.8827 77C45.9187 77 45.9547 77 45.9907 77C46.0266 77 46.0625 77 46.0983 77C46.1341 77 46.1699 77 46.2056 77C46.2413 77 46.2769 77 46.3125 77C46.3481 77 46.3836 77 46.4191 77C46.4546 77 46.49 77 46.5253 77C46.5607 77 46.596 77 46.6312 77C46.6664 77 46.7016 77 46.7367 77C46.7719 77 46.8069 77 46.8419 77C46.8769 77 46.9119 77 46.9467 77C46.9816 77 47.0164 77 47.0512 77C47.086 77 47.1207 77 47.1553 77C47.19 77 47.2246 77 47.2591 77C47.2936 77 47.3281 77 47.3625 77C47.3969 77 47.4313 77 47.4656 77C47.4999 77 47.5342 77 47.5683 77C47.6025 77 47.6367 77 47.6707 77C47.7048 77 47.7388 77 47.7728 77C47.8067 77 47.8406 77 47.8744 77C47.9083 77 47.9421 77 47.9758 77C48.0095 77 48.0432 77 48.0768 77C48.1104 77 48.1439 77 48.1774 77C48.2109 77 48.2444 77 48.2778 77C48.3111 77 48.3445 77 48.3777 77C48.411 77 48.4442 77 48.4773 77C48.5105 77 48.5436 77 48.5766 77C48.6097 77 48.6426 77 48.6756 77C48.7085 77 48.7413 77 48.7741 77C48.807 77 48.8397 77 48.8724 77C48.9051 77 48.9377 77 48.9703 77C49.0029 77 49.0354 77 49.0679 77C49.1003 77 49.1328 77 49.1651 77C49.1975 77 49.2298 77 49.262 77C49.2942 77 49.3264 77 49.3586 77C49.3907 77 49.4228 77 49.4548 77C49.4868 77 49.5187 77 49.5507 77C49.5826 77 49.6144 77 49.6462 77C49.678 77 49.7097 77 49.7414 77C49.7731 77 49.8047 77 49.8363 77C49.8678 77 49.8993 77 49.9308 77C49.9622 77 49.9936 77 50.025 77C50.0563 77 50.0876 77 50.1188 77C50.1501 77 50.1812 77 50.2124 77C50.2435 77 50.2745 77 50.3056 77C50.3366 77 50.3675 77 50.3984 77C50.4293 77 50.4601 77 50.4909 77C50.5217 77 50.5524 77 50.5831 77C50.6138 77 50.6444 77 50.675 77C50.7055 77 50.7361 77 50.7665 77C50.797 77 50.8274 77 50.8577 77C50.888 77 50.9183 77 50.9486 77C50.9788 77 51.009 77 51.0391 77C51.0692 77 51.0993 77 51.1293 77C51.1593 77 51.1893 77 51.2192 77C51.2491 77 51.2789 77 51.3087 77C51.3385 77 51.3683 77 51.3979 77C51.4276 77 51.4573 77 51.4868 77C51.5164 77 51.5459 77 51.5754 77C51.6049 77 51.6343 77 51.6636 77C51.693 77 51.7223 77 51.7515 77C51.7808 77 51.81 77 51.8391 77C51.8683 77 51.8974 77 51.9264 77C51.9554 77 51.9844 77 52.0133 77C52.0422 77 52.0711 77 52.0999 77C52.1287 77 52.1575 77 52.1862 77C52.2149 77 52.2436 77 52.2722 77C52.3008 77 52.3293 77 52.3578 77C52.3863 77 52.4148 77 52.4431 77C52.4715 77 52.4999 77 52.5281 77C52.5564 77 52.5846 77 52.6128 77C52.641 77 52.6691 77 52.6972 77C52.7252 77 52.7532 77 52.7812 77C52.8092 77 52.8371 77 52.8649 77C52.8928 77 52.9206 77 52.9483 77C52.976 77 53.0037 77 53.0314 77C53.059 77 53.0866 77 53.1141 77C53.1417 77 53.1691 77 53.1966 77C53.224 77 53.2514 77 53.2787 77C53.306 77 53.3333 77 53.3605 77C53.3877 77 53.4149 77 53.442 77C53.4691 77 53.4961 77 53.5231 77C53.5501 77 53.5771 77 53.604 77C53.6309 77 53.6577 77 53.6845 77C53.7113 77 53.7381 77 53.7648 77C53.7914 77 53.8181 77 53.8447 77C53.8713 77 53.8978 77 53.9243 77C53.9507 77 53.9772 77 54.0035 77C54.0299 77 54.0562 77 54.0825 77C54.1088 77 54.135 77 54.1612 77C54.1873 77 54.2135 77 54.2395 77C54.2656 77 54.2916 77 54.3176 77C54.3435 77 54.3694 77 54.3953 77C54.4211 77 54.4469 77 54.4727 77C54.4985 77 54.5242 77 54.5498 77C54.5755 77 54.6011 77 54.6266 77C54.6521 77 54.6776 77 54.7031 77C54.7285 77 54.7539 77 54.7793 77C54.8046 77 54.8299 77 54.8551 77C54.8804 77 54.9056 77 54.9307 77C54.9558 77 54.9809 77 55.006 77C55.031 77 55.056 77 55.0809 77C55.1058 77 55.1307 77 55.1555 77C55.1804 77 55.2052 77 55.2299 77C55.2546 77 55.2793 77 55.3039 77C55.3285 77 55.3531 77 55.3777 77C55.4022 77 55.4267 77 55.4511 77C55.4755 77 55.4999 77 55.5242 77C55.5485 77 55.5728 77 55.597 77C55.6212 77 55.6454 77 55.6695 77C55.6937 77 55.7177 77 55.7418 77C55.7658 77 55.7897 77 55.8137 77C55.8376 77 55.8615 77 55.8853 77C55.9091 77 55.9329 77 55.9566 77C55.9803 77 56.004 77 56.0276 77C56.0512 77 56.0748 77 56.0983 77C56.1218 77 56.1453 77 56.1687 77C56.1921 77 56.2155 77 56.2388 77C56.2622 77 56.2854 77 56.3087 77C56.3319 77 56.3551 77 56.3782 77C56.4013 77 56.4244 77 56.4474 77C56.4704 77 56.4934 77 56.5163 77C56.5392 77 56.5621 77 56.585 77C56.6078 77 56.6306 77 56.6533 77C56.676 77 56.6987 77 56.7213 77C56.744 77 56.7665 77 56.7891 77C56.8116 77 56.8341 77 56.8565 77C56.879 77 56.9013 77 56.9237 77C56.946 77 56.9683 77 56.9905 77C57.0128 77 57.035 77 57.0571 77C57.0792 77 57.1013 77 57.1234 77C57.1454 77 57.1674 77 57.1894 77C57.2113 77 57.2332 77 57.2551 77C57.2769 77 57.2987 77 57.3205 77C57.3422 77 57.3639 77 57.3856 77C57.4072 77 57.4288 77 57.4504 77C57.472 77 57.4935 77 57.5149 77C57.5364 77 57.5578 77 57.5792 77C57.6006 77 57.6219 77 57.6431 77C57.6644 77 57.6856 77 57.7068 77C57.728 77 57.7491 77 57.7702 77C57.7913 77 57.8123 77 57.8333 77C57.8543 77 57.8752 77 57.8961 77C57.917 77 57.9378 77 57.9586 77C57.9794 77 58.0002 77 58.0209 77C58.0416 77 58.0622 77 58.0828 77C58.1034 77 58.124 77 58.1445 77C58.165 77 58.1855 77 58.2059 77C58.2263 77 58.2467 77 58.267 77C58.2873 77 58.3076 77 58.3278 77C58.348 77 58.3682 77 58.3883 77C58.4085 77 58.4285 77 58.4486 77C58.4686 77 58.4886 77 58.5086 77C58.5285 77 58.5484 77 58.5682 77C58.5881 77 58.6079 77 58.6277 77C58.6474 77 58.6671 77 58.6868 77C58.7064 77 58.7261 77 58.7456 77C58.7652 77 58.7847 77 58.8042 77C58.8237 77 58.8431 77 58.8625 77C58.8819 77 58.9012 77 58.9205 77C58.9398 77 58.9591 77 58.9783 77C58.9975 77 59.0166 77 59.0357 77C59.0548 77 59.0739 77 59.0929 77C59.1119 77 59.1309 77 59.1498 77C59.1687 77 59.1876 77 59.2064 77C59.2253 77 59.2441 77 59.2628 77C59.2815 77 59.3002 77 59.3189 77C59.3375 77 59.3561 77 59.3747 77C59.3932 77 59.4118 77 59.4302 77C59.4487 77 59.4671 77 59.4855 77C59.5039 77 59.5222 77 59.5405 77C59.5588 77 59.577 77 59.5952 77C59.6134 77 59.6315 77 59.6496 77C59.6677 77 59.6858 77 59.7038 77C59.7218 77 59.7398 77 59.7577 77C59.7756 77 59.7935 77 59.8113 77C59.8292 77 59.847 77 59.8647 77C59.8824 77 59.9001 77 59.9178 77C59.9354 77 59.9531 77 59.9706 77C59.9882 77 60.0057 77 60.0232 77C60.0406 77 60.0581 77 60.0755 77C60.0928 77 60.1102 77 60.1275 77C60.1448 77 60.162 77 60.1792 77C60.1964 77 60.2136 77 60.2307 77C60.2478 77 60.2649 77 60.2819 77C60.299 77 60.316 77 60.3329 77C60.3498 77 60.3667 77 60.3836 77C60.4004 77 60.4173 77 60.434 77C60.4508 77 60.4675 77 60.4842 77C60.5009 77 60.5175 77 60.5341 77C60.5507 77 60.5672 77 60.5837 77C60.6002 77 60.6167 77 60.6331 77C60.6495 77 60.6659 77 60.6822 77C60.6985 77 60.7148 77 60.7311 77C60.7473 77 60.7635 77 60.7796 77C60.7958 77 60.8119 77 60.828 77C60.844 77 60.8601 77 60.876 77C60.892 77 60.908 77 60.9238 77C60.9397 77 60.9556 77 60.9714 77C60.9872 77 61.003 77 61.0187 77C61.0344 77 61.0501 77 61.0657 77C61.0814 77 61.0969 77 61.1125 77C61.128 77 61.1436 77 61.159 77C61.1745 77 61.1899 77 61.2053 77C61.2207 77 61.236 77 61.2513 77C61.2666 77 61.2818 77 61.297 77C61.3122 77 61.3274 77 61.3425 77C61.3576 77 61.3727 77 61.3878 77C61.4028 77 61.4178 77 61.4328 77C61.4477 77 61.4626 77 61.4775 77C61.4924 77 61.5072 77 61.522 77C61.5367 77 61.5515 77 61.5662 77C61.5809 77 61.5955 77 61.6102 77C61.6248 77 61.6394 77 61.6539 77C61.6684 77 61.6829 77 61.6974 77C61.7118 77 61.7262 77 61.7406 77C61.7549 77 61.7693 77 61.7835 77C61.7978 77 61.8121 77 61.8263 77C61.8405 77 61.8546 77 61.8687 77C61.8829 77 61.8969 77 61.911 77C61.925 77 61.939 77 61.9529 77C61.9669 77 61.9808 77 61.9947 77C62.0085 77 62.0223 77 62.0361 77C62.0499 77 62.0637 77 62.0774 77C62.0911 77 62.1047 77 62.1183 77C62.132 77 62.1455 77 62.1591 77C62.1726 77 62.1861 77 62.1996 77C62.213 77 62.2265 77 62.2398 77C62.2532 77 62.2665 77 62.2798 77C62.2931 77 62.3064 77 62.3196 77C62.3328 77 62.346 77 62.3591 77C62.3722 77 62.3853 77 62.3984 77C62.4114 77 62.4244 77 62.4374 77C62.4504 77 62.4633 77 62.4762 77C62.4891 77 62.5019 77 62.5147 77C62.5276 77 62.5403 77 62.5531 77C62.5658 77 62.5785 77 62.5911 77C62.6038 77 62.6164 77 62.6289 77C62.6415 77 62.654 77 62.6665 77C62.679 77 62.6915 77 62.7039 77C62.7163 77 62.7287 77 62.741 77C62.7533 77 62.7656 77 62.7779 77C62.7901 77 62.8023 77 62.8145 77C62.8267 77 62.8388 77 62.8509 77C62.863 77 62.875 77 62.887 77C62.8991 77 62.911 77 62.923 77C62.9349 77 62.9468 77 62.9587 77C62.9705 77 62.9823 77 62.9941 77C63.0059 77 63.0176 77 63.0293 77C63.041 77 63.0527 77 63.0643 77C63.0759 77 63.0875 77 63.099 77C63.1106 77 63.1221 77 63.1336 77C63.145 77 63.1565 77 63.1679 77C63.1792 77 63.1906 77 63.2019 77C63.2132 77 63.2245 77 63.2357 77C63.247 77 63.2581 77 63.2693 77C63.2805 77 63.2916 77 63.3027 77C63.3137 77 63.3248 77 63.3358 77C63.3468 77 63.3578 77 63.3687 77C63.3796 77 63.3905 77 63.4014 77C63.4122 77 63.423 77 63.4338 77C63.4446 77 63.4553 77 63.466 77C63.4767 77 63.4874 77 63.498 77C63.5086 77 63.5192 77 63.5297 77C63.5403 77 63.5508 77 63.5613 77C63.5717 77 63.5822 77 63.5926 77C63.603 77 63.6133 77 63.6236 77C63.634 77 63.6442 77 63.6545 77C63.6647 77 63.6749 77 63.6851 77C63.6953 77 63.7054 77 63.7155 77C63.7256 77 63.7357 77 63.7457 77C63.7557 77 63.7657 77 63.7756 77C63.7856 77 63.7955 77 63.8054 77C63.8152 77 63.8251 77 63.8349 77C63.8447 77 63.8544 77 63.8642 77C63.8739 77 63.8836 77 63.8932 77C63.9029 77 63.9125 77 63.9221 77C63.9316 77 63.9412 77 63.9507 77C63.9602 77 63.9697 77 63.9791 77C63.9885 77 63.9979 77 64.0073 77C64.0166 77 64.026 77 64.0352 77C64.0445 77 64.0538 77 64.063 77C64.0722 77 64.0814 77 64.0905 77C64.0996 77 64.1087 77 64.1178 77C64.1269 77 64.1359 77 64.1449 77C64.1539 77 64.1629 77 64.1718 77C64.1807 77 64.1896 77 64.1984 77C64.2073 77 64.2161 77 64.2249 77C64.2337 77 64.2424 77 64.2511 77C64.2598 77 64.2685 77 64.2771 77C64.2858 77 64.2944 77 64.3029 77C64.3115 77 64.32 77 64.3285 77C64.337 77 64.3455 77 64.3539 77C64.3623 77 64.3707 77 64.379 77C64.3874 77 64.3957 77 64.404 77C64.4123 77 64.4205 77 64.4287 77C64.4369 77 64.4451 77 64.4532 77C64.4614 77 64.4695 77 64.4775 77C64.4856 77 64.4936 77 64.5016 77C64.5096 77 64.5176 77 64.5255 77C64.5335 77 64.5414 77 64.5492 77C64.5571 77 64.5649 77 64.5727 77C64.5805 77 64.5882 77 64.596 77C64.6037 77 64.6114 77 64.619 77C64.6267 77 64.6343 77 64.6419 77C64.6495 77 64.657 77 64.6645 77C64.672 77 64.6795 77 64.6869 77C64.6944 77 64.7018 77 64.7092 77C64.7166 77 64.7239 77 64.7312 77C64.7385 77 64.7458 77 64.753 77C64.7603 77 64.7675 77 64.7746 77C64.7818 77 64.7889 77 64.7961 77C64.8032 77 64.8102 77 64.8173 77C64.8243 77 64.8313 77 64.8383 77C64.8452 77 64.8522 77 64.8591 77C64.866 77 64.8728 77 64.8797 77C64.8865 77 64.8933 77 64.9001 77C64.9068 77 64.9136 77 64.9203 77C64.927 77 64.9336 77 64.9403 77C64.9469 77 64.9535 77 64.9601 77C64.9666 77 64.9732 77 64.9797 77C64.9862 77 64.9926 77 64.9991 77C65.0055 77 65.0119 77 65.0182 77C65.0246 77 65.0309 77 65.0373 77C65.0436 77 65.0498 77 65.0561 77C65.0623 77 65.0685 77 65.0747 77C65.0808 77 65.087 77 65.0931 77C65.0992 77 65.1052 77 65.1113 77C65.1173 77 65.1233 77 65.1293 77C65.1353 77 65.1412 77 65.1471 77C65.153 77 65.1589 77 65.1647 77C65.1706 77 65.1764 77 65.1822 77C65.188 77 65.1937 77 65.1994 77C65.2051 77 65.2108 77 65.2165 77C65.2221 77 65.2277 77 65.2333 77C65.2389 77 65.2445 77 65.25 77C65.2555 77 65.261 77 65.2665 77C65.2719 77 65.2773 77 65.2827 77C65.2881 77 65.2935 77 65.2988 77C65.3041 77 65.3094 77 65.3147 77C65.32 77 65.3252 77 65.3304 77C65.3356 77 65.3408 77 65.3459 77C65.3511 77 65.3562 77 65.3613 77C65.3663 77 65.3714 77 65.3764 77C65.3814 77 65.3864 77 65.3914 77C65.3963 77 65.4012 77 65.4061 77C65.411 77 65.4159 77 65.4207 77C65.4255 77 65.4303 77 65.4351 77C65.4399 77 65.4446 77 65.4493 77C65.454 77 65.4587 77 65.4633 77C65.468 77 65.4726 77 65.4771 77C65.4817 77 65.4863 77 65.4908 77C65.4953 77 65.4998 77 65.5043 77C65.5087 77 65.5131 77 65.5175 77C65.5219 77 65.5263 77 65.5306 77C65.535 77 65.5393 77 65.5436 77C65.5478 77 65.5521 77 65.5563 77C65.5605 77 65.5647 77 65.5689 77C65.573 77 65.5771 77 65.5812 77C65.5853 77 65.5894 77 65.5934 77C65.5974 77 65.6014 77 65.6054 77C65.6094 77 65.6133 77 65.6173 77C65.6212 77 65.6251 77 65.6289 77C65.6328 77 65.6366 77 65.6404 77C65.6442 77 65.6479 77 65.6517 77C65.6554 77 65.6591 77 65.6628 77C65.6665 77 65.6701 77 65.6737 77C65.6773 77 65.6809 77 65.6845 77C65.6881 77 65.6916 77 65.6951 77C65.6986 77 65.7021 77 65.7055 77C65.7089 77 65.7123 77 65.7157 77C65.7191 77 65.7225 77 65.7258 77C65.7291 77 65.7324 77 65.7357 77C65.7389 77 65.7422 77 65.7454 77C65.7486 77 65.7518 77 65.7549 77C65.7581 77 65.7612 77 65.7643 77C65.7674 77 65.7705 77 65.7735 77C65.7765 77 65.7795 77 65.7825 77C65.7855 77 65.7884 77 65.7914 77C65.7943 77 65.7972 77 65.8001 77C65.8029 77 65.8058 77 65.8086 77C65.8114 77 65.8142 77 65.8169 77C65.8197 77 65.8224 77 65.8251 77C65.8278 77 65.8304 77 65.8331 77C65.8357 77 65.8383 77 65.8409 77C65.8435 77 65.846 77 65.8486 77C65.8511 77 65.8536 77 65.8561 77C65.8585 77 65.861 77 65.8634 77C65.8658 77 65.8682 77 65.8706 77C65.8729 77 65.8753 77 65.8776 77C65.8799 77 65.8821 77 65.8844 77C65.8867 77 65.8889 77 65.8911 77C65.8933 77 65.8954 77 65.8976 77C65.8997 77 65.9018 77 65.9039 77C65.906 77 65.9081 77 65.9101 77C65.9121 77 65.9141 77 65.9161 77C65.9181 77 65.92 77 65.9219 77C65.9239 77 65.9258 77 65.9276 77C65.9295 77 65.9313 77 65.9332 77C65.935 77 65.9368 77 65.9385 77C65.9403 77 65.942 77 65.9437 77C65.9454 77 65.9471 77 65.9488 77C65.9504 77 65.9521 77 65.9537 77C65.9553 77 65.9568 77 65.9584 77C65.9599 77 65.9615 77 65.963 77C65.9645 77 65.9659 77 65.9674 77C65.9688 77 65.9702 77 65.9716 77C65.973 77 65.9744 77 65.9757 77C65.977 77 65.9784 77 65.9796 77C65.9809 77 65.9822 77 65.9834 77C65.9847 77 65.9859 77 65.987 77C65.9882 77 65.9894 77 65.9905 77C65.9916 77 65.9928 77 65.9938 77C65.9949 77 65.996 77 65.997 77C65.998 77 65.999 77 66 77V72C65.999 72 65.998 72 65.997 72C65.996 72 65.9949 72 65.9938 72C65.9928 72 65.9916 72 65.9905 72C65.9894 72 65.9882 72 65.987 72C65.9859 72 65.9847 72 65.9834 72C65.9822 72 65.9809 72 65.9796 72C65.9784 72 65.977 72 65.9757 72C65.9744 72 65.973 72 65.9716 72C65.9702 72 65.9688 72 65.9674 72C65.9659 72 65.9645 72 65.963 72C65.9615 72 65.9599 72 65.9584 72C65.9568 72 65.9553 72 65.9537 72C65.9521 72 65.9504 72 65.9488 72C65.9471 72 65.9454 72 65.9437 72C65.942 72 65.9403 72 65.9385 72C65.9368 72 65.935 72 65.9332 72C65.9313 72 65.9295 72 65.9276 72C65.9258 72 65.9239 72 65.9219 72C65.92 72 65.9181 72 65.9161 72C65.9141 72 65.9121 72 65.9101 72C65.9081 72 65.906 72 65.9039 72C65.9018 72 65.8997 72 65.8976 72C65.8954 72 65.8933 72 65.8911 72C65.8889 72 65.8867 72 65.8844 72C65.8821 72 65.8799 72 65.8776 72C65.8753 72 65.8729 72 65.8706 72C65.8682 72 65.8658 72 65.8634 72C65.861 72 65.8585 72 65.8561 72C65.8536 72 65.8511 72 65.8486 72C65.846 72 65.8435 72 65.8409 72C65.8383 72 65.8357 72 65.8331 72C65.8304 72 65.8278 72 65.8251 72C65.8224 72 65.8197 72 65.8169 72C65.8142 72 65.8114 72 65.8086 72C65.8058 72 65.8029 72 65.8001 72C65.7972 72 65.7943 72 65.7914 72C65.7884 72 65.7855 72 65.7825 72C65.7795 72 65.7765 72 65.7735 72C65.7705 72 65.7674 72 65.7643 72C65.7612 72 65.7581 72 65.7549 72C65.7518 72 65.7486 72 65.7454 72C65.7422 72 65.7389 72 65.7357 72C65.7324 72 65.7291 72 65.7258 72C65.7225 72 65.7191 72 65.7157 72C65.7123 72 65.7089 72 65.7055 72C65.7021 72 65.6986 72 65.6951 72C65.6916 72 65.6881 72 65.6845 72C65.6809 72 65.6773 72 65.6737 72C65.6701 72 65.6665 72 65.6628 72C65.6591 72 65.6554 72 65.6517 72C65.6479 72 65.6442 72 65.6404 72C65.6366 72 65.6328 72 65.6289 72C65.6251 72 65.6212 72 65.6173 72C65.6133 72 65.6094 72 65.6054 72C65.6014 72 65.5974 72 65.5934 72C65.5894 72 65.5853 72 65.5812 72C65.5771 72 65.573 72 65.5689 72C65.5647 72 65.5605 72 65.5563 72C65.5521 72 65.5478 72 65.5436 72C65.5393 72 65.535 72 65.5306 72C65.5263 72 65.5219 72 65.5175 72C65.5131 72 65.5087 72 65.5043 72C65.4998 72 65.4953 72 65.4908 72C65.4863 72 65.4817 72 65.4771 72C65.4726 72 65.468 72 65.4633 72C65.4587 72 65.454 72 65.4493 72C65.4446 72 65.4399 72 65.4351 72C65.4303 72 65.4255 72 65.4207 72C65.4159 72 65.411 72 65.4061 72C65.4012 72 65.3963 72 65.3914 72C65.3864 72 65.3814 72 65.3764 72C65.3714 72 65.3663 72 65.3613 72C65.3562 72 65.3511 72 65.3459 72C65.3408 72 65.3356 72 65.3304 72C65.3252 72 65.32 72 65.3147 72C65.3094 72 65.3041 72 65.2988 72C65.2935 72 65.2881 72 65.2827 72C65.2773 72 65.2719 72 65.2665 72C65.261 72 65.2555 72 65.25 72C65.2445 72 65.2389 72 65.2333 72C65.2277 72 65.2221 72 65.2165 72C65.2108 72 65.2051 72 65.1994 72C65.1937 72 65.188 72 65.1822 72C65.1764 72 65.1706 72 65.1647 72C65.1589 72 65.153 72 65.1471 72C65.1412 72 65.1353 72 65.1293 72C65.1233 72 65.1173 72 65.1113 72C65.1052 72 65.0992 72 65.0931 72C65.087 72 65.0808 72 65.0747 72C65.0685 72 65.0623 72 65.0561 72C65.0498 72 65.0436 72 65.0373 72C65.0309 72 65.0246 72 65.0182 72C65.0119 72 65.0055 72 64.9991 72C64.9926 72 64.9862 72 64.9797 72C64.9732 72 64.9666 72 64.9601 72C64.9535 72 64.9469 72 64.9403 72C64.9336 72 64.927 72 64.9203 72C64.9136 72 64.9068 72 64.9001 72C64.8933 72 64.8865 72 64.8797 72C64.8728 72 64.866 72 64.8591 72C64.8522 72 64.8452 72 64.8383 72C64.8313 72 64.8243 72 64.8173 72C64.8102 72 64.8032 72 64.7961 72C64.7889 72 64.7818 72 64.7746 72C64.7675 72 64.7603 72 64.753 72C64.7458 72 64.7385 72 64.7312 72C64.7239 72 64.7166 72 64.7092 72C64.7018 72 64.6944 72 64.6869 72C64.6795 72 64.672 72 64.6645 72C64.657 72 64.6495 72 64.6419 72C64.6343 72 64.6267 72 64.619 72C64.6114 72 64.6037 72 64.596 72C64.5882 72 64.5805 72 64.5727 72C64.5649 72 64.5571 72 64.5492 72C64.5414 72 64.5335 72 64.5255 72C64.5176 72 64.5096 72 64.5016 72C64.4936 72 64.4856 72 64.4775 72C64.4695 72 64.4614 72 64.4532 72C64.4451 72 64.4369 72 64.4287 72C64.4205 72 64.4123 72 64.404 72C64.3957 72 64.3874 72 64.379 72C64.3707 72 64.3623 72 64.3539 72C64.3455 72 64.337 72 64.3285 72C64.32 72 64.3115 72 64.3029 72C64.2944 72 64.2858 72 64.2771 72C64.2685 72 64.2598 72 64.2511 72C64.2424 72 64.2337 72 64.2249 72C64.2161 72 64.2073 72 64.1984 72C64.1896 72 64.1807 72 64.1718 72C64.1629 72 64.1539 72 64.1449 72C64.1359 72 64.1269 72 64.1178 72C64.1087 72 64.0996 72 64.0905 72C64.0814 72 64.0722 72 64.063 72C64.0538 72 64.0445 72 64.0352 72C64.026 72 64.0166 72 64.0073 72C63.9979 72 63.9885 72 63.9791 72C63.9697 72 63.9602 72 63.9507 72C63.9412 72 63.9316 72 63.9221 72C63.9125 72 63.9029 72 63.8932 72C63.8836 72 63.8739 72 63.8642 72C63.8544 72 63.8447 72 63.8349 72C63.8251 72 63.8152 72 63.8054 72C63.7955 72 63.7856 72 63.7756 72C63.7657 72 63.7557 72 63.7457 72C63.7357 72 63.7256 72 63.7155 72C63.7054 72 63.6953 72 63.6851 72C63.6749 72 63.6647 72 63.6545 72C63.6442 72 63.634 72 63.6236 72C63.6133 72 63.603 72 63.5926 72C63.5822 72 63.5717 72 63.5613 72C63.5508 72 63.5403 72 63.5297 72C63.5192 72 63.5086 72 63.498 72C63.4874 72 63.4767 72 63.466 72C63.4553 72 63.4446 72 63.4338 72C63.423 72 63.4122 72 63.4014 72C63.3905 72 63.3796 72 63.3687 72C63.3578 72 63.3468 72 63.3358 72C63.3248 72 63.3137 72 63.3027 72C63.2916 72 63.2805 72 63.2693 72C63.2581 72 63.247 72 63.2357 72C63.2245 72 63.2132 72 63.2019 72C63.1906 72 63.1792 72 63.1679 72C63.1565 72 63.145 72 63.1336 72C63.1221 72 63.1106 72 63.099 72C63.0875 72 63.0759 72 63.0643 72C63.0527 72 63.041 72 63.0293 72C63.0176 72 63.0059 72 62.9941 72C62.9823 72 62.9705 72 62.9587 72C62.9468 72 62.9349 72 62.923 72C62.911 72 62.8991 72 62.887 72C62.875 72 62.863 72 62.8509 72C62.8388 72 62.8267 72 62.8145 72C62.8023 72 62.7901 72 62.7779 72C62.7656 72 62.7533 72 62.741 72C62.7287 72 62.7163 72 62.7039 72C62.6915 72 62.679 72 62.6665 72C62.654 72 62.6415 72 62.6289 72C62.6164 72 62.6038 72 62.5911 72C62.5785 72 62.5658 72 62.5531 72C62.5403 72 62.5276 72 62.5147 72C62.5019 72 62.4891 72 62.4762 72C62.4633 72 62.4504 72 62.4374 72C62.4244 72 62.4114 72 62.3984 72C62.3853 72 62.3722 72 62.3591 72C62.346 72 62.3328 72 62.3196 72C62.3064 72 62.2931 72 62.2798 72C62.2665 72 62.2532 72 62.2398 72C62.2265 72 62.213 72 62.1996 72C62.1861 72 62.1726 72 62.1591 72C62.1455 72 62.132 72 62.1183 72C62.1047 72 62.0911 72 62.0774 72C62.0637 72 62.0499 72 62.0361 72C62.0223 72 62.0085 72 61.9947 72C61.9808 72 61.9669 72 61.9529 72C61.939 72 61.925 72 61.911 72C61.8969 72 61.8829 72 61.8687 72C61.8546 72 61.8405 72 61.8263 72C61.8121 72 61.7978 72 61.7835 72C61.7693 72 61.7549 72 61.7406 72C61.7262 72 61.7118 72 61.6974 72C61.6829 72 61.6684 72 61.6539 72C61.6394 72 61.6248 72 61.6102 72C61.5955 72 61.5809 72 61.5662 72C61.5515 72 61.5367 72 61.522 72C61.5072 72 61.4924 72 61.4775 72C61.4626 72 61.4477 72 61.4328 72C61.4178 72 61.4028 72 61.3878 72C61.3727 72 61.3576 72 61.3425 72C61.3274 72 61.3122 72 61.297 72C61.2818 72 61.2666 72 61.2513 72C61.236 72 61.2207 72 61.2053 72C61.1899 72 61.1745 72 61.159 72C61.1436 72 61.128 72 61.1125 72C61.0969 72 61.0814 72 61.0657 72C61.0501 72 61.0344 72 61.0187 72C61.003 72 60.9872 72 60.9714 72C60.9556 72 60.9397 72 60.9238 72C60.908 72 60.892 72 60.876 72C60.8601 72 60.844 72 60.828 72C60.8119 72 60.7958 72 60.7796 72C60.7635 72 60.7473 72 60.7311 72C60.7148 72 60.6985 72 60.6822 72C60.6659 72 60.6495 72 60.6331 72C60.6167 72 60.6002 72 60.5837 72C60.5672 72 60.5507 72 60.5341 72C60.5175 72 60.5009 72 60.4842 72C60.4675 72 60.4508 72 60.434 72C60.4173 72 60.4004 72 60.3836 72C60.3667 72 60.3498 72 60.3329 72C60.316 72 60.299 72 60.2819 72C60.2649 72 60.2478 72 60.2307 72C60.2136 72 60.1964 72 60.1792 72C60.162 72 60.1448 72 60.1275 72C60.1102 72 60.0928 72 60.0755 72C60.0581 72 60.0406 72 60.0232 72C60.0057 72 59.9882 72 59.9706 72C59.9531 72 59.9354 72 59.9178 72C59.9001 72 59.8824 72 59.8647 72C59.847 72 59.8292 72 59.8113 72C59.7935 72 59.7756 72 59.7577 72C59.7398 72 59.7218 72 59.7038 72C59.6858 72 59.6677 72 59.6496 72C59.6315 72 59.6134 72 59.5952 72C59.577 72 59.5588 72 59.5405 72C59.5222 72 59.5039 72 59.4855 72C59.4671 72 59.4487 72 59.4302 72C59.4118 72 59.3932 72 59.3747 72C59.3561 72 59.3375 72 59.3189 72C59.3002 72 59.2815 72 59.2628 72C59.2441 72 59.2253 72 59.2064 72C59.1876 72 59.1687 72 59.1498 72C59.1309 72 59.1119 72 59.0929 72C59.0739 72 59.0548 72 59.0357 72C59.0166 72 58.9975 72 58.9783 72C58.9591 72 58.9398 72 58.9205 72C58.9012 72 58.8819 72 58.8625 72C58.8431 72 58.8237 72 58.8042 72C58.7847 72 58.7652 72 58.7456 72C58.7261 72 58.7064 72 58.6868 72C58.6671 72 58.6474 72 58.6277 72C58.6079 72 58.5881 72 58.5682 72C58.5484 72 58.5285 72 58.5086 72C58.4886 72 58.4686 72 58.4486 72C58.4285 72 58.4085 72 58.3883 72C58.3682 72 58.348 72 58.3278 72C58.3076 72 58.2873 72 58.267 72C58.2467 72 58.2263 72 58.2059 72C58.1855 72 58.165 72 58.1445 72C58.124 72 58.1034 72 58.0828 72C58.0622 72 58.0416 72 58.0209 72C58.0002 72 57.9794 72 57.9586 72C57.9378 72 57.917 72 57.8961 72C57.8752 72 57.8543 72 57.8333 72C57.8123 72 57.7913 72 57.7702 72C57.7491 72 57.728 72 57.7068 72C57.6856 72 57.6644 72 57.6431 72C57.6219 72 57.6006 72 57.5792 72C57.5578 72 57.5364 72 57.5149 72C57.4935 72 57.472 72 57.4504 72C57.4288 72 57.4072 72 57.3856 72C57.3639 72 57.3422 72 57.3205 72C57.2987 72 57.2769 72 57.2551 72C57.2332 72 57.2113 72 57.1894 72C57.1674 72 57.1454 72 57.1234 72C57.1013 72 57.0792 72 57.0571 72C57.035 72 57.0128 72 56.9905 72C56.9683 72 56.946 72 56.9237 72C56.9013 72 56.879 72 56.8565 72C56.8341 72 56.8116 72 56.7891 72C56.7665 72 56.744 72 56.7213 72C56.6987 72 56.676 72 56.6533 72C56.6306 72 56.6078 72 56.585 72C56.5621 72 56.5392 72 56.5163 72C56.4934 72 56.4704 72 56.4474 72C56.4244 72 56.4013 72 56.3782 72C56.3551 72 56.3319 72 56.3087 72C56.2854 72 56.2622 72 56.2388 72C56.2155 72 56.1921 72 56.1687 72C56.1453 72 56.1218 72 56.0983 72C56.0748 72 56.0512 72 56.0276 72C56.004 72 55.9803 72 55.9566 72C55.9329 72 55.9091 72 55.8853 72C55.8615 72 55.8376 72 55.8137 72C55.7897 72 55.7658 72 55.7418 72C55.7177 72 55.6937 72 55.6695 72C55.6454 72 55.6212 72 55.597 72C55.5728 72 55.5485 72 55.5242 72C55.4999 72 55.4755 72 55.4511 72C55.4267 72 55.4022 72 55.3777 72C55.3531 72 55.3285 72 55.3039 72C55.2793 72 55.2546 72 55.2299 72C55.2052 72 55.1804 72 55.1555 72C55.1307 72 55.1058 72 55.0809 72C55.056 72 55.031 72 55.006 72C54.9809 72 54.9558 72 54.9307 72C54.9056 72 54.8804 72 54.8551 72C54.8299 72 54.8046 72 54.7793 72C54.7539 72 54.7285 72 54.7031 72C54.6776 72 54.6521 72 54.6266 72C54.6011 72 54.5755 72 54.5498 72C54.5242 72 54.4985 72 54.4727 72C54.4469 72 54.4211 72 54.3953 72C54.3694 72 54.3435 72 54.3176 72C54.2916 72 54.2656 72 54.2395 72C54.2135 72 54.1873 72 54.1612 72C54.135 72 54.1088 72 54.0825 72C54.0562 72 54.0299 72 54.0035 72C53.9772 72 53.9507 72 53.9243 72C53.8978 72 53.8713 72 53.8447 72C53.8181 72 53.7914 72 53.7648 72C53.7381 72 53.7113 72 53.6845 72C53.6577 72 53.6309 72 53.604 72C53.5771 72 53.5501 72 53.5231 72C53.4961 72 53.4691 72 53.442 72C53.4149 72 53.3877 72 53.3605 72C53.3333 72 53.306 72 53.2787 72C53.2514 72 53.224 72 53.1966 72C53.1691 72 53.1417 72 53.1141 72C53.0866 72 53.059 72 53.0314 72C53.0037 72 52.976 72 52.9483 72C52.9206 72 52.8928 72 52.8649 72C52.8371 72 52.8092 72 52.7812 72C52.7532 72 52.7252 72 52.6972 72C52.6691 72 52.641 72 52.6128 72C52.5846 72 52.5564 72 52.5281 72C52.4999 72 52.4715 72 52.4431 72C52.4148 72 52.3863 72 52.3578 72C52.3293 72 52.3008 72 52.2722 72C52.2436 72 52.2149 72 52.1862 72C52.1575 72 52.1287 72 52.0999 72C52.0711 72 52.0422 72 52.0133 72C51.9844 72 51.9554 72 51.9264 72C51.8974 72 51.8683 72 51.8391 72C51.81 72 51.7808 72 51.7515 72C51.7223 72 51.693 72 51.6636 72C51.6343 72 51.6049 72 51.5754 72C51.5459 72 51.5164 72 51.4868 72C51.4573 72 51.4276 72 51.3979 72C51.3683 72 51.3385 72 51.3087 72C51.2789 72 51.2491 72 51.2192 72C51.1893 72 51.1593 72 51.1293 72C51.0993 72 51.0692 72 51.0391 72C51.009 72 50.9788 72 50.9486 72C50.9183 72 50.888 72 50.8577 72C50.8274 72 50.797 72 50.7665 72C50.7361 72 50.7055 72 50.675 72C50.6444 72 50.6138 72 50.5831 72C50.5524 72 50.5217 72 50.4909 72C50.4601 72 50.4293 72 50.3984 72C50.3675 72 50.3366 72 50.3056 72C50.2745 72 50.2435 72 50.2124 72C50.1812 72 50.1501 72 50.1188 72C50.0876 72 50.0563 72 50.025 72C49.9936 72 49.9622 72 49.9308 72C49.8993 72 49.8678 72 49.8363 72C49.8047 72 49.7731 72 49.7414 72C49.7097 72 49.678 72 49.6462 72C49.6144 72 49.5826 72 49.5507 72C49.5187 72 49.4868 72 49.4548 72C49.4228 72 49.3907 72 49.3586 72C49.3264 72 49.2942 72 49.262 72C49.2298 72 49.1975 72 49.1651 72C49.1328 72 49.1003 72 49.0679 72C49.0354 72 49.0029 72 48.9703 72C48.9377 72 48.9051 72 48.8724 72C48.8397 72 48.807 72 48.7741 72C48.7413 72 48.7085 72 48.6756 72C48.6426 72 48.6097 72 48.5766 72C48.5436 72 48.5105 72 48.4773 72C48.4442 72 48.411 72 48.3777 72C48.3445 72 48.3111 72 48.2778 72C48.2444 72 48.2109 72 48.1774 72C48.1439 72 48.1104 72 48.0768 72C48.0432 72 48.0095 72 47.9758 72C47.9421 72 47.9083 72 47.8744 72C47.8406 72 47.8067 72 47.7728 72C47.7388 72 47.7048 72 47.6707 72C47.6367 72 47.6025 72 47.5683 72C47.5342 72 47.4999 72 47.4656 72C47.4313 72 47.3969 72 47.3625 72C47.3281 72 47.2936 72 47.2591 72C47.2246 72 47.19 72 47.1553 72C47.1207 72 47.086 72 47.0512 72C47.0164 72 46.9816 72 46.9467 72C46.9119 72 46.8769 72 46.8419 72C46.8069 72 46.7719 72 46.7367 72C46.7016 72 46.6664 72 46.6312 72C46.596 72 46.5607 72 46.5253 72C46.49 72 46.4546 72 46.4191 72C46.3836 72 46.3481 72 46.3125 72C46.2769 72 46.2413 72 46.2056 72C46.1699 72 46.1341 72 46.0983 72C46.0625 72 46.0266 72 45.9907 72C45.9547 72 45.9187 72 45.8827 72C45.8466 72 45.8105 72 45.7743 72C45.7381 72 45.7019 72 45.6656 72C45.6293 72 45.5929 72 45.5565 72C45.5201 72 45.4837 72 45.4471 72C45.4106 72 45.374 72 45.3373 72C45.3007 72 45.264 72 45.2272 72C45.1904 72 45.1536 72 45.1167 72C45.0798 72 45.0429 72 45.0059 72C44.9688 72 44.9318 72 44.8946 72C44.8575 72 44.8203 72 44.7831 72C44.7458 72 44.7085 72 44.6711 72C44.6338 72 44.5963 72 44.5589 72C44.5214 72 44.4838 72 44.4462 72C44.4086 72 44.3709 72 44.3332 72C44.2955 72 44.2577 72 44.2198 72C44.182 72 44.1441 72 44.1061 72C44.0681 72 44.0301 72 43.992 72C43.9539 72 43.9157 72 43.8775 72C43.8393 72 43.801 72 43.7627 72C43.7244 72 43.686 72 43.6475 72C43.609 72 43.5705 72 43.5319 72C43.4934 72 43.4547 72 43.416 72C43.3773 72 43.3386 72 43.2997 72C43.2609 72 43.222 72 43.1831 72C43.1441 72 43.1051 72 43.0661 72C43.027 72 42.9879 72 42.9487 72C42.9095 72 42.8702 72 42.8309 72C42.7916 72 42.7522 72 42.7128 72C42.6734 72 42.6339 72 42.5943 72C42.5547 72 42.5151 72 42.4754 72C42.4358 72 42.396 72 42.3562 72C42.3164 72 42.2765 72 42.2366 72C42.1967 72 42.1567 72 42.1166 72C42.0766 72 42.0365 72 41.9963 72C41.9561 72 41.9159 72 41.8756 72C41.8353 72 41.7949 72 41.7545 72C41.7141 72 41.6736 72 41.633 72C41.5925 72 41.5519 72 41.5112 72C41.4705 72 41.4298 72 41.389 72C41.3482 72 41.3073 72 41.2664 72C41.2255 72 41.1845 72 41.1435 72C41.1024 72 41.0613 72 41.0201 72C40.9789 72 40.9377 72 40.8964 72C40.8551 72 40.8138 72 40.7723 72C40.7309 72 40.6894 72 40.6479 72C40.6063 72 40.5647 72 40.523 72C40.4814 72 40.4396 72 40.3978 72C40.356 72 40.3142 72 40.2722 72C40.2303 72 40.1883 72 40.1463 72C40.1042 72 40.0621 72 40.0199 72C39.9777 72 39.9355 72 39.8932 72C39.8509 72 39.8085 72 39.7661 72C39.7237 72 39.6812 72 39.6386 72C39.596 72 39.5534 72 39.5107 72C39.468 72 39.4253 72 39.3825 72C39.3397 72 39.2968 72 39.2538 72C39.2109 72 39.1679 72 39.1248 72C39.0818 72 39.0386 72 38.9954 72C38.9522 72 38.909 72 38.8657 72C38.8223 72 38.7789 72 38.7355 72C38.692 72 38.6485 72 38.6049 72C38.5614 72 38.5177 72 38.474 72C38.4303 72 38.3865 72 38.3427 72C38.2988 72 38.2549 72 38.211 72C38.167 72 38.123 72 38.0789 72C38.0348 72 37.9906 72 37.9464 72C37.9022 72 37.8579 72 37.8135 72C37.7692 72 37.7248 72 37.6803 72C37.6358 72 37.5913 72 37.5467 72C37.502 72 37.4574 72 37.4126 72C37.3679 72 37.3231 72 37.2782 72C37.2333 72 37.1884 72 37.1434 72C37.0984 72 37.0533 72 37.0082 72C36.9631 72 36.9179 72 36.8726 72C36.8273 72 36.782 72 36.7366 72C36.6912 72 36.6458 72 36.6003 72C36.5547 72 36.5091 72 36.4635 72C36.4178 72 36.3721 72 36.3263 72C36.2805 72 36.2347 72 36.1888 72C36.1429 72 36.0969 72 36.0508 72C36.0048 72 35.9587 72 35.9125 72C35.8663 72 35.8201 72 35.7738 72C35.7275 72 35.6811 72 35.6346 72C35.5882 72 35.5417 72 35.4951 72C35.4485 72 35.4019 72 35.3552 72C35.3085 72 35.2617 72 35.2149 72C35.168 72 35.1211 72 35.0742 72C35.0272 72 34.9802 72 34.9331 72C34.886 72 34.8388 72 34.7916 72C34.7443 72 34.697 72 34.6497 72C34.6023 72 34.5548 72 34.5073 72C34.4598 72 34.4123 72 34.3646 72C34.317 72 34.2693 72 34.2215 72C34.1738 72 34.1259 72 34.078 72C34.0301 72 33.9822 72 33.9341 72C33.8861 72 33.838 72 33.7898 72C33.7417 72 33.6934 72 33.6451 72C33.5968 72 33.5484 72 33.5 72V77ZM63.5 74.5V89H68.5V74.5H63.5ZM63.5006 89.0568C63.5913 93.0473 64.7167 99.0194 67.8955 104.08C71.15 109.261 76.5962 113.5 85 113.5V108.5C78.6038 108.5 74.6333 105.406 72.1295 101.42C69.55 97.3139 68.5753 92.286 68.4994 88.9432L63.5006 89.0568ZM85 113.5C85.0017 113.5 85.0033 113.5 85.005 113.5C85.0067 113.5 85.0084 113.5 85.01 113.5C85.0117 113.5 85.0134 113.5 85.0151 113.5C85.0167 113.5 85.0184 113.5 85.0201 113.5C85.0217 113.5 85.0234 113.5 85.0251 113.5C85.0268 113.5 85.0284 113.5 85.0301 113.5C85.0318 113.5 85.0334 113.5 85.0351 113.5C85.0368 113.5 85.0385 113.5 85.0401 113.5C85.0418 113.5 85.0435 113.5 85.0451 113.5C85.0468 113.5 85.0485 113.5 85.0501 113.5C85.0518 113.5 85.0535 113.5 85.0552 113.5C85.0568 113.5 85.0585 113.5 85.0602 113.5C85.0618 113.5 85.0635 113.5 85.0652 113.5C85.0669 113.5 85.0685 113.5 85.0702 113.5C85.0719 113.5 85.0735 113.5 85.0752 113.5C85.0769 113.5 85.0785 113.5 85.0802 113.5C85.0819 113.5 85.0836 113.5 85.0852 113.5C85.0869 113.5 85.0886 113.5 85.0902 113.5C85.0919 113.5 85.0936 113.5 85.0952 113.5C85.0969 113.5 85.0986 113.5 85.1003 113.5C85.1019 113.5 85.1036 113.5 85.1053 113.5C85.1069 113.5 85.1086 113.5 85.1103 113.5C85.1119 113.5 85.1136 113.5 85.1153 113.5C85.1169 113.5 85.1186 113.5 85.1203 113.5C85.1219 113.5 85.1236 113.5 85.1253 113.5C85.1269 113.5 85.1286 113.5 85.1303 113.5C85.132 113.5 85.1336 113.5 85.1353 113.5C85.137 113.5 85.1386 113.5 85.1403 113.5C85.142 113.5 85.1436 113.5 85.1453 113.5C85.147 113.5 85.1486 113.5 85.1503 113.5C85.152 113.5 85.1536 113.5 85.1553 113.5C85.157 113.5 85.1586 113.5 85.1603 113.5C85.162 113.5 85.1636 113.5 85.1653 113.5C85.167 113.5 85.1686 113.5 85.1703 113.5C85.172 113.5 85.1736 113.5 85.1753 113.5C85.177 113.5 85.1786 113.5 85.1803 113.5C85.182 113.5 85.1836 113.5 85.1853 113.5C85.187 113.5 85.1886 113.5 85.1903 113.5C85.192 113.5 85.1936 113.5 85.1953 113.5C85.197 113.5 85.1986 113.5 85.2003 113.5C85.202 113.5 85.2036 113.5 85.2053 113.5C85.207 113.5 85.2086 113.5 85.2103 113.5C85.212 113.5 85.2136 113.5 85.2153 113.5C85.2169 113.5 85.2186 113.5 85.2203 113.5C85.2219 113.5 85.2236 113.5 85.2253 113.5C85.2269 113.5 85.2286 113.5 85.2303 113.5C85.2319 113.5 85.2336 113.5 85.2353 113.5C85.2369 113.5 85.2386 113.5 85.2402 113.5C85.2419 113.5 85.2436 113.5 85.2452 113.5C85.2469 113.5 85.2486 113.5 85.2502 113.5C85.2519 113.5 85.2536 113.5 85.2552 113.5C85.2569 113.5 85.2586 113.5 85.2602 113.5C85.2619 113.5 85.2635 113.5 85.2652 113.5C85.2669 113.5 85.2685 113.5 85.2702 113.5C85.2719 113.5 85.2735 113.5 85.2752 113.5C85.2768 113.5 85.2785 113.5 85.2802 113.5C85.2818 113.5 85.2835 113.5 85.2852 113.5C85.2868 113.5 85.2885 113.5 85.2902 113.5C85.2918 113.5 85.2935 113.5 85.2951 113.5C85.2968 113.5 85.2985 113.5 85.3001 113.5C85.3018 113.5 85.3035 113.5 85.3051 113.5C85.3068 113.5 85.3084 113.5 85.3101 113.5C85.3118 113.5 85.3134 113.5 85.3151 113.5C85.3167 113.5 85.3184 113.5 85.3201 113.5C85.3217 113.5 85.3234 113.5 85.3251 113.5C85.3267 113.5 85.3284 113.5 85.33 113.5C85.3317 113.5 85.3334 113.5 85.335 113.5C85.3367 113.5 85.3383 113.5 85.34 113.5C85.3417 113.5 85.3433 113.5 85.345 113.5C85.3466 113.5 85.3483 113.5 85.35 113.5C85.3516 113.5 85.3533 113.5 85.3549 113.5C85.3566 113.5 85.3583 113.5 85.3599 113.5C85.3616 113.5 85.3633 113.5 85.3649 113.5C85.3666 113.5 85.3682 113.5 85.3699 113.5C85.3715 113.5 85.3732 113.5 85.3749 113.5C85.3765 113.5 85.3782 113.5 85.3798 113.5C85.3815 113.5 85.3832 113.5 85.3848 113.5C85.3865 113.5 85.3881 113.5 85.3898 113.5C85.3915 113.5 85.3931 113.5 85.3948 113.5C85.3964 113.5 85.3981 113.5 85.3998 113.5C85.4014 113.5 85.4031 113.5 85.4047 113.5C85.4064 113.5 85.4081 113.5 85.4097 113.5C85.4114 113.5 85.413 113.5 85.4147 113.5C85.4163 113.5 85.418 113.5 85.4197 113.5C85.4213 113.5 85.423 113.5 85.4246 113.5C85.4263 113.5 85.4279 113.5 85.4296 113.5C85.4313 113.5 85.4329 113.5 85.4346 113.5C85.4362 113.5 85.4379 113.5 85.4395 113.5C85.4412 113.5 85.4429 113.5 85.4445 113.5C85.4462 113.5 85.4478 113.5 85.4495 113.5C85.4511 113.5 85.4528 113.5 85.4545 113.5C85.4561 113.5 85.4578 113.5 85.4594 113.5C85.4611 113.5 85.4627 113.5 85.4644 113.5C85.4661 113.5 85.4677 113.5 85.4694 113.5C85.471 113.5 85.4727 113.5 85.4743 113.5C85.476 113.5 85.4777 113.5 85.4793 113.5C85.481 113.5 85.4826 113.5 85.4843 113.5C85.4859 113.5 85.4876 113.5 85.4892 113.5C85.4909 113.5 85.4926 113.5 85.4942 113.5C85.4959 113.5 85.4975 113.5 85.4992 113.5C85.5008 113.5 85.5025 113.5 85.5041 113.5C85.5058 113.5 85.5075 113.5 85.5091 113.5C85.5108 113.5 85.5124 113.5 85.5141 113.5C85.5157 113.5 85.5174 113.5 85.519 113.5C85.5207 113.5 85.5223 113.5 85.524 113.5C85.5257 113.5 85.5273 113.5 85.529 113.5C85.5306 113.5 85.5323 113.5 85.5339 113.5C85.5356 113.5 85.5372 113.5 85.5389 113.5C85.5405 113.5 85.5422 113.5 85.5438 113.5C85.5455 113.5 85.5472 113.5 85.5488 113.5C85.5505 113.5 85.5521 113.5 85.5538 113.5C85.5554 113.5 85.5571 113.5 85.5587 113.5C85.5604 113.5 85.562 113.5 85.5637 113.5C85.5653 113.5 85.567 113.5 85.5686 113.5C85.5703 113.5 85.572 113.5 85.5736 113.5C85.5753 113.5 85.5769 113.5 85.5786 113.5C85.5802 113.5 85.5819 113.5 85.5835 113.5C85.5852 113.5 85.5868 113.5 85.5885 113.5C85.5901 113.5 85.5918 113.5 85.5934 113.5C85.5951 113.5 85.5967 113.5 85.5984 113.5C85.6 113.5 85.6017 113.5 85.6033 113.5C85.605 113.5 85.6066 113.5 85.6083 113.5C85.6099 113.5 85.6116 113.5 85.6133 113.5C85.6149 113.5 85.6166 113.5 85.6182 113.5C85.6199 113.5 85.6215 113.5 85.6232 113.5C85.6248 113.5 85.6265 113.5 85.6281 113.5C85.6298 113.5 85.6314 113.5 85.6331 113.5C85.6347 113.5 85.6364 113.5 85.638 113.5C85.6397 113.5 85.6413 113.5 85.643 113.5C85.6446 113.5 85.6463 113.5 85.6479 113.5C85.6496 113.5 85.6512 113.5 85.6529 113.5C85.6545 113.5 85.6562 113.5 85.6578 113.5C85.6595 113.5 85.6611 113.5 85.6628 113.5C85.6644 113.5 85.6661 113.5 85.6677 113.5C85.6694 113.5 85.671 113.5 85.6727 113.5C85.6743 113.5 85.676 113.5 85.6776 113.5C85.6793 113.5 85.6809 113.5 85.6826 113.5C85.6842 113.5 85.6859 113.5 85.6875 113.5C85.6892 113.5 85.6908 113.5 85.6925 113.5C85.6941 113.5 85.6957 113.5 85.6974 113.5C85.699 113.5 85.7007 113.5 85.7023 113.5C85.704 113.5 85.7056 113.5 85.7073 113.5C85.7089 113.5 85.7106 113.5 85.7122 113.5C85.7139 113.5 85.7155 113.5 85.7172 113.5C85.7188 113.5 85.7205 113.5 85.7221 113.5C85.7238 113.5 85.7254 113.5 85.7271 113.5C85.7287 113.5 85.7304 113.5 85.732 113.5C85.7336 113.5 85.7353 113.5 85.7369 113.5C85.7386 113.5 85.7402 113.5 85.7419 113.5C85.7435 113.5 85.7452 113.5 85.7468 113.5C85.7485 113.5 85.7501 113.5 85.7518 113.5C85.7534 113.5 85.7551 113.5 85.7567 113.5C85.7583 113.5 85.76 113.5 85.7616 113.5C85.7633 113.5 85.7649 113.5 85.7666 113.5C85.7682 113.5 85.7699 113.5 85.7715 113.5C85.7732 113.5 85.7748 113.5 85.7765 113.5C85.7781 113.5 85.7797 113.5 85.7814 113.5C85.783 113.5 85.7847 113.5 85.7863 113.5C85.788 113.5 85.7896 113.5 85.7913 113.5C85.7929 113.5 85.7945 113.5 85.7962 113.5C85.7978 113.5 85.7995 113.5 85.8011 113.5C85.8028 113.5 85.8044 113.5 85.8061 113.5C85.8077 113.5 85.8093 113.5 85.811 113.5C85.8126 113.5 85.8143 113.5 85.8159 113.5C85.8176 113.5 85.8192 113.5 85.8209 113.5C85.8225 113.5 85.8242 113.5 85.8258 113.5C85.8274 113.5 85.8291 113.5 85.8307 113.5C85.8324 113.5 85.834 113.5 85.8357 113.5C85.8373 113.5 85.8389 113.5 85.8406 113.5C85.8422 113.5 85.8439 113.5 85.8455 113.5C85.8472 113.5 85.8488 113.5 85.8504 113.5C85.8521 113.5 85.8537 113.5 85.8554 113.5C85.857 113.5 85.8587 113.5 85.8603 113.5C85.8619 113.5 85.8636 113.5 85.8652 113.5C85.8669 113.5 85.8685 113.5 85.8702 113.5C85.8718 113.5 85.8734 113.5 85.8751 113.5C85.8767 113.5 85.8784 113.5 85.88 113.5C85.8817 113.5 85.8833 113.5 85.8849 113.5C85.8866 113.5 85.8882 113.5 85.8899 113.5C85.8915 113.5 85.8931 113.5 85.8948 113.5C85.8964 113.5 85.8981 113.5 85.8997 113.5C85.9014 113.5 85.903 113.5 85.9046 113.5C85.9063 113.5 85.9079 113.5 85.9096 113.5C85.9112 113.5 85.9128 113.5 85.9145 113.5C85.9161 113.5 85.9178 113.5 85.9194 113.5C85.921 113.5 85.9227 113.5 85.9243 113.5C85.926 113.5 85.9276 113.5 85.9292 113.5C85.9309 113.5 85.9325 113.5 85.9342 113.5C85.9358 113.5 85.9374 113.5 85.9391 113.5C85.9407 113.5 85.9424 113.5 85.944 113.5C85.9456 113.5 85.9473 113.5 85.9489 113.5C85.9506 113.5 85.9522 113.5 85.9538 113.5C85.9555 113.5 85.9571 113.5 85.9588 113.5C85.9604 113.5 85.962 113.5 85.9637 113.5C85.9653 113.5 85.967 113.5 85.9686 113.5C85.9702 113.5 85.9719 113.5 85.9735 113.5C85.9752 113.5 85.9768 113.5 85.9784 113.5C85.9801 113.5 85.9817 113.5 85.9833 113.5C85.985 113.5 85.9866 113.5 85.9883 113.5C85.9899 113.5 85.9915 113.5 85.9932 113.5C85.9948 113.5 85.9964 113.5 85.9981 113.5C85.9997 113.5 86.0014 113.5 86.003 113.5C86.0046 113.5 86.0063 113.5 86.0079 113.5C86.0096 113.5 86.0112 113.5 86.0128 113.5C86.0145 113.5 86.0161 113.5 86.0177 113.5C86.0194 113.5 86.021 113.5 86.0227 113.5C86.0243 113.5 86.0259 113.5 86.0276 113.5C86.0292 113.5 86.0308 113.5 86.0325 113.5C86.0341 113.5 86.0357 113.5 86.0374 113.5C86.039 113.5 86.0406 113.5 86.0423 113.5C86.0439 113.5 86.0456 113.5 86.0472 113.5C86.0488 113.5 86.0505 113.5 86.0521 113.5C86.0537 113.5 86.0554 113.5 86.057 113.5C86.0586 113.5 86.0603 113.5 86.0619 113.5C86.0636 113.5 86.0652 113.5 86.0668 113.5C86.0685 113.5 86.0701 113.5 86.0717 113.5C86.0734 113.5 86.075 113.5 86.0766 113.5C86.0783 113.5 86.0799 113.5 86.0815 113.5C86.0832 113.5 86.0848 113.5 86.0864 113.5C86.0881 113.5 86.0897 113.5 86.0914 113.5C86.093 113.5 86.0946 113.5 86.0963 113.5C86.0979 113.5 86.0995 113.5 86.1012 113.5C86.1028 113.5 86.1044 113.5 86.1061 113.5C86.1077 113.5 86.1093 113.5 86.111 113.5C86.1126 113.5 86.1142 113.5 86.1159 113.5C86.1175 113.5 86.1191 113.5 86.1208 113.5C86.1224 113.5 86.124 113.5 86.1257 113.5C86.1273 113.5 86.1289 113.5 86.1306 113.5C86.1322 113.5 86.1338 113.5 86.1355 113.5C86.1371 113.5 86.1387 113.5 86.1404 113.5C86.142 113.5 86.1436 113.5 86.1453 113.5C86.1469 113.5 86.1485 113.5 86.1502 113.5C86.1518 113.5 86.1534 113.5 86.1551 113.5C86.1567 113.5 86.1583 113.5 86.16 113.5C86.1616 113.5 86.1632 113.5 86.1648 113.5C86.1665 113.5 86.1681 113.5 86.1697 113.5C86.1714 113.5 86.173 113.5 86.1746 113.5C86.1763 113.5 86.1779 113.5 86.1795 113.5C86.1812 113.5 86.1828 113.5 86.1844 113.5C86.1861 113.5 86.1877 113.5 86.1893 113.5C86.191 113.5 86.1926 113.5 86.1942 113.5C86.1958 113.5 86.1975 113.5 86.1991 113.5C86.2007 113.5 86.2024 113.5 86.204 113.5C86.2056 113.5 86.2073 113.5 86.2089 113.5C86.2105 113.5 86.2122 113.5 86.2138 113.5C86.2154 113.5 86.217 113.5 86.2187 113.5C86.2203 113.5 86.2219 113.5 86.2236 113.5C86.2252 113.5 86.2268 113.5 86.2285 113.5C86.2301 113.5 86.2317 113.5 86.2333 113.5C86.235 113.5 86.2366 113.5 86.2382 113.5C86.2399 113.5 86.2415 113.5 86.2431 113.5C86.2448 113.5 86.2464 113.5 86.248 113.5C86.2496 113.5 86.2513 113.5 86.2529 113.5C86.2545 113.5 86.2561 113.5 86.2578 113.5C86.2594 113.5 86.261 113.5 86.2627 113.5C86.2643 113.5 86.2659 113.5 86.2676 113.5C86.2692 113.5 86.2708 113.5 86.2724 113.5C86.2741 113.5 86.2757 113.5 86.2773 113.5C86.279 113.5 86.2806 113.5 86.2822 113.5C86.2838 113.5 86.2855 113.5 86.2871 113.5C86.2887 113.5 86.2903 113.5 86.292 113.5C86.2936 113.5 86.2952 113.5 86.2969 113.5C86.2985 113.5 86.3001 113.5 86.3017 113.5C86.3034 113.5 86.305 113.5 86.3066 113.5C86.3082 113.5 86.3099 113.5 86.3115 113.5C86.3131 113.5 86.3148 113.5 86.3164 113.5C86.318 113.5 86.3196 113.5 86.3213 113.5C86.3229 113.5 86.3245 113.5 86.3261 113.5C86.3278 113.5 86.3294 113.5 86.331 113.5C86.3326 113.5 86.3343 113.5 86.3359 113.5C86.3375 113.5 86.3391 113.5 86.3408 113.5C86.3424 113.5 86.344 113.5 86.3456 113.5C86.3473 113.5 86.3489 113.5 86.3505 113.5C86.3521 113.5 86.3538 113.5 86.3554 113.5C86.357 113.5 86.3587 113.5 86.3603 113.5C86.3619 113.5 86.3635 113.5 86.3652 113.5C86.3668 113.5 86.3684 113.5 86.37 113.5C86.3717 113.5 86.3733 113.5 86.3749 113.5C86.3765 113.5 86.3782 113.5 86.3798 113.5C86.3814 113.5 86.383 113.5 86.3847 113.5C86.3863 113.5 86.3879 113.5 86.3895 113.5C86.3911 113.5 86.3928 113.5 86.3944 113.5C86.396 113.5 86.3976 113.5 86.3993 113.5C86.4009 113.5 86.4025 113.5 86.4041 113.5C86.4058 113.5 86.4074 113.5 86.409 113.5C86.4106 113.5 86.4123 113.5 86.4139 113.5C86.4155 113.5 86.4171 113.5 86.4187 113.5C86.4204 113.5 86.422 113.5 86.4236 113.5C86.4252 113.5 86.4269 113.5 86.4285 113.5C86.4301 113.5 86.4317 113.5 86.4333 113.5C86.435 113.5 86.4366 113.5 86.4382 113.5C86.4398 113.5 86.4415 113.5 86.4431 113.5C86.4447 113.5 86.4463 113.5 86.448 113.5C86.4496 113.5 86.4512 113.5 86.4528 113.5C86.4544 113.5 86.4561 113.5 86.4577 113.5C86.4593 113.5 86.4609 113.5 86.4625 113.5C86.4642 113.5 86.4658 113.5 86.4674 113.5C86.469 113.5 86.4706 113.5 86.4723 113.5C86.4739 113.5 86.4755 113.5 86.4771 113.5C86.4788 113.5 86.4804 113.5 86.482 113.5C86.4836 113.5 86.4852 113.5 86.4869 113.5C86.4885 113.5 86.4901 113.5 86.4917 113.5C86.4933 113.5 86.495 113.5 86.4966 113.5C86.4982 113.5 86.4998 113.5 86.5014 113.5C86.5031 113.5 86.5047 113.5 86.5063 113.5C86.5079 113.5 86.5095 113.5 86.5112 113.5C86.5128 113.5 86.5144 113.5 86.516 113.5C86.5176 113.5 86.5193 113.5 86.5209 113.5C86.5225 113.5 86.5241 113.5 86.5257 113.5C86.5274 113.5 86.529 113.5 86.5306 113.5C86.5322 113.5 86.5338 113.5 86.5355 113.5C86.5371 113.5 86.5387 113.5 86.5403 113.5C86.5419 113.5 86.5435 113.5 86.5452 113.5C86.5468 113.5 86.5484 113.5 86.55 113.5C86.5516 113.5 86.5533 113.5 86.5549 113.5C86.5565 113.5 86.5581 113.5 86.5597 113.5C86.5613 113.5 86.563 113.5 86.5646 113.5C86.5662 113.5 86.5678 113.5 86.5694 113.5C86.5711 113.5 86.5727 113.5 86.5743 113.5C86.5759 113.5 86.5775 113.5 86.5791 113.5C86.5808 113.5 86.5824 113.5 86.584 113.5C86.5856 113.5 86.5872 113.5 86.5889 113.5C86.5905 113.5 86.5921 113.5 86.5937 113.5C86.5953 113.5 86.5969 113.5 86.5985 113.5C86.6002 113.5 86.6018 113.5 86.6034 113.5C86.605 113.5 86.6066 113.5 86.6083 113.5C86.6099 113.5 86.6115 113.5 86.6131 113.5C86.6147 113.5 86.6163 113.5 86.618 113.5C86.6196 113.5 86.6212 113.5 86.6228 113.5C86.6244 113.5 86.626 113.5 86.6276 113.5C86.6293 113.5 86.6309 113.5 86.6325 113.5C86.6341 113.5 86.6357 113.5 86.6373 113.5C86.6389 113.5 86.6406 113.5 86.6422 113.5C86.6438 113.5 86.6454 113.5 86.647 113.5C86.6486 113.5 86.6503 113.5 86.6519 113.5C86.6535 113.5 86.6551 113.5 86.6567 113.5C86.6583 113.5 86.6599 113.5 86.6616 113.5C86.6632 113.5 86.6648 113.5 86.6664 113.5C86.668 113.5 86.6696 113.5 86.6712 113.5C86.6729 113.5 86.6745 113.5 86.6761 113.5C86.6777 113.5 86.6793 113.5 86.6809 113.5C86.6825 113.5 86.6842 113.5 86.6858 113.5C86.6874 113.5 86.689 113.5 86.6906 113.5C86.6922 113.5 86.6938 113.5 86.6954 113.5C86.6971 113.5 86.6987 113.5 86.7003 113.5C86.7019 113.5 86.7035 113.5 86.7051 113.5C86.7067 113.5 86.7084 113.5 86.71 113.5C86.7116 113.5 86.7132 113.5 86.7148 113.5C86.7164 113.5 86.718 113.5 86.7196 113.5C86.7213 113.5 86.7229 113.5 86.7245 113.5C86.7261 113.5 86.7277 113.5 86.7293 113.5C86.7309 113.5 86.7325 113.5 86.7342 113.5C86.7358 113.5 86.7374 113.5 86.739 113.5C86.7406 113.5 86.7422 113.5 86.7438 113.5C86.7454 113.5 86.747 113.5 86.7487 113.5C86.7503 113.5 86.7519 113.5 86.7535 113.5C86.7551 113.5 86.7567 113.5 86.7583 113.5C86.7599 113.5 86.7615 113.5 86.7632 113.5C86.7648 113.5 86.7664 113.5 86.768 113.5C86.7696 113.5 86.7712 113.5 86.7728 113.5C86.7744 113.5 86.776 113.5 86.7776 113.5C86.7793 113.5 86.7809 113.5 86.7825 113.5C86.7841 113.5 86.7857 113.5 86.7873 113.5C86.7889 113.5 86.7905 113.5 86.7921 113.5C86.7937 113.5 86.7954 113.5 86.797 113.5C86.7986 113.5 86.8002 113.5 86.8018 113.5C86.8034 113.5 86.805 113.5 86.8066 113.5C86.8082 113.5 86.8098 113.5 86.8115 113.5C86.8131 113.5 86.8147 113.5 86.8163 113.5C86.8179 113.5 86.8195 113.5 86.8211 113.5C86.8227 113.5 86.8243 113.5 86.8259 113.5C86.8275 113.5 86.8292 113.5 86.8308 113.5C86.8324 113.5 86.834 113.5 86.8356 113.5C86.8372 113.5 86.8388 113.5 86.8404 113.5C86.842 113.5 86.8436 113.5 86.8452 113.5C86.8468 113.5 86.8484 113.5 86.8501 113.5C86.8517 113.5 86.8533 113.5 86.8549 113.5C86.8565 113.5 86.8581 113.5 86.8597 113.5C86.8613 113.5 86.8629 113.5 86.8645 113.5C86.8661 113.5 86.8677 113.5 86.8693 113.5C86.871 113.5 86.8726 113.5 86.8742 113.5C86.8758 113.5 86.8774 113.5 86.879 113.5C86.8806 113.5 86.8822 113.5 86.8838 113.5C86.8854 113.5 86.887 113.5 86.8886 113.5C86.8902 113.5 86.8918 113.5 86.8934 113.5C86.8951 113.5 86.8967 113.5 86.8983 113.5C86.8999 113.5 86.9015 113.5 86.9031 113.5C86.9047 113.5 86.9063 113.5 86.9079 113.5C86.9095 113.5 86.9111 113.5 86.9127 113.5C86.9143 113.5 86.9159 113.5 86.9175 113.5C86.9191 113.5 86.9207 113.5 86.9223 113.5C86.924 113.5 86.9256 113.5 86.9272 113.5C86.9288 113.5 86.9304 113.5 86.932 113.5C86.9336 113.5 86.9352 113.5 86.9368 113.5C86.9384 113.5 86.94 113.5 86.9416 113.5C86.9432 113.5 86.9448 113.5 86.9464 113.5C86.948 113.5 86.9496 113.5 86.9512 113.5C86.9528 113.5 86.9544 113.5 86.956 113.5C86.9576 113.5 86.9593 113.5 86.9609 113.5C86.9625 113.5 86.9641 113.5 86.9657 113.5C86.9673 113.5 86.9689 113.5 86.9705 113.5C86.9721 113.5 86.9737 113.5 86.9753 113.5C86.9769 113.5 86.9785 113.5 86.9801 113.5C86.9817 113.5 86.9833 113.5 86.9849 113.5C86.9865 113.5 86.9881 113.5 86.9897 113.5C86.9913 113.5 86.9929 113.5 86.9945 113.5C86.9961 113.5 86.9977 113.5 86.9993 113.5C87.0009 113.5 87.0025 113.5 87.0041 113.5C87.0057 113.5 87.0073 113.5 87.0089 113.5C87.0105 113.5 87.0121 113.5 87.0137 113.5C87.0154 113.5 87.017 113.5 87.0186 113.5C87.0202 113.5 87.0218 113.5 87.0234 113.5C87.025 113.5 87.0266 113.5 87.0282 113.5C87.0298 113.5 87.0314 113.5 87.033 113.5C87.0346 113.5 87.0362 113.5 87.0378 113.5C87.0394 113.5 87.041 113.5 87.0426 113.5C87.0442 113.5 87.0458 113.5 87.0474 113.5C87.049 113.5 87.0506 113.5 87.0522 113.5C87.0538 113.5 87.0554 113.5 87.057 113.5C87.0586 113.5 87.0602 113.5 87.0618 113.5C87.0634 113.5 87.065 113.5 87.0666 113.5C87.0682 113.5 87.0698 113.5 87.0714 113.5C87.073 113.5 87.0746 113.5 87.0762 113.5C87.0778 113.5 87.0794 113.5 87.081 113.5C87.0826 113.5 87.0842 113.5 87.0858 113.5C87.0874 113.5 87.089 113.5 87.0906 113.5C87.0922 113.5 87.0938 113.5 87.0954 113.5C87.097 113.5 87.0986 113.5 87.1002 113.5C87.1018 113.5 87.1034 113.5 87.105 113.5C87.1066 113.5 87.1082 113.5 87.1098 113.5C87.1114 113.5 87.113 113.5 87.1146 113.5C87.1162 113.5 87.1178 113.5 87.1194 113.5C87.1209 113.5 87.1225 113.5 87.1241 113.5C87.1257 113.5 87.1273 113.5 87.1289 113.5C87.1305 113.5 87.1321 113.5 87.1337 113.5C87.1353 113.5 87.1369 113.5 87.1385 113.5C87.1401 113.5 87.1417 113.5 87.1433 113.5C87.1449 113.5 87.1465 113.5 87.1481 113.5C87.1497 113.5 87.1513 113.5 87.1529 113.5C87.1545 113.5 87.1561 113.5 87.1577 113.5C87.1593 113.5 87.1609 113.5 87.1625 113.5C87.1641 113.5 87.1657 113.5 87.1673 113.5C87.1689 113.5 87.1705 113.5 87.1721 113.5C87.1737 113.5 87.1752 113.5 87.1768 113.5C87.1784 113.5 87.18 113.5 87.1816 113.5C87.1832 113.5 87.1848 113.5 87.1864 113.5C87.188 113.5 87.1896 113.5 87.1912 113.5C87.1928 113.5 87.1944 113.5 87.196 113.5C87.1976 113.5 87.1992 113.5 87.2008 113.5C87.2024 113.5 87.204 113.5 87.2056 113.5C87.2072 113.5 87.2088 113.5 87.2104 113.5C87.2119 113.5 87.2135 113.5 87.2151 113.5C87.2167 113.5 87.2183 113.5 87.2199 113.5C87.2215 113.5 87.2231 113.5 87.2247 113.5C87.2263 113.5 87.2279 113.5 87.2295 113.5C87.2311 113.5 87.2327 113.5 87.2343 113.5C87.2359 113.5 87.2375 113.5 87.2391 113.5C87.2406 113.5 87.2422 113.5 87.2438 113.5C87.2454 113.5 87.247 113.5 87.2486 113.5C87.2502 113.5 87.2518 113.5 87.2534 113.5C87.255 113.5 87.2566 113.5 87.2582 113.5C87.2598 113.5 87.2614 113.5 87.2629 113.5C87.2645 113.5 87.2661 113.5 87.2677 113.5C87.2693 113.5 87.2709 113.5 87.2725 113.5C87.2741 113.5 87.2757 113.5 87.2773 113.5C87.2789 113.5 87.2805 113.5 87.2821 113.5C87.2837 113.5 87.2852 113.5 87.2868 113.5C87.2884 113.5 87.29 113.5 87.2916 113.5C87.2932 113.5 87.2948 113.5 87.2964 113.5C87.298 113.5 87.2996 113.5 87.3012 113.5C87.3028 113.5 87.3044 113.5 87.3059 113.5C87.3075 113.5 87.3091 113.5 87.3107 113.5C87.3123 113.5 87.3139 113.5 87.3155 113.5C87.3171 113.5 87.3187 113.5 87.3203 113.5C87.3219 113.5 87.3234 113.5 87.325 113.5C87.3266 113.5 87.3282 113.5 87.3298 113.5C87.3314 113.5 87.333 113.5 87.3346 113.5C87.3362 113.5 87.3378 113.5 87.3393 113.5C87.3409 113.5 87.3425 113.5 87.3441 113.5C87.3457 113.5 87.3473 113.5 87.3489 113.5C87.3505 113.5 87.3521 113.5 87.3537 113.5C87.3552 113.5 87.3568 113.5 87.3584 113.5C87.36 113.5 87.3616 113.5 87.3632 113.5C87.3648 113.5 87.3664 113.5 87.368 113.5C87.3696 113.5 87.3711 113.5 87.3727 113.5C87.3743 113.5 87.3759 113.5 87.3775 113.5C87.3791 113.5 87.3807 113.5 87.3823 113.5C87.3839 113.5 87.3854 113.5 87.387 113.5C87.3886 113.5 87.3902 113.5 87.3918 113.5C87.3934 113.5 87.395 113.5 87.3966 113.5C87.3981 113.5 87.3997 113.5 87.4013 113.5C87.4029 113.5 87.4045 113.5 87.4061 113.5C87.4077 113.5 87.4093 113.5 87.4109 113.5C87.4124 113.5 87.414 113.5 87.4156 113.5C87.4172 113.5 87.4188 113.5 87.4204 113.5C87.422 113.5 87.4236 113.5 87.4251 113.5C87.4267 113.5 87.4283 113.5 87.4299 113.5C87.4315 113.5 87.4331 113.5 87.4347 113.5C87.4362 113.5 87.4378 113.5 87.4394 113.5C87.441 113.5 87.4426 113.5 87.4442 113.5C87.4458 113.5 87.4473 113.5 87.4489 113.5C87.4505 113.5 87.4521 113.5 87.4537 113.5C87.4553 113.5 87.4569 113.5 87.4585 113.5C87.46 113.5 87.4616 113.5 87.4632 113.5C87.4648 113.5 87.4664 113.5 87.468 113.5C87.4696 113.5 87.4711 113.5 87.4727 113.5C87.4743 113.5 87.4759 113.5 87.4775 113.5C87.4791 113.5 87.4807 113.5 87.4822 113.5C87.4838 113.5 87.4854 113.5 87.487 113.5C87.4886 113.5 87.4902 113.5 87.4917 113.5C87.4933 113.5 87.4949 113.5 87.4965 113.5C87.4981 113.5 87.4997 113.5 87.5013 113.5V108.5C87.4997 108.5 87.4981 108.5 87.4965 108.5C87.4949 108.5 87.4933 108.5 87.4917 108.5C87.4902 108.5 87.4886 108.5 87.487 108.5C87.4854 108.5 87.4838 108.5 87.4822 108.5C87.4807 108.5 87.4791 108.5 87.4775 108.5C87.4759 108.5 87.4743 108.5 87.4727 108.5C87.4711 108.5 87.4696 108.5 87.468 108.5C87.4664 108.5 87.4648 108.5 87.4632 108.5C87.4616 108.5 87.46 108.5 87.4585 108.5C87.4569 108.5 87.4553 108.5 87.4537 108.5C87.4521 108.5 87.4505 108.5 87.4489 108.5C87.4473 108.5 87.4458 108.5 87.4442 108.5C87.4426 108.5 87.441 108.5 87.4394 108.5C87.4378 108.5 87.4362 108.5 87.4347 108.5C87.4331 108.5 87.4315 108.5 87.4299 108.5C87.4283 108.5 87.4267 108.5 87.4251 108.5C87.4236 108.5 87.422 108.5 87.4204 108.5C87.4188 108.5 87.4172 108.5 87.4156 108.5C87.414 108.5 87.4124 108.5 87.4109 108.5C87.4093 108.5 87.4077 108.5 87.4061 108.5C87.4045 108.5 87.4029 108.5 87.4013 108.5C87.3997 108.5 87.3981 108.5 87.3966 108.5C87.395 108.5 87.3934 108.5 87.3918 108.5C87.3902 108.5 87.3886 108.5 87.387 108.5C87.3854 108.5 87.3839 108.5 87.3823 108.5C87.3807 108.5 87.3791 108.5 87.3775 108.5C87.3759 108.5 87.3743 108.5 87.3727 108.5C87.3711 108.5 87.3696 108.5 87.368 108.5C87.3664 108.5 87.3648 108.5 87.3632 108.5C87.3616 108.5 87.36 108.5 87.3584 108.5C87.3568 108.5 87.3552 108.5 87.3537 108.5C87.3521 108.5 87.3505 108.5 87.3489 108.5C87.3473 108.5 87.3457 108.5 87.3441 108.5C87.3425 108.5 87.3409 108.5 87.3393 108.5C87.3378 108.5 87.3362 108.5 87.3346 108.5C87.333 108.5 87.3314 108.5 87.3298 108.5C87.3282 108.5 87.3266 108.5 87.325 108.5C87.3234 108.5 87.3219 108.5 87.3203 108.5C87.3187 108.5 87.3171 108.5 87.3155 108.5C87.3139 108.5 87.3123 108.5 87.3107 108.5C87.3091 108.5 87.3075 108.5 87.3059 108.5C87.3044 108.5 87.3028 108.5 87.3012 108.5C87.2996 108.5 87.298 108.5 87.2964 108.5C87.2948 108.5 87.2932 108.5 87.2916 108.5C87.29 108.5 87.2884 108.5 87.2868 108.5C87.2852 108.5 87.2837 108.5 87.2821 108.5C87.2805 108.5 87.2789 108.5 87.2773 108.5C87.2757 108.5 87.2741 108.5 87.2725 108.5C87.2709 108.5 87.2693 108.5 87.2677 108.5C87.2661 108.5 87.2645 108.5 87.2629 108.5C87.2614 108.5 87.2598 108.5 87.2582 108.5C87.2566 108.5 87.255 108.5 87.2534 108.5C87.2518 108.5 87.2502 108.5 87.2486 108.5C87.247 108.5 87.2454 108.5 87.2438 108.5C87.2422 108.5 87.2406 108.5 87.2391 108.5C87.2375 108.5 87.2359 108.5 87.2343 108.5C87.2327 108.5 87.2311 108.5 87.2295 108.5C87.2279 108.5 87.2263 108.5 87.2247 108.5C87.2231 108.5 87.2215 108.5 87.2199 108.5C87.2183 108.5 87.2167 108.5 87.2151 108.5C87.2135 108.5 87.2119 108.5 87.2104 108.5C87.2088 108.5 87.2072 108.5 87.2056 108.5C87.204 108.5 87.2024 108.5 87.2008 108.5C87.1992 108.5 87.1976 108.5 87.196 108.5C87.1944 108.5 87.1928 108.5 87.1912 108.5C87.1896 108.5 87.188 108.5 87.1864 108.5C87.1848 108.5 87.1832 108.5 87.1816 108.5C87.18 108.5 87.1784 108.5 87.1768 108.5C87.1752 108.5 87.1737 108.5 87.1721 108.5C87.1705 108.5 87.1689 108.5 87.1673 108.5C87.1657 108.5 87.1641 108.5 87.1625 108.5C87.1609 108.5 87.1593 108.5 87.1577 108.5C87.1561 108.5 87.1545 108.5 87.1529 108.5C87.1513 108.5 87.1497 108.5 87.1481 108.5C87.1465 108.5 87.1449 108.5 87.1433 108.5C87.1417 108.5 87.1401 108.5 87.1385 108.5C87.1369 108.5 87.1353 108.5 87.1337 108.5C87.1321 108.5 87.1305 108.5 87.1289 108.5C87.1273 108.5 87.1257 108.5 87.1241 108.5C87.1225 108.5 87.1209 108.5 87.1194 108.5C87.1178 108.5 87.1162 108.5 87.1146 108.5C87.113 108.5 87.1114 108.5 87.1098 108.5C87.1082 108.5 87.1066 108.5 87.105 108.5C87.1034 108.5 87.1018 108.5 87.1002 108.5C87.0986 108.5 87.097 108.5 87.0954 108.5C87.0938 108.5 87.0922 108.5 87.0906 108.5C87.089 108.5 87.0874 108.5 87.0858 108.5C87.0842 108.5 87.0826 108.5 87.081 108.5C87.0794 108.5 87.0778 108.5 87.0762 108.5C87.0746 108.5 87.073 108.5 87.0714 108.5C87.0698 108.5 87.0682 108.5 87.0666 108.5C87.065 108.5 87.0634 108.5 87.0618 108.5C87.0602 108.5 87.0586 108.5 87.057 108.5C87.0554 108.5 87.0538 108.5 87.0522 108.5C87.0506 108.5 87.049 108.5 87.0474 108.5C87.0458 108.5 87.0442 108.5 87.0426 108.5C87.041 108.5 87.0394 108.5 87.0378 108.5C87.0362 108.5 87.0346 108.5 87.033 108.5C87.0314 108.5 87.0298 108.5 87.0282 108.5C87.0266 108.5 87.025 108.5 87.0234 108.5C87.0218 108.5 87.0202 108.5 87.0186 108.5C87.017 108.5 87.0154 108.5 87.0137 108.5C87.0121 108.5 87.0105 108.5 87.0089 108.5C87.0073 108.5 87.0057 108.5 87.0041 108.5C87.0025 108.5 87.0009 108.5 86.9993 108.5C86.9977 108.5 86.9961 108.5 86.9945 108.5C86.9929 108.5 86.9913 108.5 86.9897 108.5C86.9881 108.5 86.9865 108.5 86.9849 108.5C86.9833 108.5 86.9817 108.5 86.9801 108.5C86.9785 108.5 86.9769 108.5 86.9753 108.5C86.9737 108.5 86.9721 108.5 86.9705 108.5C86.9689 108.5 86.9673 108.5 86.9657 108.5C86.9641 108.5 86.9625 108.5 86.9609 108.5C86.9593 108.5 86.9576 108.5 86.956 108.5C86.9544 108.5 86.9528 108.5 86.9512 108.5C86.9496 108.5 86.948 108.5 86.9464 108.5C86.9448 108.5 86.9432 108.5 86.9416 108.5C86.94 108.5 86.9384 108.5 86.9368 108.5C86.9352 108.5 86.9336 108.5 86.932 108.5C86.9304 108.5 86.9288 108.5 86.9272 108.5C86.9256 108.5 86.924 108.5 86.9223 108.5C86.9207 108.5 86.9191 108.5 86.9175 108.5C86.9159 108.5 86.9143 108.5 86.9127 108.5C86.9111 108.5 86.9095 108.5 86.9079 108.5C86.9063 108.5 86.9047 108.5 86.9031 108.5C86.9015 108.5 86.8999 108.5 86.8983 108.5C86.8967 108.5 86.8951 108.5 86.8934 108.5C86.8918 108.5 86.8902 108.5 86.8886 108.5C86.887 108.5 86.8854 108.5 86.8838 108.5C86.8822 108.5 86.8806 108.5 86.879 108.5C86.8774 108.5 86.8758 108.5 86.8742 108.5C86.8726 108.5 86.871 108.5 86.8693 108.5C86.8677 108.5 86.8661 108.5 86.8645 108.5C86.8629 108.5 86.8613 108.5 86.8597 108.5C86.8581 108.5 86.8565 108.5 86.8549 108.5C86.8533 108.5 86.8517 108.5 86.8501 108.5C86.8484 108.5 86.8468 108.5 86.8452 108.5C86.8436 108.5 86.842 108.5 86.8404 108.5C86.8388 108.5 86.8372 108.5 86.8356 108.5C86.834 108.5 86.8324 108.5 86.8308 108.5C86.8292 108.5 86.8275 108.5 86.8259 108.5C86.8243 108.5 86.8227 108.5 86.8211 108.5C86.8195 108.5 86.8179 108.5 86.8163 108.5C86.8147 108.5 86.8131 108.5 86.8115 108.5C86.8098 108.5 86.8082 108.5 86.8066 108.5C86.805 108.5 86.8034 108.5 86.8018 108.5C86.8002 108.5 86.7986 108.5 86.797 108.5C86.7954 108.5 86.7937 108.5 86.7921 108.5C86.7905 108.5 86.7889 108.5 86.7873 108.5C86.7857 108.5 86.7841 108.5 86.7825 108.5C86.7809 108.5 86.7793 108.5 86.7776 108.5C86.776 108.5 86.7744 108.5 86.7728 108.5C86.7712 108.5 86.7696 108.5 86.768 108.5C86.7664 108.5 86.7648 108.5 86.7632 108.5C86.7615 108.5 86.7599 108.5 86.7583 108.5C86.7567 108.5 86.7551 108.5 86.7535 108.5C86.7519 108.5 86.7503 108.5 86.7487 108.5C86.747 108.5 86.7454 108.5 86.7438 108.5C86.7422 108.5 86.7406 108.5 86.739 108.5C86.7374 108.5 86.7358 108.5 86.7342 108.5C86.7325 108.5 86.7309 108.5 86.7293 108.5C86.7277 108.5 86.7261 108.5 86.7245 108.5C86.7229 108.5 86.7213 108.5 86.7196 108.5C86.718 108.5 86.7164 108.5 86.7148 108.5C86.7132 108.5 86.7116 108.5 86.71 108.5C86.7084 108.5 86.7067 108.5 86.7051 108.5C86.7035 108.5 86.7019 108.5 86.7003 108.5C86.6987 108.5 86.6971 108.5 86.6954 108.5C86.6938 108.5 86.6922 108.5 86.6906 108.5C86.689 108.5 86.6874 108.5 86.6858 108.5C86.6842 108.5 86.6825 108.5 86.6809 108.5C86.6793 108.5 86.6777 108.5 86.6761 108.5C86.6745 108.5 86.6729 108.5 86.6712 108.5C86.6696 108.5 86.668 108.5 86.6664 108.5C86.6648 108.5 86.6632 108.5 86.6616 108.5C86.6599 108.5 86.6583 108.5 86.6567 108.5C86.6551 108.5 86.6535 108.5 86.6519 108.5C86.6503 108.5 86.6486 108.5 86.647 108.5C86.6454 108.5 86.6438 108.5 86.6422 108.5C86.6406 108.5 86.6389 108.5 86.6373 108.5C86.6357 108.5 86.6341 108.5 86.6325 108.5C86.6309 108.5 86.6293 108.5 86.6276 108.5C86.626 108.5 86.6244 108.5 86.6228 108.5C86.6212 108.5 86.6196 108.5 86.618 108.5C86.6163 108.5 86.6147 108.5 86.6131 108.5C86.6115 108.5 86.6099 108.5 86.6083 108.5C86.6066 108.5 86.605 108.5 86.6034 108.5C86.6018 108.5 86.6002 108.5 86.5985 108.5C86.5969 108.5 86.5953 108.5 86.5937 108.5C86.5921 108.5 86.5905 108.5 86.5889 108.5C86.5872 108.5 86.5856 108.5 86.584 108.5C86.5824 108.5 86.5808 108.5 86.5791 108.5C86.5775 108.5 86.5759 108.5 86.5743 108.5C86.5727 108.5 86.5711 108.5 86.5694 108.5C86.5678 108.5 86.5662 108.5 86.5646 108.5C86.563 108.5 86.5613 108.5 86.5597 108.5C86.5581 108.5 86.5565 108.5 86.5549 108.5C86.5533 108.5 86.5516 108.5 86.55 108.5C86.5484 108.5 86.5468 108.5 86.5452 108.5C86.5435 108.5 86.5419 108.5 86.5403 108.5C86.5387 108.5 86.5371 108.5 86.5355 108.5C86.5338 108.5 86.5322 108.5 86.5306 108.5C86.529 108.5 86.5274 108.5 86.5257 108.5C86.5241 108.5 86.5225 108.5 86.5209 108.5C86.5193 108.5 86.5176 108.5 86.516 108.5C86.5144 108.5 86.5128 108.5 86.5112 108.5C86.5095 108.5 86.5079 108.5 86.5063 108.5C86.5047 108.5 86.5031 108.5 86.5014 108.5C86.4998 108.5 86.4982 108.5 86.4966 108.5C86.495 108.5 86.4933 108.5 86.4917 108.5C86.4901 108.5 86.4885 108.5 86.4869 108.5C86.4852 108.5 86.4836 108.5 86.482 108.5C86.4804 108.5 86.4788 108.5 86.4771 108.5C86.4755 108.5 86.4739 108.5 86.4723 108.5C86.4706 108.5 86.469 108.5 86.4674 108.5C86.4658 108.5 86.4642 108.5 86.4625 108.5C86.4609 108.5 86.4593 108.5 86.4577 108.5C86.4561 108.5 86.4544 108.5 86.4528 108.5C86.4512 108.5 86.4496 108.5 86.448 108.5C86.4463 108.5 86.4447 108.5 86.4431 108.5C86.4415 108.5 86.4398 108.5 86.4382 108.5C86.4366 108.5 86.435 108.5 86.4333 108.5C86.4317 108.5 86.4301 108.5 86.4285 108.5C86.4269 108.5 86.4252 108.5 86.4236 108.5C86.422 108.5 86.4204 108.5 86.4187 108.5C86.4171 108.5 86.4155 108.5 86.4139 108.5C86.4123 108.5 86.4106 108.5 86.409 108.5C86.4074 108.5 86.4058 108.5 86.4041 108.5C86.4025 108.5 86.4009 108.5 86.3993 108.5C86.3976 108.5 86.396 108.5 86.3944 108.5C86.3928 108.5 86.3911 108.5 86.3895 108.5C86.3879 108.5 86.3863 108.5 86.3847 108.5C86.383 108.5 86.3814 108.5 86.3798 108.5C86.3782 108.5 86.3765 108.5 86.3749 108.5C86.3733 108.5 86.3717 108.5 86.37 108.5C86.3684 108.5 86.3668 108.5 86.3652 108.5C86.3635 108.5 86.3619 108.5 86.3603 108.5C86.3587 108.5 86.357 108.5 86.3554 108.5C86.3538 108.5 86.3521 108.5 86.3505 108.5C86.3489 108.5 86.3473 108.5 86.3456 108.5C86.344 108.5 86.3424 108.5 86.3408 108.5C86.3391 108.5 86.3375 108.5 86.3359 108.5C86.3343 108.5 86.3326 108.5 86.331 108.5C86.3294 108.5 86.3278 108.5 86.3261 108.5C86.3245 108.5 86.3229 108.5 86.3213 108.5C86.3196 108.5 86.318 108.5 86.3164 108.5C86.3148 108.5 86.3131 108.5 86.3115 108.5C86.3099 108.5 86.3082 108.5 86.3066 108.5C86.305 108.5 86.3034 108.5 86.3017 108.5C86.3001 108.5 86.2985 108.5 86.2969 108.5C86.2952 108.5 86.2936 108.5 86.292 108.5C86.2903 108.5 86.2887 108.5 86.2871 108.5C86.2855 108.5 86.2838 108.5 86.2822 108.5C86.2806 108.5 86.279 108.5 86.2773 108.5C86.2757 108.5 86.2741 108.5 86.2724 108.5C86.2708 108.5 86.2692 108.5 86.2676 108.5C86.2659 108.5 86.2643 108.5 86.2627 108.5C86.261 108.5 86.2594 108.5 86.2578 108.5C86.2561 108.5 86.2545 108.5 86.2529 108.5C86.2513 108.5 86.2496 108.5 86.248 108.5C86.2464 108.5 86.2448 108.5 86.2431 108.5C86.2415 108.5 86.2399 108.5 86.2382 108.5C86.2366 108.5 86.235 108.5 86.2333 108.5C86.2317 108.5 86.2301 108.5 86.2285 108.5C86.2268 108.5 86.2252 108.5 86.2236 108.5C86.2219 108.5 86.2203 108.5 86.2187 108.5C86.217 108.5 86.2154 108.5 86.2138 108.5C86.2122 108.5 86.2105 108.5 86.2089 108.5C86.2073 108.5 86.2056 108.5 86.204 108.5C86.2024 108.5 86.2007 108.5 86.1991 108.5C86.1975 108.5 86.1958 108.5 86.1942 108.5C86.1926 108.5 86.191 108.5 86.1893 108.5C86.1877 108.5 86.1861 108.5 86.1844 108.5C86.1828 108.5 86.1812 108.5 86.1795 108.5C86.1779 108.5 86.1763 108.5 86.1746 108.5C86.173 108.5 86.1714 108.5 86.1697 108.5C86.1681 108.5 86.1665 108.5 86.1648 108.5C86.1632 108.5 86.1616 108.5 86.16 108.5C86.1583 108.5 86.1567 108.5 86.1551 108.5C86.1534 108.5 86.1518 108.5 86.1502 108.5C86.1485 108.5 86.1469 108.5 86.1453 108.5C86.1436 108.5 86.142 108.5 86.1404 108.5C86.1387 108.5 86.1371 108.5 86.1355 108.5C86.1338 108.5 86.1322 108.5 86.1306 108.5C86.1289 108.5 86.1273 108.5 86.1257 108.5C86.124 108.5 86.1224 108.5 86.1208 108.5C86.1191 108.5 86.1175 108.5 86.1159 108.5C86.1142 108.5 86.1126 108.5 86.111 108.5C86.1093 108.5 86.1077 108.5 86.1061 108.5C86.1044 108.5 86.1028 108.5 86.1012 108.5C86.0995 108.5 86.0979 108.5 86.0963 108.5C86.0946 108.5 86.093 108.5 86.0914 108.5C86.0897 108.5 86.0881 108.5 86.0864 108.5C86.0848 108.5 86.0832 108.5 86.0815 108.5C86.0799 108.5 86.0783 108.5 86.0766 108.5C86.075 108.5 86.0734 108.5 86.0717 108.5C86.0701 108.5 86.0685 108.5 86.0668 108.5C86.0652 108.5 86.0636 108.5 86.0619 108.5C86.0603 108.5 86.0586 108.5 86.057 108.5C86.0554 108.5 86.0537 108.5 86.0521 108.5C86.0505 108.5 86.0488 108.5 86.0472 108.5C86.0456 108.5 86.0439 108.5 86.0423 108.5C86.0406 108.5 86.039 108.5 86.0374 108.5C86.0357 108.5 86.0341 108.5 86.0325 108.5C86.0308 108.5 86.0292 108.5 86.0276 108.5C86.0259 108.5 86.0243 108.5 86.0227 108.5C86.021 108.5 86.0194 108.5 86.0177 108.5C86.0161 108.5 86.0145 108.5 86.0128 108.5C86.0112 108.5 86.0096 108.5 86.0079 108.5C86.0063 108.5 86.0046 108.5 86.003 108.5C86.0014 108.5 85.9997 108.5 85.9981 108.5C85.9964 108.5 85.9948 108.5 85.9932 108.5C85.9915 108.5 85.9899 108.5 85.9883 108.5C85.9866 108.5 85.985 108.5 85.9833 108.5C85.9817 108.5 85.9801 108.5 85.9784 108.5C85.9768 108.5 85.9752 108.5 85.9735 108.5C85.9719 108.5 85.9702 108.5 85.9686 108.5C85.967 108.5 85.9653 108.5 85.9637 108.5C85.962 108.5 85.9604 108.5 85.9588 108.5C85.9571 108.5 85.9555 108.5 85.9538 108.5C85.9522 108.5 85.9506 108.5 85.9489 108.5C85.9473 108.5 85.9456 108.5 85.944 108.5C85.9424 108.5 85.9407 108.5 85.9391 108.5C85.9374 108.5 85.9358 108.5 85.9342 108.5C85.9325 108.5 85.9309 108.5 85.9292 108.5C85.9276 108.5 85.926 108.5 85.9243 108.5C85.9227 108.5 85.921 108.5 85.9194 108.5C85.9178 108.5 85.9161 108.5 85.9145 108.5C85.9128 108.5 85.9112 108.5 85.9096 108.5C85.9079 108.5 85.9063 108.5 85.9046 108.5C85.903 108.5 85.9014 108.5 85.8997 108.5C85.8981 108.5 85.8964 108.5 85.8948 108.5C85.8931 108.5 85.8915 108.5 85.8899 108.5C85.8882 108.5 85.8866 108.5 85.8849 108.5C85.8833 108.5 85.8817 108.5 85.88 108.5C85.8784 108.5 85.8767 108.5 85.8751 108.5C85.8734 108.5 85.8718 108.5 85.8702 108.5C85.8685 108.5 85.8669 108.5 85.8652 108.5C85.8636 108.5 85.8619 108.5 85.8603 108.5C85.8587 108.5 85.857 108.5 85.8554 108.5C85.8537 108.5 85.8521 108.5 85.8504 108.5C85.8488 108.5 85.8472 108.5 85.8455 108.5C85.8439 108.5 85.8422 108.5 85.8406 108.5C85.8389 108.5 85.8373 108.5 85.8357 108.5C85.834 108.5 85.8324 108.5 85.8307 108.5C85.8291 108.5 85.8274 108.5 85.8258 108.5C85.8242 108.5 85.8225 108.5 85.8209 108.5C85.8192 108.5 85.8176 108.5 85.8159 108.5C85.8143 108.5 85.8126 108.5 85.811 108.5C85.8093 108.5 85.8077 108.5 85.8061 108.5C85.8044 108.5 85.8028 108.5 85.8011 108.5C85.7995 108.5 85.7978 108.5 85.7962 108.5C85.7945 108.5 85.7929 108.5 85.7913 108.5C85.7896 108.5 85.788 108.5 85.7863 108.5C85.7847 108.5 85.783 108.5 85.7814 108.5C85.7797 108.5 85.7781 108.5 85.7765 108.5C85.7748 108.5 85.7732 108.5 85.7715 108.5C85.7699 108.5 85.7682 108.5 85.7666 108.5C85.7649 108.5 85.7633 108.5 85.7616 108.5C85.76 108.5 85.7583 108.5 85.7567 108.5C85.7551 108.5 85.7534 108.5 85.7518 108.5C85.7501 108.5 85.7485 108.5 85.7468 108.5C85.7452 108.5 85.7435 108.5 85.7419 108.5C85.7402 108.5 85.7386 108.5 85.7369 108.5C85.7353 108.5 85.7336 108.5 85.732 108.5C85.7304 108.5 85.7287 108.5 85.7271 108.5C85.7254 108.5 85.7238 108.5 85.7221 108.5C85.7205 108.5 85.7188 108.5 85.7172 108.5C85.7155 108.5 85.7139 108.5 85.7122 108.5C85.7106 108.5 85.7089 108.5 85.7073 108.5C85.7056 108.5 85.704 108.5 85.7023 108.5C85.7007 108.5 85.699 108.5 85.6974 108.5C85.6957 108.5 85.6941 108.5 85.6925 108.5C85.6908 108.5 85.6892 108.5 85.6875 108.5C85.6859 108.5 85.6842 108.5 85.6826 108.5C85.6809 108.5 85.6793 108.5 85.6776 108.5C85.676 108.5 85.6743 108.5 85.6727 108.5C85.671 108.5 85.6694 108.5 85.6677 108.5C85.6661 108.5 85.6644 108.5 85.6628 108.5C85.6611 108.5 85.6595 108.5 85.6578 108.5C85.6562 108.5 85.6545 108.5 85.6529 108.5C85.6512 108.5 85.6496 108.5 85.6479 108.5C85.6463 108.5 85.6446 108.5 85.643 108.5C85.6413 108.5 85.6397 108.5 85.638 108.5C85.6364 108.5 85.6347 108.5 85.6331 108.5C85.6314 108.5 85.6298 108.5 85.6281 108.5C85.6265 108.5 85.6248 108.5 85.6232 108.5C85.6215 108.5 85.6199 108.5 85.6182 108.5C85.6166 108.5 85.6149 108.5 85.6133 108.5C85.6116 108.5 85.6099 108.5 85.6083 108.5C85.6066 108.5 85.605 108.5 85.6033 108.5C85.6017 108.5 85.6 108.5 85.5984 108.5C85.5967 108.5 85.5951 108.5 85.5934 108.5C85.5918 108.5 85.5901 108.5 85.5885 108.5C85.5868 108.5 85.5852 108.5 85.5835 108.5C85.5819 108.5 85.5802 108.5 85.5786 108.5C85.5769 108.5 85.5753 108.5 85.5736 108.5C85.572 108.5 85.5703 108.5 85.5686 108.5C85.567 108.5 85.5653 108.5 85.5637 108.5C85.562 108.5 85.5604 108.5 85.5587 108.5C85.5571 108.5 85.5554 108.5 85.5538 108.5C85.5521 108.5 85.5505 108.5 85.5488 108.5C85.5472 108.5 85.5455 108.5 85.5438 108.5C85.5422 108.5 85.5405 108.5 85.5389 108.5C85.5372 108.5 85.5356 108.5 85.5339 108.5C85.5323 108.5 85.5306 108.5 85.529 108.5C85.5273 108.5 85.5257 108.5 85.524 108.5C85.5223 108.5 85.5207 108.5 85.519 108.5C85.5174 108.5 85.5157 108.5 85.5141 108.5C85.5124 108.5 85.5108 108.5 85.5091 108.5C85.5075 108.5 85.5058 108.5 85.5041 108.5C85.5025 108.5 85.5008 108.5 85.4992 108.5C85.4975 108.5 85.4959 108.5 85.4942 108.5C85.4926 108.5 85.4909 108.5 85.4892 108.5C85.4876 108.5 85.4859 108.5 85.4843 108.5C85.4826 108.5 85.481 108.5 85.4793 108.5C85.4777 108.5 85.476 108.5 85.4743 108.5C85.4727 108.5 85.471 108.5 85.4694 108.5C85.4677 108.5 85.4661 108.5 85.4644 108.5C85.4627 108.5 85.4611 108.5 85.4594 108.5C85.4578 108.5 85.4561 108.5 85.4545 108.5C85.4528 108.5 85.4511 108.5 85.4495 108.5C85.4478 108.5 85.4462 108.5 85.4445 108.5C85.4429 108.5 85.4412 108.5 85.4395 108.5C85.4379 108.5 85.4362 108.5 85.4346 108.5C85.4329 108.5 85.4313 108.5 85.4296 108.5C85.4279 108.5 85.4263 108.5 85.4246 108.5C85.423 108.5 85.4213 108.5 85.4197 108.5C85.418 108.5 85.4163 108.5 85.4147 108.5C85.413 108.5 85.4114 108.5 85.4097 108.5C85.4081 108.5 85.4064 108.5 85.4047 108.5C85.4031 108.5 85.4014 108.5 85.3998 108.5C85.3981 108.5 85.3964 108.5 85.3948 108.5C85.3931 108.5 85.3915 108.5 85.3898 108.5C85.3881 108.5 85.3865 108.5 85.3848 108.5C85.3832 108.5 85.3815 108.5 85.3798 108.5C85.3782 108.5 85.3765 108.5 85.3749 108.5C85.3732 108.5 85.3715 108.5 85.3699 108.5C85.3682 108.5 85.3666 108.5 85.3649 108.5C85.3633 108.5 85.3616 108.5 85.3599 108.5C85.3583 108.5 85.3566 108.5 85.3549 108.5C85.3533 108.5 85.3516 108.5 85.35 108.5C85.3483 108.5 85.3466 108.5 85.345 108.5C85.3433 108.5 85.3417 108.5 85.34 108.5C85.3383 108.5 85.3367 108.5 85.335 108.5C85.3334 108.5 85.3317 108.5 85.33 108.5C85.3284 108.5 85.3267 108.5 85.3251 108.5C85.3234 108.5 85.3217 108.5 85.3201 108.5C85.3184 108.5 85.3167 108.5 85.3151 108.5C85.3134 108.5 85.3118 108.5 85.3101 108.5C85.3084 108.5 85.3068 108.5 85.3051 108.5C85.3035 108.5 85.3018 108.5 85.3001 108.5C85.2985 108.5 85.2968 108.5 85.2951 108.5C85.2935 108.5 85.2918 108.5 85.2902 108.5C85.2885 108.5 85.2868 108.5 85.2852 108.5C85.2835 108.5 85.2818 108.5 85.2802 108.5C85.2785 108.5 85.2768 108.5 85.2752 108.5C85.2735 108.5 85.2719 108.5 85.2702 108.5C85.2685 108.5 85.2669 108.5 85.2652 108.5C85.2635 108.5 85.2619 108.5 85.2602 108.5C85.2586 108.5 85.2569 108.5 85.2552 108.5C85.2536 108.5 85.2519 108.5 85.2502 108.5C85.2486 108.5 85.2469 108.5 85.2452 108.5C85.2436 108.5 85.2419 108.5 85.2402 108.5C85.2386 108.5 85.2369 108.5 85.2353 108.5C85.2336 108.5 85.2319 108.5 85.2303 108.5C85.2286 108.5 85.2269 108.5 85.2253 108.5C85.2236 108.5 85.2219 108.5 85.2203 108.5C85.2186 108.5 85.2169 108.5 85.2153 108.5C85.2136 108.5 85.212 108.5 85.2103 108.5C85.2086 108.5 85.207 108.5 85.2053 108.5C85.2036 108.5 85.202 108.5 85.2003 108.5C85.1986 108.5 85.197 108.5 85.1953 108.5C85.1936 108.5 85.192 108.5 85.1903 108.5C85.1886 108.5 85.187 108.5 85.1853 108.5C85.1836 108.5 85.182 108.5 85.1803 108.5C85.1786 108.5 85.177 108.5 85.1753 108.5C85.1736 108.5 85.172 108.5 85.1703 108.5C85.1686 108.5 85.167 108.5 85.1653 108.5C85.1636 108.5 85.162 108.5 85.1603 108.5C85.1586 108.5 85.157 108.5 85.1553 108.5C85.1536 108.5 85.152 108.5 85.1503 108.5C85.1486 108.5 85.147 108.5 85.1453 108.5C85.1436 108.5 85.142 108.5 85.1403 108.5C85.1386 108.5 85.137 108.5 85.1353 108.5C85.1336 108.5 85.132 108.5 85.1303 108.5C85.1286 108.5 85.1269 108.5 85.1253 108.5C85.1236 108.5 85.1219 108.5 85.1203 108.5C85.1186 108.5 85.1169 108.5 85.1153 108.5C85.1136 108.5 85.1119 108.5 85.1103 108.5C85.1086 108.5 85.1069 108.5 85.1053 108.5C85.1036 108.5 85.1019 108.5 85.1003 108.5C85.0986 108.5 85.0969 108.5 85.0952 108.5C85.0936 108.5 85.0919 108.5 85.0902 108.5C85.0886 108.5 85.0869 108.5 85.0852 108.5C85.0836 108.5 85.0819 108.5 85.0802 108.5C85.0785 108.5 85.0769 108.5 85.0752 108.5C85.0735 108.5 85.0719 108.5 85.0702 108.5C85.0685 108.5 85.0669 108.5 85.0652 108.5C85.0635 108.5 85.0618 108.5 85.0602 108.5C85.0585 108.5 85.0568 108.5 85.0552 108.5C85.0535 108.5 85.0518 108.5 85.0501 108.5C85.0485 108.5 85.0468 108.5 85.0451 108.5C85.0435 108.5 85.0418 108.5 85.0401 108.5C85.0385 108.5 85.0368 108.5 85.0351 108.5C85.0334 108.5 85.0318 108.5 85.0301 108.5C85.0284 108.5 85.0268 108.5 85.0251 108.5C85.0234 108.5 85.0217 108.5 85.0201 108.5C85.0184 108.5 85.0167 108.5 85.0151 108.5C85.0134 108.5 85.0117 108.5 85.01 108.5C85.0084 108.5 85.0067 108.5 85.005 108.5C85.0033 108.5 85.0017 108.5 85 108.5V113.5Z" fill="#1F9FE8"/>
</svg>
