<svg width="57" height="58" viewBox="0 0 57 58" fill="none" xmlns="http://www.w3.org/2000/svg">
<path d="M54 5.5C55.3807 5.5 56.5 4.38071 56.5 3C56.5 1.61929 55.3807 0.5 54 0.5V5.5ZM10 3V0.5C9.08548 0.5 8.24395 0.999346 7.80572 1.80203C7.36749 2.60471 7.40252 3.58262 7.89705 4.35189L10 3ZM14.5 58L28.9338 33H0.0662432L14.5 58ZM54 0.5H10V5.5H54V0.5ZM7.89705 4.35189C9.26755 6.48378 12 12.1732 12 17.5H17C17 10.8268 13.7324 4.18289 12.1029 1.64811L7.89705 4.35189ZM12 17.5C12 17.5058 12 17.5116 12 17.5174C12 17.5231 12 17.529 12 17.5348C12 17.5406 12 17.5465 12 17.5523C12 17.5582 12 17.5641 12 17.57C12 17.5759 12 17.5818 12 17.5877C12 17.5936 12 17.5996 12 17.6056C12 17.6115 12 17.6175 12 17.6235C12 17.6295 12 17.6355 12 17.6415C12 17.6475 12 17.6536 12 17.6596C12 17.6657 12 17.6718 12 17.6778C12 17.6839 12 17.69 12 17.6962C12 17.7023 12 17.7084 12 17.7146C12 17.7207 12 17.7269 12 17.7331C12 17.7392 12 17.7454 12 17.7517C12 17.7579 12 17.7641 12 17.7704C12 17.7766 12 17.7829 12 17.7891C12 17.7954 12 17.8017 12 17.808C12 17.8143 12 17.8207 12 17.827C12 17.8333 12 17.8397 12 17.8461C12 17.8524 12 17.8588 12 17.8652C12 17.8716 12 17.878 12 17.8845C12 17.8909 12 17.8974 12 17.9038C12 17.9103 12 17.9168 12 17.9233C12 17.9298 12 17.9363 12 17.9428C12 17.9493 12 17.9559 12 17.9624C12 17.969 12 17.9756 12 17.9822C12 17.9888 12 17.9954 12 18.002C12 18.0086 12 18.0152 12 18.0219C12 18.0285 12 18.0352 12 18.0419C12 18.0486 12 18.0553 12 18.062C12 18.0687 12 18.0754 12 18.0822C12 18.0889 12 18.0957 12 18.1025C12 18.1092 12 18.116 12 18.1228C12 18.1296 12 18.1364 12 18.1433C12 18.1501 12 18.157 12 18.1638C12 18.1707 12 18.1776 12 18.1845C12 18.1914 12 18.1983 12 18.2052C12 18.2121 12 18.2191 12 18.226C12 18.233 12 18.24 12 18.247C12 18.254 12 18.261 12 18.268C12 18.275 12 18.282 12 18.2891C12 18.2961 12 18.3032 12 18.3103C12 18.3173 12 18.3244 12 18.3315C12 18.3387 12 18.3458 12 18.3529C12 18.3601 12 18.3672 12 18.3744C12 18.3815 12 18.3887 12 18.3959C12 18.4031 12 18.4103 12 18.4176C12 18.4248 12 18.432 12 18.4393C12 18.4466 12 18.4538 12 18.4611C12 18.4684 12 18.4757 12 18.483C12 18.4903 12 18.4977 12 18.505C12 18.5124 12 18.5197 12 18.5271C12 18.5345 12 18.5419 12 18.5493C12 18.5567 12 18.5641 12 18.5715C12 18.579 12 18.5864 12 18.5939C12 18.6014 12 18.6088 12 18.6163C12 18.6238 12 18.6313 12 18.6389C12 18.6464 12 18.6539 12 18.6615C12 18.669 12 18.6766 12 18.6842C12 18.6918 12 18.6994 12 18.707C12 18.7146 12 18.7222 12 18.7298C12 18.7375 12 18.7451 12 18.7528C12 18.7605 12 18.7682 12 18.7759C12 18.7836 12 18.7913 12 18.799C12 18.8067 12 18.8145 12 18.8222C12 18.83 12 18.8378 12 18.8455C12 18.8533 12 18.8611 12 18.8689C12 18.8768 12 18.8846 12 18.8924C12 18.9003 12 18.9081 12 18.916C12 18.9239 12 18.9318 12 18.9397C12 18.9476 12 18.9555 12 18.9634C12 18.9713 12 18.9793 12 18.9872C12 18.9952 12 19.0032 12 19.0112C12 19.0191 12 19.0271 12 19.0352C12 19.0432 12 19.0512 12 19.0592C12 19.0673 12 19.0753 12 19.0834C12 19.0915 12 19.0996 12 19.1077C12 19.1158 12 19.1239 12 19.132C12 19.1401 12 19.1483 12 19.1564C12 19.1646 12 19.1728 12 19.1809C12 19.1891 12 19.1973 12 19.2055C12 19.2137 12 19.222 12 19.2302C12 19.2384 12 19.2467 12 19.255C12 19.2632 12 19.2715 12 19.2798C12 19.2881 12 19.2964 12 19.3047C12 19.3131 12 19.3214 12 19.3298C12 19.3381 12 19.3465 12 19.3548C12 19.3632 12 19.3716 12 19.38C12 19.3884 12 19.3969 12 19.4053C12 19.4137 12 19.4222 12 19.4306C12 19.4391 12 19.4476 12 19.4561C12 19.4645 12 19.4731 12 19.4816C12 19.4901 12 19.4986 12 19.5072C12 19.5157 12 19.5243 12 19.5328C12 19.5414 12 19.55 12 19.5586C12 19.5672 12 19.5758 12 19.5844C12 19.5931 12 19.6017 12 19.6103C12 19.619 12 19.6277 12 19.6363C12 19.645 12 19.6537 12 19.6624C12 19.6711 12 19.6799 12 19.6886C12 19.6973 12 19.7061 12 19.7148C12 19.7236 12 19.7324 12 19.7412C12 19.7499 12 19.7588 12 19.7676C12 19.7764 12 19.7852 12 19.7941C12 19.8029 12 19.8118 12 19.8206C12 19.8295 12 19.8384 12 19.8473C12 19.8562 12 19.8651 12 19.874C12 19.8829 12 19.8919 12 19.9008C12 19.9097 12 19.9187 12 19.9277C12 19.9367 12 19.9457 12 19.9547C12 19.9637 12 19.9727 12 19.9817C12 19.9907 12 19.9998 12 20.0088C12 20.0179 12 20.0269 12 20.036C12 20.0451 12 20.0542 12 20.0633C12 20.0724 12 20.0815 12 20.0907C12 20.0998 12 20.109 12 20.1181C12 20.1273 12 20.1364 12 20.1456C12 20.1548 12 20.164 12 20.1732C12 20.1824 12 20.1917 12 20.2009C12 20.2101 12 20.2194 12 20.2287C12 20.2379 12 20.2472 12 20.2565C12 20.2658 12 20.2751 12 20.2844C12 20.2937 12 20.303 12 20.3124C12 20.3217 12 20.3311 12 20.3404C12 20.3498 12 20.3592 12 20.3686C12 20.378 12 20.3874 12 20.3968C12 20.4062 12 20.4157 12 20.4251C12 20.4345 12 20.444 12 20.4535C12 20.4629 12 20.4724 12 20.4819C12 20.4914 12 20.5009 12 20.5104C12 20.52 12 20.5295 12 20.539C12 20.5486 12 20.5581 12 20.5677C12 20.5773 12 20.5869 12 20.5965C12 20.6061 12 20.6157 12 20.6253C12 20.6349 12 20.6446 12 20.6542C12 20.6639 12 20.6735 12 20.6832C12 20.6929 12 20.7025 12 20.7122C12 20.7219 12 20.7316 12 20.7414C12 20.7511 12 20.7608 12 20.7706C12 20.7803 12 20.7901 12 20.7999C12 20.8096 12 20.8194 12 20.8292C12 20.839 12 20.8488 12 20.8586C12 20.8685 12 20.8783 12 20.8881C12 20.898 12 20.9078 12 20.9177C12 20.9276 12 20.9375 12 20.9474C12 20.9573 12 20.9672 12 20.9771C12 20.987 12 20.9969 12 21.0069C12 21.0168 12 21.0268 12 21.0368C12 21.0467 12 21.0567 12 21.0667C12 21.0767 12 21.0867 12 21.0967C12 21.1067 12 21.1168 12 21.1268C12 21.1369 12 21.1469 12 21.157C12 21.167 12 21.1771 12 21.1872C12 21.1973 12 21.2074 12 21.2175C12 21.2276 12 21.2378 12 21.2479C12 21.2581 12 21.2682 12 21.2784C12 21.2885 12 21.2987 12 21.3089C12 21.3191 12 21.3293 12 21.3395C12 21.3497 12 21.3599 12 21.3702C12 21.3804 12 21.3906 12 21.4009C12 21.4112 12 21.4214 12 21.4317C12 21.442 12 21.4523 12 21.4626C12 21.4729 12 21.4832 12 21.4936C12 21.5039 12 21.5142 12 21.5246C12 21.5349 12 21.5453 12 21.5557C12 21.5661 12 21.5764 12 21.5868C12 21.5972 12 21.6077 12 21.6181C12 21.6285 12 21.6389 12 21.6494C12 21.6598 12 21.6703 12 21.6808C12 21.6912 12 21.7017 12 21.7122C12 21.7227 12 21.7332 12 21.7437C12 21.7543 12 21.7648 12 21.7753C12 21.7859 12 21.7964 12 21.807C12 21.8176 12 21.8281 12 21.8387C12 21.8493 12 21.8599 12 21.8705C12 21.8811 12 21.8917 12 21.9024C12 21.913 12 21.9237 12 21.9343C12 21.945 12 21.9556 12 21.9663C12 21.977 12 21.9877 12 21.9984C12 22.0091 12 22.0198 12 22.0305C12 22.0413 12 22.052 12 22.0627C12 22.0735 12 22.0842 12 22.095C12 22.1058 12 22.1166 12 22.1274C12 22.1381 12 22.149 12 22.1598C12 22.1706 12 22.1814 12 22.1922C12 22.2031 12 22.2139 12 22.2248C12 22.2357 12 22.2465 12 22.2574C12 22.2683 12 22.2792 12 22.2901C12 22.301 12 22.3119 12 22.3228C12 22.3338 12 22.3447 12 22.3557C12 22.3666 12 22.3776 12 22.3885C12 22.3995 12 22.4105 12 22.4215C12 22.4325 12 22.4435 12 22.4545C12 22.4655 12 22.4765 12 22.4876C12 22.4986 12 22.5097 12 22.5207C12 22.5318 12 22.5429 12 22.5539C12 22.565 12 22.5761 12 22.5872C12 22.5983 12 22.6094 12 22.6206C12 22.6317 12 22.6428 12 22.654C12 22.6651 12 22.6763 12 22.6874C12 22.6986 12 22.7098 12 22.721C12 22.7322 12 22.7434 12 22.7546C12 22.7658 12 22.777 12 22.7883C12 22.7995 12 22.8107 12 22.822C12 22.8332 12 22.8445 12 22.8558C12 22.8671 12 22.8784 12 22.8897C12 22.901 12 22.9123 12 22.9236C12 22.9349 12 22.9462 12 22.9576C12 22.9689 12 22.9803 12 22.9916C12 23.003 12 23.0144 12 23.0257C12 23.0371 12 23.0485 12 23.0599C12 23.0713 12 23.0827 12 23.0942C12 23.1056 12 23.117 12 23.1285C12 23.1399 12 23.1514 12 23.1628C12 23.1743 12 23.1858 12 23.1973C12 23.2088 12 23.2203 12 23.2318C12 23.2433 12 23.2548 12 23.2663C12 23.2779 12 23.2894 12 23.301C12 23.3125 12 23.3241 12 23.3356C12 23.3472 12 23.3588 12 23.3704C12 23.382 12 23.3936 12 23.4052C12 23.4168 12 23.4284 12 23.4401C12 23.4517 12 23.4633 12 23.475C12 23.4866 12 23.4983 12 23.51C12 23.5217 12 23.5333 12 23.545C12 23.5567 12 23.5684 12 23.5801C12 23.5919 12 23.6036 12 23.6153C12 23.6271 12 23.6388 12 23.6506C12 23.6623 12 23.6741 12 23.6858C12 23.6976 12 23.7094 12 23.7212C12 23.733 12 23.7448 12 23.7566C12 23.7684 12 23.7803 12 23.7921C12 23.8039 12 23.8158 12 23.8276C12 23.8395 12 23.8514 12 23.8632C12 23.8751 12 23.887 12 23.8989C12 23.9108 12 23.9227 12 23.9346C12 23.9465 12 23.9584 12 23.9704C12 23.9823 12 23.9943 12 24.0062C12 24.0182 12 24.0301 12 24.0421C12 24.0541 12 24.0661 12 24.0781C12 24.09 12 24.1021 12 24.1141C12 24.1261 12 24.1381 12 24.1501C12 24.1622 12 24.1742 12 24.1863C12 24.1983 12 24.2104 12 24.2224C12 24.2345 12 24.2466 12 24.2587C12 24.2708 12 24.2829 12 24.295C12 24.3071 12 24.3192 12 24.3313C12 24.3435 12 24.3556 12 24.3678C12 24.3799 12 24.3921 12 24.4042C12 24.4164 12 24.4286 12 24.4408C12 24.453 12 24.4651 12 24.4774C12 24.4896 12 24.5018 12 24.514C12 24.5262 12 24.5385 12 24.5507C12 24.5629 12 24.5752 12 24.5875C12 24.5997 12 24.612 12 24.6243C12 24.6366 12 24.6488 12 24.6611C12 24.6734 12 24.6858 12 24.6981C12 24.7104 12 24.7227 12 24.7351C12 24.7474 12 24.7597 12 24.7721C12 24.7844 12 24.7968 12 24.8092C12 24.8216 12 24.8339 12 24.8463C12 24.8587 12 24.8711 12 24.8835C12 24.896 12 24.9084 12 24.9208C12 24.9332 12 24.9457 12 24.9581C12 24.9706 12 24.983 12 24.9955C12 25.0079 12 25.0204 12 25.0329C12 25.0454 12 25.0579 12 25.0704C12 25.0829 12 25.0954 12 25.1079C12 25.1204 12 25.133 12 25.1455C12 25.158 12 25.1706 12 25.1831C12 25.1957 12 25.2083 12 25.2208C12 25.2334 12 25.246 12 25.2586C12 25.2712 12 25.2838 12 25.2964C12 25.309 12 25.3216 12 25.3342C12 25.3469 12 25.3595 12 25.3722C12 25.3848 12 25.3975 12 25.4101C12 25.4228 12 25.4355 12 25.4481C12 25.4608 12 25.4735 12 25.4862C12 25.4989 12 25.5116 12 25.5243C12 25.537 12 25.5498 12 25.5625C12 25.5752 12 25.588 12 25.6007C12 25.6135 12 25.6262 12 25.639C12 25.6518 12 25.6645 12 25.6773C12 25.6901 12 25.7029 12 25.7157C12 25.7285 12 25.7413 12 25.7541C12 25.767 12 25.7798 12 25.7926C12 25.8055 12 25.8183 12 25.8312C12 25.844 12 25.8569 12 25.8697C12 25.8826 12 25.8955 12 25.9084C12 25.9213 12 25.9342 12 25.9471C12 25.96 12 25.9729 12 25.9858C12 25.9987 12 26.0117 12 26.0246C12 26.0375 12 26.0505 12 26.0634C12 26.0764 12 26.0894 12 26.1023C12 26.1153 12 26.1283 12 26.1413C12 26.1543 12 26.1673 12 26.1803C12 26.1933 12 26.2063 12 26.2193C12 26.2323 12 26.2453 12 26.2584C12 26.2714 12 26.2845 12 26.2975C12 26.3106 12 26.3236 12 26.3367C12 26.3498 12 26.3629 12 26.3759C12 26.389 12 26.4021 12 26.4152C12 26.4283 12 26.4414 12 26.4546C12 26.4677 12 26.4808 12 26.4939C12 26.5071 12 26.5202 12 26.5334C12 26.5465 12 26.5597 12 26.5729C12 26.586 12 26.5992 12 26.6124C12 26.6256 12 26.6388 12 26.652C12 26.6652 12 26.6784 12 26.6916C12 26.7048 12 26.718 12 26.7313C12 26.7445 12 26.7577 12 26.771C12 26.7842 12 26.7975 12 26.8107C12 26.824 12 26.8373 12 26.8505C12 26.8638 12 26.8771 12 26.8904C12 26.9037 12 26.917 12 26.9303C12 26.9436 12 26.9569 12 26.9703C12 26.9836 12 26.9969 12 27.0103C12 27.0236 12 27.037 12 27.0503C12 27.0637 12 27.077 12 27.0904C12 27.1038 12 27.1172 12 27.1305C12 27.1439 12 27.1573 12 27.1707C12 27.1841 12 27.1975 12 27.211C12 27.2244 12 27.2378 12 27.2512C12 27.2647 12 27.2781 12 27.2916C12 27.305 12 27.3185 12 27.3319C12 27.3454 12 27.3589 12 27.3723C12 27.3858 12 27.3993 12 27.4128C12 27.4263 12 27.4398 12 27.4533C12 27.4668 12 27.4803 12 27.4938C12 27.5074 12 27.5209 12 27.5344C12 27.548 12 27.5615 12 27.5751C12 27.5886 12 27.6022 12 27.6157C12 27.6293 12 27.6429 12 27.6565C12 27.67 12 27.6836 12 27.6972C12 27.7108 12 27.7244 12 27.738C12 27.7516 12 27.7653 12 27.7789C12 27.7925 12 27.8061 12 27.8198C12 27.8334 12 27.8471 12 27.8607C12 27.8744 12 27.888 12 27.9017C12 27.9154 12 27.929 12 27.9427C12 27.9564 12 27.9701 12 27.9838C12 27.9975 12 28.0112 12 28.0249C12 28.0386 12 28.0523 12 28.066C12 28.0798 12 28.0935 12 28.1072C12 28.121 12 28.1347 12 28.1485C12 28.1622 12 28.176 12 28.1898C12 28.2035 12 28.2173 12 28.2311C12 28.2449 12 28.2586 12 28.2724C12 28.2862 12 28.3 12 28.3138C12 28.3277 12 28.3415 12 28.3553C12 28.3691 12 28.3829 12 28.3968C12 28.4106 12 28.4245 12 28.4383C12 28.4521 12 28.466 12 28.4799C12 28.4937 12 28.5076 12 28.5215C12 28.5354 12 28.5492 12 28.5631C12 28.577 12 28.5909 12 28.6048C12 28.6187 12 28.6326 12 28.6465C12 28.6605 12 28.6744 12 28.6883C12 28.7022 12 28.7162 12 28.7301C12 28.7441 12 28.758 12 28.772C12 28.7859 12 28.7999 12 28.8139C12 28.8278 12 28.8418 12 28.8558C12 28.8698 12 28.8837 12 28.8977C12 28.9117 12 28.9257 12 28.9397C12 28.9538 12 28.9678 12 28.9818C12 28.9958 12 29.0098 12 29.0239C12 29.0379 12 29.0519 12 29.066C12 29.08 12 29.0941 12 29.1082C12 29.1222 12 29.1363 12 29.1503C12 29.1644 12 29.1785 12 29.1926C12 29.2067 12 29.2208 12 29.2349C12 29.249 12 29.2631 12 29.2772C12 29.2913 12 29.3054 12 29.3195C12 29.3336 12 29.3478 12 29.3619C12 29.376 12 29.3902 12 29.4043C12 29.4185 12 29.4326 12 29.4468C12 29.4609 12 29.4751 12 29.4893C12 29.5035 12 29.5176 12 29.5318C12 29.546 12 29.5602 12 29.5744C12 29.5886 12 29.6028 12 29.617C12 29.6312 12 29.6454 12 29.6596C12 29.6739 12 29.6881 12 29.7023C12 29.7165 12 29.7308 12 29.745C12 29.7593 12 29.7735 12 29.7878C12 29.802 12 29.8163 12 29.8306C12 29.8448 12 29.8591 12 29.8734C12 29.8877 12 29.902 12 29.9162C12 29.9305 12 29.9448 12 29.9591C12 29.9734 12 29.9877 12 30.0021C12 30.0164 12 30.0307 12 30.045C12 30.0594 12 30.0737 12 30.088C12 30.1024 12 30.1167 12 30.1311C12 30.1454 12 30.1598 12 30.1741C12 30.1885 12 30.2028 12 30.2172C12 30.2316 12 30.246 12 30.2604C12 30.2747 12 30.2891 12 30.3035C12 30.3179 12 30.3323 12 30.3467C12 30.3611 12 30.3755 12 30.39C12 30.4044 12 30.4188 12 30.4332C12 30.4477 12 30.4621 12 30.4765C12 30.491 12 30.5054 12 30.5199C12 30.5343 12 30.5488 12 30.5632C12 30.5777 12 30.5922 12 30.6066C12 30.6211 12 30.6356 12 30.6501C12 30.6645 12 30.679 12 30.6935C12 30.708 12 30.7225 12 30.737C12 30.7515 12 30.766 12 30.7806C12 30.7951 12 30.8096 12 30.8241C12 30.8386 12 30.8532 12 30.8677C12 30.8822 12 30.8968 12 30.9113C12 30.9259 12 30.9404 12 30.955C12 30.9695 12 30.9841 12 30.9987C12 31.0132 12 31.0278 12 31.0424C12 31.057 12 31.0716 12 31.0861C12 31.1007 12 31.1153 12 31.1299C12 31.1445 12 31.1591 12 31.1737C12 31.1883 12 31.203 12 31.2176C12 31.2322 12 31.2468 12 31.2615C12 31.2761 12 31.2907 12 31.3054C12 31.32 12 31.3346 12 31.3493C12 31.3639 12 31.3786 12 31.3932C12 31.4079 12 31.4226 12 31.4372C12 31.4519 12 31.4666 12 31.4813C12 31.4959 12 31.5106 12 31.5253C12 31.54 12 31.5547 12 31.5694C12 31.5841 12 31.5988 12 31.6135C12 31.6282 12 31.6429 12 31.6576C12 31.6724 12 31.6871 12 31.7018C12 31.7165 12 31.7313 12 31.746C12 31.7607 12 31.7755 12 31.7902C12 31.805 12 31.8197 12 31.8345C12 31.8492 12 31.864 12 31.8788C12 31.8935 12 31.9083 12 31.9231C12 31.9378 12 31.9526 12 31.9674C12 31.9822 12 31.997 12 32.0118C12 32.0266 12 32.0414 12 32.0562C12 32.071 12 32.0858 12 32.1006C12 32.1154 12 32.1302 12 32.145C12 32.1598 12 32.1747 12 32.1895C12 32.2043 12 32.2192 12 32.234C12 32.2488 12 32.2637 12 32.2785C12 32.2934 12 32.3082 12 32.3231C12 32.3379 12 32.3528 12 32.3677C12 32.3825 12 32.3974 12 32.4123C12 32.4271 12 32.442 12 32.4569C12 32.4718 12 32.4867 12 32.5016C12 32.5164 12 32.5313 12 32.5462C12 32.5611 12 32.576 12 32.5909C12 32.6059 12 32.6208 12 32.6357C12 32.6506 12 32.6655 12 32.6804C12 32.6954 12 32.7103 12 32.7252C12 32.7402 12 32.7551 12 32.77C12 32.785 12 32.7999 12 32.8149C12 32.8298 12 32.8448 12 32.8597C12 32.8747 12 32.8896 12 32.9046C12 32.9196 12 32.9345 12 32.9495C12 32.9645 12 32.9795 12 32.9944C12 33.0094 12 33.0244 12 33.0394C12 33.0544 12 33.0694 12 33.0844C12 33.0994 12 33.1144 12 33.1294C12 33.1444 12 33.1594 12 33.1744C12 33.1894 12 33.2044 12 33.2195C12 33.2345 12 33.2495 12 33.2645C12 33.2796 12 33.2946 12 33.3096C12 33.3247 12 33.3397 12 33.3547C12 33.3698 12 33.3848 12 33.3999C12 33.4149 12 33.43 12 33.445C12 33.4601 12 33.4752 12 33.4902C12 33.5053 12 33.5204 12 33.5354C12 33.5505 12 33.5656 12 33.5807C12 33.5958 12 33.6108 12 33.6259C12 33.641 12 33.6561 12 33.6712C12 33.6863 12 33.7014 12 33.7165C12 33.7316 12 33.7467 12 33.7618C12 33.7769 12 33.792 12 33.8072C12 33.8223 12 33.8374 12 33.8525C12 33.8676 12 33.8828 12 33.8979C12 33.913 12 33.9282 12 33.9433C12 33.9584 12 33.9736 12 33.9887C12 34.0039 12 34.019 12 34.0342C12 34.0493 12 34.0645 12 34.0796C12 34.0948 12 34.1099 12 34.1251C12 34.1403 12 34.1554 12 34.1706C12 34.1858 12 34.2009 12 34.2161C12 34.2313 12 34.2465 12 34.2617C12 34.2768 12 34.292 12 34.3072C12 34.3224 12 34.3376 12 34.3528C12 34.368 12 34.3832 12 34.3984C12 34.4136 12 34.4288 12 34.444C12 34.4592 12 34.4744 12 34.4897C12 34.5049 12 34.5201 12 34.5353C12 34.5505 12 34.5658 12 34.581C12 34.5962 12 34.6115 12 34.6267C12 34.6419 12 34.6572 12 34.6724C12 34.6876 12 34.7029 12 34.7181C12 34.7334 12 34.7486 12 34.7639C12 34.7791 12 34.7944 12 34.8096C12 34.8249 12 34.8402 12 34.8554C12 34.8707 12 34.886 12 34.9012C12 34.9165 12 34.9318 12 34.947C12 34.9623 12 34.9776 12 34.9929C12 35.0082 12 35.0234 12 35.0387C12 35.054 12 35.0693 12 35.0846C12 35.0999 12 35.1152 12 35.1305C12 35.1458 12 35.1611 12 35.1764C12 35.1917 12 35.207 12 35.2223C12 35.2376 12 35.2529 12 35.2682C12 35.2835 12 35.2989 12 35.3142C12 35.3295 12 35.3448 12 35.3601C12 35.3755 12 35.3908 12 35.4061C12 35.4215 12 35.4368 12 35.4521C12 35.4675 12 35.4828 12 35.4981H17C17 35.4828 17 35.4675 17 35.4521C17 35.4368 17 35.4215 17 35.4061C17 35.3908 17 35.3755 17 35.3601C17 35.3448 17 35.3295 17 35.3142C17 35.2989 17 35.2835 17 35.2682C17 35.2529 17 35.2376 17 35.2223C17 35.207 17 35.1917 17 35.1764C17 35.1611 17 35.1458 17 35.1305C17 35.1152 17 35.0999 17 35.0846C17 35.0693 17 35.054 17 35.0387C17 35.0234 17 35.0082 17 34.9929C17 34.9776 17 34.9623 17 34.947C17 34.9318 17 34.9165 17 34.9012C17 34.886 17 34.8707 17 34.8554C17 34.8402 17 34.8249 17 34.8096C17 34.7944 17 34.7791 17 34.7639C17 34.7486 17 34.7334 17 34.7181C17 34.7029 17 34.6876 17 34.6724C17 34.6572 17 34.6419 17 34.6267C17 34.6115 17 34.5962 17 34.581C17 34.5658 17 34.5505 17 34.5353C17 34.5201 17 34.5049 17 34.4897C17 34.4744 17 34.4592 17 34.444C17 34.4288 17 34.4136 17 34.3984C17 34.3832 17 34.368 17 34.3528C17 34.3376 17 34.3224 17 34.3072C17 34.292 17 34.2768 17 34.2617C17 34.2465 17 34.2313 17 34.2161C17 34.2009 17 34.1858 17 34.1706C17 34.1554 17 34.1403 17 34.1251C17 34.1099 17 34.0948 17 34.0796C17 34.0645 17 34.0493 17 34.0342C17 34.019 17 34.0039 17 33.9887C17 33.9736 17 33.9584 17 33.9433C17 33.9282 17 33.913 17 33.8979C17 33.8828 17 33.8676 17 33.8525C17 33.8374 17 33.8223 17 33.8072C17 33.792 17 33.7769 17 33.7618C17 33.7467 17 33.7316 17 33.7165C17 33.7014 17 33.6863 17 33.6712C17 33.6561 17 33.641 17 33.6259C17 33.6108 17 33.5958 17 33.5807C17 33.5656 17 33.5505 17 33.5354C17 33.5204 17 33.5053 17 33.4902C17 33.4752 17 33.4601 17 33.445C17 33.43 17 33.4149 17 33.3999C17 33.3848 17 33.3698 17 33.3547C17 33.3397 17 33.3247 17 33.3096C17 33.2946 17 33.2796 17 33.2645C17 33.2495 17 33.2345 17 33.2195C17 33.2044 17 33.1894 17 33.1744C17 33.1594 17 33.1444 17 33.1294C17 33.1144 17 33.0994 17 33.0844C17 33.0694 17 33.0544 17 33.0394C17 33.0244 17 33.0094 17 32.9944C17 32.9795 17 32.9645 17 32.9495C17 32.9345 17 32.9196 17 32.9046C17 32.8896 17 32.8747 17 32.8597C17 32.8448 17 32.8298 17 32.8149C17 32.7999 17 32.785 17 32.77C17 32.7551 17 32.7402 17 32.7252C17 32.7103 17 32.6954 17 32.6804C17 32.6655 17 32.6506 17 32.6357C17 32.6208 17 32.6059 17 32.5909C17 32.576 17 32.5611 17 32.5462C17 32.5313 17 32.5164 17 32.5016C17 32.4867 17 32.4718 17 32.4569C17 32.442 17 32.4271 17 32.4123C17 32.3974 17 32.3825 17 32.3677C17 32.3528 17 32.3379 17 32.3231C17 32.3082 17 32.2934 17 32.2785C17 32.2637 17 32.2488 17 32.234C17 32.2192 17 32.2043 17 32.1895C17 32.1747 17 32.1598 17 32.145C17 32.1302 17 32.1154 17 32.1006C17 32.0858 17 32.071 17 32.0562C17 32.0414 17 32.0266 17 32.0118C17 31.997 17 31.9822 17 31.9674C17 31.9526 17 31.9378 17 31.9231C17 31.9083 17 31.8935 17 31.8788C17 31.864 17 31.8492 17 31.8345C17 31.8197 17 31.805 17 31.7902C17 31.7755 17 31.7607 17 31.746C17 31.7313 17 31.7165 17 31.7018C17 31.6871 17 31.6724 17 31.6576C17 31.6429 17 31.6282 17 31.6135C17 31.5988 17 31.5841 17 31.5694C17 31.5547 17 31.54 17 31.5253C17 31.5106 17 31.4959 17 31.4813C17 31.4666 17 31.4519 17 31.4372C17 31.4226 17 31.4079 17 31.3932C17 31.3786 17 31.3639 17 31.3493C17 31.3346 17 31.32 17 31.3054C17 31.2907 17 31.2761 17 31.2615C17 31.2468 17 31.2322 17 31.2176C17 31.203 17 31.1883 17 31.1737C17 31.1591 17 31.1445 17 31.1299C17 31.1153 17 31.1007 17 31.0861C17 31.0716 17 31.057 17 31.0424C17 31.0278 17 31.0132 17 30.9987C17 30.9841 17 30.9695 17 30.955C17 30.9404 17 30.9259 17 30.9113C17 30.8968 17 30.8822 17 30.8677C17 30.8532 17 30.8386 17 30.8241C17 30.8096 17 30.7951 17 30.7806C17 30.766 17 30.7515 17 30.737C17 30.7225 17 30.708 17 30.6935C17 30.679 17 30.6645 17 30.6501C17 30.6356 17 30.6211 17 30.6066C17 30.5922 17 30.5777 17 30.5632C17 30.5488 17 30.5343 17 30.5199C17 30.5054 17 30.491 17 30.4765C17 30.4621 17 30.4477 17 30.4332C17 30.4188 17 30.4044 17 30.39C17 30.3755 17 30.3611 17 30.3467C17 30.3323 17 30.3179 17 30.3035C17 30.2891 17 30.2747 17 30.2604C17 30.246 17 30.2316 17 30.2172C17 30.2028 17 30.1885 17 30.1741C17 30.1598 17 30.1454 17 30.1311C17 30.1167 17 30.1024 17 30.088C17 30.0737 17 30.0594 17 30.045C17 30.0307 17 30.0164 17 30.0021C17 29.9877 17 29.9734 17 29.9591C17 29.9448 17 29.9305 17 29.9162C17 29.902 17 29.8877 17 29.8734C17 29.8591 17 29.8448 17 29.8306C17 29.8163 17 29.802 17 29.7878C17 29.7735 17 29.7593 17 29.745C17 29.7308 17 29.7165 17 29.7023C17 29.6881 17 29.6739 17 29.6596C17 29.6454 17 29.6312 17 29.617C17 29.6028 17 29.5886 17 29.5744C17 29.5602 17 29.546 17 29.5318C17 29.5176 17 29.5035 17 29.4893C17 29.4751 17 29.4609 17 29.4468C17 29.4326 17 29.4185 17 29.4043C17 29.3902 17 29.376 17 29.3619C17 29.3478 17 29.3336 17 29.3195C17 29.3054 17 29.2913 17 29.2772C17 29.2631 17 29.249 17 29.2349C17 29.2208 17 29.2067 17 29.1926C17 29.1785 17 29.1644 17 29.1503C17 29.1363 17 29.1222 17 29.1082C17 29.0941 17 29.08 17 29.066C17 29.0519 17 29.0379 17 29.0239C17 29.0098 17 28.9958 17 28.9818C17 28.9678 17 28.9538 17 28.9397C17 28.9257 17 28.9117 17 28.8977C17 28.8837 17 28.8698 17 28.8558C17 28.8418 17 28.8278 17 28.8139C17 28.7999 17 28.7859 17 28.772C17 28.758 17 28.7441 17 28.7301C17 28.7162 17 28.7022 17 28.6883C17 28.6744 17 28.6605 17 28.6465C17 28.6326 17 28.6187 17 28.6048C17 28.5909 17 28.577 17 28.5631C17 28.5492 17 28.5354 17 28.5215C17 28.5076 17 28.4937 17 28.4799C17 28.466 17 28.4521 17 28.4383C17 28.4245 17 28.4106 17 28.3968C17 28.3829 17 28.3691 17 28.3553C17 28.3415 17 28.3277 17 28.3138C17 28.3 17 28.2862 17 28.2724C17 28.2586 17 28.2449 17 28.2311C17 28.2173 17 28.2035 17 28.1898C17 28.176 17 28.1622 17 28.1485C17 28.1347 17 28.121 17 28.1072C17 28.0935 17 28.0798 17 28.066C17 28.0523 17 28.0386 17 28.0249C17 28.0112 17 27.9975 17 27.9838C17 27.9701 17 27.9564 17 27.9427C17 27.929 17 27.9154 17 27.9017C17 27.888 17 27.8744 17 27.8607C17 27.8471 17 27.8334 17 27.8198C17 27.8061 17 27.7925 17 27.7789C17 27.7653 17 27.7516 17 27.738C17 27.7244 17 27.7108 17 27.6972C17 27.6836 17 27.67 17 27.6565C17 27.6429 17 27.6293 17 27.6157C17 27.6022 17 27.5886 17 27.5751C17 27.5615 17 27.548 17 27.5344C17 27.5209 17 27.5074 17 27.4938C17 27.4803 17 27.4668 17 27.4533C17 27.4398 17 27.4263 17 27.4128C17 27.3993 17 27.3858 17 27.3723C17 27.3589 17 27.3454 17 27.3319C17 27.3185 17 27.305 17 27.2916C17 27.2781 17 27.2647 17 27.2512C17 27.2378 17 27.2244 17 27.211C17 27.1975 17 27.1841 17 27.1707C17 27.1573 17 27.1439 17 27.1305C17 27.1172 17 27.1038 17 27.0904C17 27.077 17 27.0637 17 27.0503C17 27.037 17 27.0236 17 27.0103C17 26.9969 17 26.9836 17 26.9703C17 26.9569 17 26.9436 17 26.9303C17 26.917 17 26.9037 17 26.8904C17 26.8771 17 26.8638 17 26.8505C17 26.8373 17 26.824 17 26.8107C17 26.7975 17 26.7842 17 26.771C17 26.7577 17 26.7445 17 26.7313C17 26.718 17 26.7048 17 26.6916C17 26.6784 17 26.6652 17 26.652C17 26.6388 17 26.6256 17 26.6124C17 26.5992 17 26.586 17 26.5729C17 26.5597 17 26.5465 17 26.5334C17 26.5202 17 26.5071 17 26.4939C17 26.4808 17 26.4677 17 26.4546C17 26.4414 17 26.4283 17 26.4152C17 26.4021 17 26.389 17 26.3759C17 26.3629 17 26.3498 17 26.3367C17 26.3236 17 26.3106 17 26.2975C17 26.2845 17 26.2714 17 26.2584C17 26.2453 17 26.2323 17 26.2193C17 26.2063 17 26.1933 17 26.1803C17 26.1673 17 26.1543 17 26.1413C17 26.1283 17 26.1153 17 26.1023C17 26.0894 17 26.0764 17 26.0634C17 26.0505 17 26.0375 17 26.0246C17 26.0117 17 25.9987 17 25.9858C17 25.9729 17 25.96 17 25.9471C17 25.9342 17 25.9213 17 25.9084C17 25.8955 17 25.8826 17 25.8697C17 25.8569 17 25.844 17 25.8312C17 25.8183 17 25.8055 17 25.7926C17 25.7798 17 25.767 17 25.7541C17 25.7413 17 25.7285 17 25.7157C17 25.7029 17 25.6901 17 25.6773C17 25.6645 17 25.6518 17 25.639C17 25.6262 17 25.6135 17 25.6007C17 25.588 17 25.5752 17 25.5625C17 25.5498 17 25.537 17 25.5243C17 25.5116 17 25.4989 17 25.4862C17 25.4735 17 25.4608 17 25.4481C17 25.4355 17 25.4228 17 25.4101C17 25.3975 17 25.3848 17 25.3722C17 25.3595 17 25.3469 17 25.3342C17 25.3216 17 25.309 17 25.2964C17 25.2838 17 25.2712 17 25.2586C17 25.246 17 25.2334 17 25.2208C17 25.2083 17 25.1957 17 25.1831C17 25.1706 17 25.158 17 25.1455C17 25.133 17 25.1204 17 25.1079C17 25.0954 17 25.0829 17 25.0704C17 25.0579 17 25.0454 17 25.0329C17 25.0204 17 25.0079 17 24.9955C17 24.983 17 24.9706 17 24.9581C17 24.9457 17 24.9332 17 24.9208C17 24.9084 17 24.896 17 24.8835C17 24.8711 17 24.8587 17 24.8463C17 24.8339 17 24.8216 17 24.8092C17 24.7968 17 24.7844 17 24.7721C17 24.7597 17 24.7474 17 24.7351C17 24.7227 17 24.7104 17 24.6981C17 24.6858 17 24.6734 17 24.6611C17 24.6488 17 24.6366 17 24.6243C17 24.612 17 24.5997 17 24.5875C17 24.5752 17 24.5629 17 24.5507C17 24.5385 17 24.5262 17 24.514C17 24.5018 17 24.4896 17 24.4774C17 24.4651 17 24.453 17 24.4408C17 24.4286 17 24.4164 17 24.4042C17 24.3921 17 24.3799 17 24.3678C17 24.3556 17 24.3435 17 24.3313C17 24.3192 17 24.3071 17 24.295C17 24.2829 17 24.2708 17 24.2587C17 24.2466 17 24.2345 17 24.2224C17 24.2104 17 24.1983 17 24.1863C17 24.1742 17 24.1622 17 24.1501C17 24.1381 17 24.1261 17 24.1141C17 24.1021 17 24.09 17 24.0781C17 24.0661 17 24.0541 17 24.0421C17 24.0301 17 24.0182 17 24.0062C17 23.9943 17 23.9823 17 23.9704C17 23.9584 17 23.9465 17 23.9346C17 23.9227 17 23.9108 17 23.8989C17 23.887 17 23.8751 17 23.8632C17 23.8514 17 23.8395 17 23.8276C17 23.8158 17 23.8039 17 23.7921C17 23.7803 17 23.7684 17 23.7566C17 23.7448 17 23.733 17 23.7212C17 23.7094 17 23.6976 17 23.6858C17 23.6741 17 23.6623 17 23.6506C17 23.6388 17 23.6271 17 23.6153C17 23.6036 17 23.5919 17 23.5801C17 23.5684 17 23.5567 17 23.545C17 23.5333 17 23.5217 17 23.51C17 23.4983 17 23.4866 17 23.475C17 23.4633 17 23.4517 17 23.4401C17 23.4284 17 23.4168 17 23.4052C17 23.3936 17 23.382 17 23.3704C17 23.3588 17 23.3472 17 23.3356C17 23.3241 17 23.3125 17 23.301C17 23.2894 17 23.2779 17 23.2663C17 23.2548 17 23.2433 17 23.2318C17 23.2203 17 23.2088 17 23.1973C17 23.1858 17 23.1743 17 23.1628C17 23.1514 17 23.1399 17 23.1285C17 23.117 17 23.1056 17 23.0942C17 23.0827 17 23.0713 17 23.0599C17 23.0485 17 23.0371 17 23.0257C17 23.0144 17 23.003 17 22.9916C17 22.9803 17 22.9689 17 22.9576C17 22.9462 17 22.9349 17 22.9236C17 22.9123 17 22.901 17 22.8897C17 22.8784 17 22.8671 17 22.8558C17 22.8445 17 22.8332 17 22.822C17 22.8107 17 22.7995 17 22.7883C17 22.777 17 22.7658 17 22.7546C17 22.7434 17 22.7322 17 22.721C17 22.7098 17 22.6986 17 22.6874C17 22.6763 17 22.6651 17 22.654C17 22.6428 17 22.6317 17 22.6206C17 22.6094 17 22.5983 17 22.5872C17 22.5761 17 22.565 17 22.5539C17 22.5429 17 22.5318 17 22.5207C17 22.5097 17 22.4986 17 22.4876C17 22.4765 17 22.4655 17 22.4545C17 22.4435 17 22.4325 17 22.4215C17 22.4105 17 22.3995 17 22.3885C17 22.3776 17 22.3666 17 22.3557C17 22.3447 17 22.3338 17 22.3228C17 22.3119 17 22.301 17 22.2901C17 22.2792 17 22.2683 17 22.2574C17 22.2465 17 22.2357 17 22.2248C17 22.2139 17 22.2031 17 22.1922C17 22.1814 17 22.1706 17 22.1598C17 22.149 17 22.1381 17 22.1274C17 22.1166 17 22.1058 17 22.095C17 22.0842 17 22.0735 17 22.0627C17 22.052 17 22.0413 17 22.0305C17 22.0198 17 22.0091 17 21.9984C17 21.9877 17 21.977 17 21.9663C17 21.9556 17 21.945 17 21.9343C17 21.9237 17 21.913 17 21.9024C17 21.8917 17 21.8811 17 21.8705C17 21.8599 17 21.8493 17 21.8387C17 21.8281 17 21.8176 17 21.807C17 21.7964 17 21.7859 17 21.7753C17 21.7648 17 21.7543 17 21.7437C17 21.7332 17 21.7227 17 21.7122C17 21.7017 17 21.6912 17 21.6808C17 21.6703 17 21.6598 17 21.6494C17 21.6389 17 21.6285 17 21.6181C17 21.6077 17 21.5972 17 21.5868C17 21.5764 17 21.5661 17 21.5557C17 21.5453 17 21.5349 17 21.5246C17 21.5142 17 21.5039 17 21.4936C17 21.4832 17 21.4729 17 21.4626C17 21.4523 17 21.442 17 21.4317C17 21.4214 17 21.4112 17 21.4009C17 21.3906 17 21.3804 17 21.3702C17 21.3599 17 21.3497 17 21.3395C17 21.3293 17 21.3191 17 21.3089C17 21.2987 17 21.2885 17 21.2784C17 21.2682 17 21.2581 17 21.2479C17 21.2378 17 21.2276 17 21.2175C17 21.2074 17 21.1973 17 21.1872C17 21.1771 17 21.167 17 21.157C17 21.1469 17 21.1369 17 21.1268C17 21.1168 17 21.1067 17 21.0967C17 21.0867 17 21.0767 17 21.0667C17 21.0567 17 21.0467 17 21.0368C17 21.0268 17 21.0168 17 21.0069C17 20.9969 17 20.987 17 20.9771C17 20.9672 17 20.9573 17 20.9474C17 20.9375 17 20.9276 17 20.9177C17 20.9078 17 20.898 17 20.8881C17 20.8783 17 20.8685 17 20.8586C17 20.8488 17 20.839 17 20.8292C17 20.8194 17 20.8096 17 20.7999C17 20.7901 17 20.7803 17 20.7706C17 20.7608 17 20.7511 17 20.7414C17 20.7316 17 20.7219 17 20.7122C17 20.7025 17 20.6929 17 20.6832C17 20.6735 17 20.6639 17 20.6542C17 20.6446 17 20.6349 17 20.6253C17 20.6157 17 20.6061 17 20.5965C17 20.5869 17 20.5773 17 20.5677C17 20.5581 17 20.5486 17 20.539C17 20.5295 17 20.52 17 20.5104C17 20.5009 17 20.4914 17 20.4819C17 20.4724 17 20.4629 17 20.4535C17 20.444 17 20.4345 17 20.4251C17 20.4157 17 20.4062 17 20.3968C17 20.3874 17 20.378 17 20.3686C17 20.3592 17 20.3498 17 20.3404C17 20.3311 17 20.3217 17 20.3124C17 20.303 17 20.2937 17 20.2844C17 20.2751 17 20.2658 17 20.2565C17 20.2472 17 20.2379 17 20.2287C17 20.2194 17 20.2101 17 20.2009C17 20.1917 17 20.1824 17 20.1732C17 20.164 17 20.1548 17 20.1456C17 20.1364 17 20.1273 17 20.1181C17 20.109 17 20.0998 17 20.0907C17 20.0815 17 20.0724 17 20.0633C17 20.0542 17 20.0451 17 20.036C17 20.0269 17 20.0179 17 20.0088C17 19.9998 17 19.9907 17 19.9817C17 19.9727 17 19.9637 17 19.9547C17 19.9457 17 19.9367 17 19.9277C17 19.9187 17 19.9097 17 19.9008C17 19.8919 17 19.8829 17 19.874C17 19.8651 17 19.8562 17 19.8473C17 19.8384 17 19.8295 17 19.8206C17 19.8118 17 19.8029 17 19.7941C17 19.7852 17 19.7764 17 19.7676C17 19.7588 17 19.7499 17 19.7412C17 19.7324 17 19.7236 17 19.7148C17 19.7061 17 19.6973 17 19.6886C17 19.6799 17 19.6711 17 19.6624C17 19.6537 17 19.645 17 19.6363C17 19.6277 17 19.619 17 19.6103C17 19.6017 17 19.5931 17 19.5844C17 19.5758 17 19.5672 17 19.5586C17 19.55 17 19.5414 17 19.5328C17 19.5243 17 19.5157 17 19.5072C17 19.4986 17 19.4901 17 19.4816C17 19.4731 17 19.4645 17 19.4561C17 19.4476 17 19.4391 17 19.4306C17 19.4222 17 19.4137 17 19.4053C17 19.3969 17 19.3884 17 19.38C17 19.3716 17 19.3632 17 19.3548C17 19.3465 17 19.3381 17 19.3298C17 19.3214 17 19.3131 17 19.3047C17 19.2964 17 19.2881 17 19.2798C17 19.2715 17 19.2632 17 19.255C17 19.2467 17 19.2384 17 19.2302C17 19.222 17 19.2137 17 19.2055C17 19.1973 17 19.1891 17 19.1809C17 19.1728 17 19.1646 17 19.1564C17 19.1483 17 19.1401 17 19.132C17 19.1239 17 19.1158 17 19.1077C17 19.0996 17 19.0915 17 19.0834C17 19.0753 17 19.0673 17 19.0592C17 19.0512 17 19.0432 17 19.0352C17 19.0271 17 19.0191 17 19.0112C17 19.0032 17 18.9952 17 18.9872C17 18.9793 17 18.9713 17 18.9634C17 18.9555 17 18.9476 17 18.9397C17 18.9318 17 18.9239 17 18.916C17 18.9081 17 18.9003 17 18.8924C17 18.8846 17 18.8768 17 18.8689C17 18.8611 17 18.8533 17 18.8455C17 18.8378 17 18.83 17 18.8222C17 18.8145 17 18.8067 17 18.799C17 18.7913 17 18.7836 17 18.7759C17 18.7682 17 18.7605 17 18.7528C17 18.7451 17 18.7375 17 18.7298C17 18.7222 17 18.7146 17 18.707C17 18.6994 17 18.6918 17 18.6842C17 18.6766 17 18.669 17 18.6615C17 18.6539 17 18.6464 17 18.6389C17 18.6313 17 18.6238 17 18.6163C17 18.6088 17 18.6014 17 18.5939C17 18.5864 17 18.579 17 18.5715C17 18.5641 17 18.5567 17 18.5493C17 18.5419 17 18.5345 17 18.5271C17 18.5197 17 18.5124 17 18.505C17 18.4977 17 18.4903 17 18.483C17 18.4757 17 18.4684 17 18.4611C17 18.4538 17 18.4466 17 18.4393C17 18.432 17 18.4248 17 18.4176C17 18.4103 17 18.4031 17 18.3959C17 18.3887 17 18.3815 17 18.3744C17 18.3672 17 18.3601 17 18.3529C17 18.3458 17 18.3387 17 18.3315C17 18.3244 17 18.3173 17 18.3103C17 18.3032 17 18.2961 17 18.2891C17 18.282 17 18.275 17 18.268C17 18.261 17 18.254 17 18.247C17 18.24 17 18.233 17 18.226C17 18.2191 17 18.2121 17 18.2052C17 18.1983 17 18.1914 17 18.1845C17 18.1776 17 18.1707 17 18.1638C17 18.157 17 18.1501 17 18.1433C17 18.1364 17 18.1296 17 18.1228C17 18.116 17 18.1092 17 18.1025C17 18.0957 17 18.0889 17 18.0822C17 18.0754 17 18.0687 17 18.062C17 18.0553 17 18.0486 17 18.0419C17 18.0352 17 18.0285 17 18.0219C17 18.0152 17 18.0086 17 18.002C17 17.9954 17 17.9888 17 17.9822C17 17.9756 17 17.969 17 17.9624C17 17.9559 17 17.9493 17 17.9428C17 17.9363 17 17.9298 17 17.9233C17 17.9168 17 17.9103 17 17.9038C17 17.8974 17 17.8909 17 17.8845C17 17.878 17 17.8716 17 17.8652C17 17.8588 17 17.8524 17 17.8461C17 17.8397 17 17.8333 17 17.827C17 17.8207 17 17.8143 17 17.808C17 17.8017 17 17.7954 17 17.7891C17 17.7829 17 17.7766 17 17.7704C17 17.7641 17 17.7579 17 17.7517C17 17.7454 17 17.7392 17 17.7331C17 17.7269 17 17.7207 17 17.7146C17 17.7084 17 17.7023 17 17.6962C17 17.69 17 17.6839 17 17.6778C17 17.6718 17 17.6657 17 17.6596C17 17.6536 17 17.6475 17 17.6415C17 17.6355 17 17.6295 17 17.6235C17 17.6175 17 17.6115 17 17.6056C17 17.5996 17 17.5936 17 17.5877C17 17.5818 17 17.5759 17 17.57C17 17.5641 17 17.5582 17 17.5523C17 17.5465 17 17.5406 17 17.5348C17 17.529 17 17.5231 17 17.5174C17 17.5116 17 17.5058 17 17.5H12Z" fill="#1F9FE8"/>
</svg>
