<svg width="304" height="416"  preserveAspectRatio="xMidYMax slice" viewBox="0 0 304 416" fill="none" xmlns="http://www.w3.org/2000/svg">
<path fill-rule="evenodd" clip-rule="evenodd" d="M293.336 20.2415C294.586 23.0691 295.405 26.0411 295.774 29.0699C296.023 31.1141 294.331 32.7895 292.271 32.7895C290.212 32.7895 288.572 31.1104 288.256 29.0755C287.928 26.9645 287.321 24.8948 286.446 22.915C285.062 19.7845 283.033 16.9399 280.476 14.5439C277.918 12.1479 274.882 10.2472 271.54 8.95048C269.277 8.07236 266.904 7.48283 264.485 7.19372C262.569 6.9648 261 5.42239 261 3.49317C261 1.56394 262.567 -0.0169946 264.488 0.163239C267.888 0.482244 271.226 1.26652 274.394 2.49595C278.64 4.14377 282.499 6.55903 285.749 9.60381C288.999 12.6486 291.577 16.2633 293.336 20.2415Z" fill="#1F9FE8"/>
<rect opacity="0.5" x="0.5" y="43.5" width="246" height="318" rx="19.5" fill="#BDE7FF" stroke="#1F9FE8"/>
<rect opacity="0.5" x="144.5" y="215.5" width="159" height="200" rx="11.5" fill="#BDE7FF" stroke="#1F9FE8"/>
<rect x="28" y="73" width="160" height="22" rx="11" fill="#1F9FE8" fill-opacity="0.16"/>
<rect x="28" y="113" width="90" height="22" rx="11" fill="#1F9FE8" fill-opacity="0.16"/>
<rect x="28" y="153" width="90" height="22" rx="11" fill="#1F9FE8" fill-opacity="0.16"/>
<rect x="28" y="193" width="54" height="22" rx="11" fill="#1F9FE8" fill-opacity="0.16"/>
<path d="M223.5 31C223.5 24.6487 228.649 19.5 235 19.5H267C273.351 19.5 278.5 24.6487 278.5 31V63C278.5 69.3513 273.351 74.5 267 74.5H235C228.649 74.5 223.5 69.3513 223.5 63V31Z" fill="white" stroke="#115074"/>
<g clip-path="url(#clip0_957_1019)">
<path d="M263 35H239C237.533 35 236.333 36.2 236.333 37.6667V53.6667C236.333 55.1333 237.533 56.3333 239 56.3333H245.667V59H256.333V56.3333H263C264.467 56.3333 265.653 55.1333 265.653 53.6667L265.667 37.6667C265.667 36.2 264.467 35 263 35ZM263 53.6667H239V37.6667H263V53.6667ZM260.333 41.6667H245.667V44.3333H260.333V41.6667ZM260.333 47H245.667V49.6667H260.333V47ZM244.333 41.6667H241.667V44.3333H244.333V41.6667ZM244.333 47H241.667V49.6667H244.333V47Z" fill="#115074"/>
</g>
<defs>
<clipPath id="clip0_957_1019">
<rect width="32" height="32" fill="white" transform="translate(235 31)"/>
</clipPath>
</defs>
</svg>
