<svg width="1068" height="24" viewBox="0 0 1068 24" fill="none" xmlns="http://www.w3.org/2000/svg">
<rect x="5.24792" y="12.25" width="1059.5" height="0.5" fill="#24506A" stroke="#24506A" stroke-width="0.5"/>
<path d="M8.4959 12.5C8.4959 14.7094 6.70574 16.5 4.49795 16.5C2.29016 16.5 0.5 14.7094 0.5 12.5C0.5 10.2906 2.29016 8.5 4.49795 8.5C6.70574 8.5 8.4959 10.2906 8.4959 12.5Z" fill="#24506A" stroke="#24506A"/>
<path d="M1066.17 12.0619C1066.51 12.2519 1066.51 12.7481 1066.17 12.9381L1059.24 16.7468C1058.91 16.9301 1058.5 16.689 1058.5 16.3087L1058.5 8.69127C1058.5 8.31097 1058.91 8.06989 1059.24 8.25316L1066.17 12.0619Z" fill="#24506A" stroke="#24506A"/>
<circle cx="68" cy="12" r="11.5" fill="white" stroke="#24506A"/>
<path d="M67.975 17V9.23L68.437 10.014H65.455V8.768H67.023C67.3403 8.768 67.5783 8.70267 67.737 8.572C67.8957 8.44133 67.975 8.208 67.975 7.872V7.242H69.529V17H67.975Z" fill="#24506A"/>
<circle cx="328" cy="12" r="11.5" fill="white" stroke="#24506A"/>
<path d="M324.685 17V15.796C324.993 15.5627 325.352 15.2967 325.763 14.998C326.174 14.6993 326.589 14.3727 327.009 14.018C327.438 13.6633 327.835 13.2853 328.199 12.884C328.563 12.4733 328.857 12.0487 329.081 11.61C329.314 11.1713 329.431 10.7187 329.431 10.252C329.431 9.78533 329.305 9.40267 329.053 9.104C328.801 8.796 328.414 8.642 327.891 8.642C327.49 8.642 327.163 8.74 326.911 8.936C326.659 9.132 326.472 9.39333 326.351 9.72C326.23 10.0373 326.164 10.3827 326.155 10.756L324.629 10.63C324.629 10.182 324.699 9.75267 324.839 9.342C324.988 8.922 325.203 8.54867 325.483 8.222C325.763 7.886 326.108 7.62467 326.519 7.438C326.93 7.242 327.401 7.144 327.933 7.144C328.53 7.144 329.053 7.27 329.501 7.522C329.958 7.774 330.313 8.12867 330.565 8.586C330.826 9.04333 330.957 9.58 330.957 10.196C330.957 10.7 330.868 11.1853 330.691 11.652C330.523 12.1187 330.28 12.5667 329.963 12.996C329.655 13.416 329.291 13.8173 328.871 14.2C328.451 14.5733 327.994 14.928 327.499 15.264C327.004 15.5907 326.482 15.8893 325.931 16.16L326.337 15.558H331.349V17H324.685Z" fill="#24506A"/>
<circle cx="660" cy="12" r="11.5" fill="white" stroke="#24506A"/>
<path d="M659.933 17.126C659.214 17.126 658.584 16.9953 658.043 16.734C657.502 16.4633 657.082 16.09 656.783 15.614C656.484 15.138 656.335 14.5827 656.335 13.948L657.889 13.85C657.889 14.3913 658.08 14.8253 658.463 15.152C658.846 15.4693 659.35 15.628 659.975 15.628C660.395 15.628 660.75 15.5673 661.039 15.446C661.338 15.3153 661.562 15.1287 661.711 14.886C661.87 14.6433 661.949 14.3587 661.949 14.032C661.949 13.7427 661.888 13.5 661.767 13.304C661.646 13.108 661.473 12.954 661.249 12.842C661.034 12.7207 660.768 12.6367 660.451 12.59C660.143 12.534 659.798 12.506 659.415 12.506V11.274C659.686 11.274 659.942 11.2507 660.185 11.204C660.428 11.1573 660.638 11.0827 660.815 10.98C661.002 10.868 661.146 10.728 661.249 10.56C661.352 10.3827 661.403 10.1633 661.403 9.902C661.403 9.64067 661.338 9.412 661.207 9.216C661.086 9.02 660.913 8.87067 660.689 8.768C660.474 8.656 660.218 8.6 659.919 8.6C659.415 8.6 659.023 8.73533 658.743 9.006C658.463 9.27667 658.318 9.63133 658.309 10.07L656.783 9.972C656.783 9.412 656.918 8.91733 657.189 8.488C657.46 8.05867 657.833 7.72267 658.309 7.48C658.794 7.23733 659.345 7.116 659.961 7.116C660.549 7.116 661.067 7.228 661.515 7.452C661.963 7.676 662.313 7.984 662.565 8.376C662.826 8.768 662.957 9.22533 662.957 9.748C662.957 9.99067 662.924 10.2147 662.859 10.42C662.794 10.6253 662.696 10.812 662.565 10.98C662.444 11.1387 662.299 11.2787 662.131 11.4C661.963 11.5213 661.781 11.624 661.585 11.708C661.856 11.792 662.108 11.8993 662.341 12.03C662.574 12.1607 662.775 12.324 662.943 12.52C663.12 12.716 663.256 12.94 663.349 13.192C663.452 13.444 663.503 13.7287 663.503 14.046C663.503 14.6527 663.354 15.1893 663.055 15.656C662.756 16.1133 662.336 16.4727 661.795 16.734C661.263 16.9953 660.642 17.126 659.933 17.126Z" fill="#24506A"/>
<circle cx="992" cy="12" r="11.5" fill="white" stroke="#24506A"/>
<path d="M992.661 17V14.69H988.237V13.486L992.829 7.242H994.215V13.248H995.769V14.69H994.215V17H992.661ZM989.469 13.794L989.413 13.248H992.661V8.824L992.857 9.02L989.469 13.794Z" fill="#24506A"/>
</svg>
