<svg width="154" height="52" viewBox="0 0 154 52" fill="none" xmlns="http://www.w3.org/2000/svg">
<path d="M49.5413 35.6571C48.6242 35.6571 47.7825 35.4888 47.0163 35.1522C46.25 34.8036 45.5825 34.3228 45.0136 33.7097C44.4564 33.0846 44.021 32.3513 43.7076 31.5098C43.3941 30.6683 43.2374 29.7426 43.2374 28.7328C43.2374 27.723 43.3941 26.7974 43.7076 25.9559C44.021 25.1144 44.4564 24.3811 45.0136 23.756C45.5825 23.1309 46.25 22.65 47.0163 22.3134C47.7825 21.9648 48.6242 21.7905 49.5413 21.7905C50.4237 21.7905 51.2131 21.9528 51.9097 22.2773C52.6179 22.6019 53.2099 23.0227 53.6859 23.5396C54.1735 24.0445 54.5218 24.5794 54.7308 25.1444L53.4247 25.7395C53.0997 24.9581 52.6004 24.333 51.9271 23.8642C51.2653 23.3833 50.4701 23.1429 49.5413 23.1429C48.5894 23.1429 47.7419 23.3773 46.9988 23.8461C46.2558 24.315 45.6754 24.9701 45.2574 25.8116C44.8395 26.6411 44.6305 27.6148 44.6305 28.7328C44.6305 29.8388 44.8395 30.8125 45.2574 31.654C45.6754 32.4955 46.2558 33.1507 46.9988 33.6195C47.7419 34.0763 48.5894 34.3047 49.5413 34.3047C50.4701 34.3047 51.2653 34.0703 51.9271 33.6015C52.6004 33.1326 53.0997 32.5075 53.4247 31.7261L54.7308 32.3212C54.5218 32.8742 54.1735 33.4091 53.6859 33.9261C53.2099 34.431 52.6179 34.8457 51.9097 35.1703C51.2131 35.4948 50.4237 35.6571 49.5413 35.6571Z" fill="#24506A"/>
<path d="M61.583 35.6571C60.7007 35.6571 59.8997 35.4408 59.1799 35.008C58.4601 34.5632 57.8854 33.9621 57.4558 33.2048C57.0379 32.4354 56.8289 31.5639 56.8289 30.5901C56.8289 29.6284 57.0379 28.7689 57.4558 28.0115C57.8738 27.2542 58.4369 26.6591 59.145 26.2264C59.8648 25.7816 60.6775 25.5592 61.583 25.5592C62.4886 25.5592 63.2954 25.7756 64.0036 26.2083C64.7234 26.6411 65.2865 27.2362 65.6928 27.9935C66.1107 28.7508 66.3197 29.6164 66.3197 30.5901C66.3197 31.5759 66.1049 32.4534 65.6754 33.2228C65.2458 33.9802 64.6712 34.5752 63.9514 35.008C63.2432 35.4408 62.4537 35.6571 61.583 35.6571ZM61.583 34.3047C62.2099 34.3047 62.773 34.1424 63.2722 33.8179C63.783 33.4933 64.1836 33.0485 64.4738 32.4835C64.7757 31.9185 64.9266 31.2874 64.9266 30.5901C64.9266 29.8929 64.7757 29.2678 64.4738 28.7148C64.1836 28.1618 63.783 27.723 63.2722 27.3984C62.773 27.0739 62.2099 26.9116 61.583 26.9116C60.9561 26.9116 60.3873 27.0739 59.8764 27.3984C59.3772 27.723 58.9767 28.1618 58.6748 28.7148C58.373 29.2678 58.2221 29.8929 58.2221 30.5901C58.2221 31.2874 58.373 31.9185 58.6748 32.4835C58.9767 33.0485 59.3772 33.4933 59.8764 33.8179C60.3873 34.1424 60.9561 34.3047 61.583 34.3047Z" fill="#24506A"/>
<path d="M73.1857 35.6571C72.315 35.6571 71.5313 35.4408 70.8348 35.008C70.1382 34.5632 69.5868 33.9621 69.1804 33.2048C68.7857 32.4354 68.5883 31.5699 68.5883 30.6082C68.5883 29.6344 68.7857 28.7689 69.1804 28.0115C69.5868 27.2542 70.1324 26.6591 70.8174 26.2264C71.5139 25.7816 72.3034 25.5592 73.1857 25.5592C73.9868 25.5592 74.7007 25.7395 75.3277 26.1001C75.766 26.3523 76.139 26.6661 76.4468 27.0417C76.4994 27.1059 76.5989 27.2396 76.5989 27.2396V26.9122V21.7905H77.905V35.4407H76.5989V34.0232V33.8657C76.5989 33.8657 76.5323 33.9718 76.4973 34.0232C76.1976 34.4626 75.8135 34.821 75.3451 35.0981C74.7065 35.4708 73.9868 35.6571 73.1857 35.6571ZM73.2554 34.3047C73.8823 34.3047 74.4453 34.1424 74.9445 33.8179C75.4554 33.4933 75.8559 33.0545 76.1461 32.5015C76.448 31.9365 76.5989 31.3054 76.5989 30.6082C76.5989 29.9109 76.448 29.2858 76.1461 28.7328C75.8559 28.1678 75.4554 27.723 74.9445 27.3984C74.4453 27.0739 73.8823 26.9116 73.2554 26.9116C72.6401 26.9116 72.0828 27.0739 71.5836 27.3984C71.0844 27.723 70.6897 28.1618 70.3994 28.7148C70.1208 29.2678 69.9815 29.8989 69.9815 30.6082C69.9815 31.3054 70.1208 31.9365 70.3994 32.5015C70.6897 33.0545 71.0786 33.4933 71.5662 33.8179C72.0654 34.1424 72.6284 34.3047 73.2554 34.3047Z" fill="#24506A"/>
<path d="M85.184 35.6571C84.3133 35.6571 83.5238 35.4408 82.8157 35.008C82.1191 34.5632 81.5676 33.9561 81.1613 33.1867C80.755 32.4174 80.5518 31.5458 80.5518 30.5721C80.5518 29.5984 80.7492 28.7388 81.1439 27.9935C81.5386 27.2362 82.0727 26.6411 82.746 26.2083C83.431 25.7756 84.1972 25.5592 85.0447 25.5592C85.718 25.5592 86.3159 25.6914 86.8384 25.9559C87.3724 26.2083 87.8252 26.5569 88.1967 27.0017C88.5682 27.4345 88.8526 27.9274 89.05 28.4804C89.2473 29.0213 89.346 29.5803 89.346 30.1574C89.346 30.2776 89.3402 30.4158 89.3286 30.5721C89.317 30.7163 89.2996 30.8666 89.2764 31.0229H81.8714V29.7606H87.9461C87.9461 29.7606 87.9406 29.5233 87.9278 29.4087C87.8929 29.0974 87.8084 28.806 87.6742 28.5345C87.4304 28.0055 87.0764 27.5908 86.612 27.2902C86.1476 26.9777 85.6252 26.8214 85.0447 26.8214C84.4642 26.8214 83.9244 26.9777 83.4252 27.2902C82.9376 27.6028 82.5544 28.0416 82.2758 28.6066C81.9972 29.1596 81.9441 29.804 81.945 30.5901C81.9459 31.3913 82.003 32.0327 82.2932 32.6097C82.5951 33.1747 83.0014 33.6135 83.5122 33.9261C84.0347 34.2386 84.5919 34.3949 85.184 34.3949C85.869 34.3949 86.4436 34.2266 86.908 33.89C87.3724 33.5534 87.7497 33.1326 88.0399 32.6277L89.1545 33.2408C88.9687 33.6736 88.6843 34.0763 88.3012 34.449C87.918 34.8096 87.4595 35.1042 86.9254 35.3326C86.403 35.5489 85.8225 35.6571 85.184 35.6571Z" fill="#24506A"/>
<path d="M91.91 35.4407V22.0069H100.565V24.1707H94.2783V27.8853H99.7812V30.0492H94.2783V35.4407H91.91Z" fill="#24506A"/>
<path d="M102.27 35.4407V21.7905H104.552V35.4407H102.27Z" fill="#24506A"/>
<path d="M110.385 35.6571C109.653 35.6571 109.015 35.4888 108.469 35.1522C107.935 34.8156 107.523 34.3468 107.233 33.7457C106.954 33.1447 106.815 32.4414 106.815 31.636V25.6313H109.096V31.4376C109.096 31.8464 109.171 32.207 109.322 32.5196C109.485 32.8201 109.711 33.0605 110.002 33.2408C110.303 33.4091 110.64 33.4933 111.012 33.4933C111.383 33.4933 111.714 33.4091 112.004 33.2408C112.294 33.0605 112.521 32.8141 112.683 32.5015C112.846 32.189 112.927 31.8163 112.927 31.3835V25.6313H115.208V35.4407H113.049V33.5113L113.241 33.8539C113.02 34.455 112.654 34.9058 112.143 35.2063C111.644 35.5069 111.058 35.6571 110.385 35.6571Z" fill="#24506A"/>
<path d="M122.17 35.6571C121.195 35.6571 120.342 35.4287 119.61 34.9719C118.879 34.5151 118.31 33.896 117.904 33.1146C117.497 32.3332 117.294 31.4677 117.294 30.518C117.294 29.5322 117.497 28.6607 117.904 27.9033C118.322 27.134 118.885 26.5269 119.593 26.0821C120.313 25.6373 121.114 25.4149 121.996 25.4149C122.739 25.4149 123.389 25.5411 123.946 25.7936C124.515 26.046 124.997 26.3947 125.392 26.8394C125.787 27.2842 126.088 27.7951 126.297 28.3722C126.506 28.9372 126.611 29.5503 126.611 30.2114C126.611 30.3797 126.599 30.5541 126.576 30.7344C126.564 30.9147 126.535 31.071 126.489 31.2032H119.175V29.4H125.2L124.121 30.2475C124.225 29.6945 124.196 29.2017 124.033 28.7689C123.883 28.3361 123.627 27.9935 123.267 27.7411C122.919 27.4886 122.495 27.3624 121.996 27.3624C121.52 27.3624 121.096 27.4886 120.725 27.7411C120.353 27.9815 120.069 28.3421 119.871 28.823C119.686 29.2918 119.616 29.8628 119.662 30.536C119.616 31.1371 119.692 31.672 119.889 32.1409C120.098 32.5977 120.4 32.9523 120.794 33.2048C121.201 33.4572 121.665 33.5834 122.188 33.5834C122.71 33.5834 123.151 33.4692 123.511 33.2408C123.883 33.0124 124.173 32.7059 124.382 32.3212L126.228 33.2589C126.042 33.7277 125.752 34.1424 125.357 34.5031C124.962 34.8637 124.492 35.1462 123.946 35.3506C123.412 35.555 122.82 35.6571 122.17 35.6571Z" fill="#24506A"/>
<path d="M128.688 35.4407V25.6313H130.83V27.5607L130.656 27.2181C130.877 26.6291 131.237 26.1843 131.736 25.8837C132.247 25.5712 132.839 25.4149 133.512 25.4149C134.209 25.4149 134.824 25.5712 135.358 25.8837C135.904 26.1963 136.327 26.6351 136.629 27.2001C136.931 27.7531 137.082 28.3962 137.082 29.1295V35.4407H134.801V29.6885C134.801 29.2557 134.72 28.8831 134.557 28.5705C134.394 28.258 134.168 28.0175 133.878 27.8492C133.599 27.6689 133.268 27.5788 132.885 27.5788C132.514 27.5788 132.183 27.6689 131.893 27.8492C131.602 28.0175 131.376 28.258 131.213 28.5705C131.051 28.8831 130.97 29.2557 130.97 29.6885V35.4407H128.688Z" fill="#24506A"/>
<path d="M143.678 35.5489C142.61 35.5489 141.78 35.2484 141.188 34.6473C140.607 34.0342 140.317 33.1747 140.317 32.0688V27.7411H138.68V25.6313H138.854C139.319 25.6313 139.679 25.5051 139.934 25.2526C140.189 25.0002 140.317 24.6335 140.317 24.1527V23.3953H142.598V25.6313H144.775V27.7411H142.598V31.9425C142.598 32.2671 142.651 32.5436 142.755 32.772C142.871 33.0004 143.045 33.1747 143.278 33.2949C143.521 33.4151 143.829 33.4753 144.201 33.4753C144.282 33.4753 144.375 33.4692 144.479 33.4572C144.595 33.4452 144.706 33.4332 144.81 33.4212V35.4407C144.648 35.4648 144.462 35.4888 144.253 35.5129C144.044 35.5369 143.852 35.5489 143.678 35.5489Z" fill="#24506A"/>
<path d="M27.0005 28.6329C27.0005 36.0853 21.1002 42.1266 13.8217 42.1266C6.54333 42.1266 0.643005 36.0853 0.643005 28.6329C0.643005 21.1806 6.54333 15.1393 13.8217 15.1393C21.1002 15.1393 27.0005 21.1806 27.0005 28.6329ZM7.31804 28.6329C7.31804 32.3107 10.2298 35.292 13.8217 35.292C17.4136 35.292 20.3254 32.3107 20.3254 28.6329C20.3254 24.9552 17.4136 21.9738 13.8217 21.9738C10.2298 21.9738 7.31804 24.9552 7.31804 28.6329Z" fill="#24506A"/>
<path fill-rule="evenodd" clip-rule="evenodd" d="M33.7184 20.1945C34.8007 22.8698 35.3577 25.7372 35.3577 28.6329H30.7691C30.7691 26.3542 30.3308 24.0977 29.4791 21.9924C28.6274 19.8871 27.379 17.9742 25.8053 16.3629C24.2316 14.7516 22.3634 13.4734 20.3072 12.6014C18.2511 11.7294 16.0473 11.2805 13.8217 11.2805L13.8217 6.58228C16.6499 6.58228 19.4503 7.15263 22.0632 8.26078C24.676 9.36893 27.0502 10.9932 29.05 13.0408C31.0498 15.0883 32.6361 17.5192 33.7184 20.1945ZM25.9973 23.4691C26.6596 25.1062 27.0005 26.8609 27.0005 28.6329C19.722 28.6329 13.8217 22.5916 13.8217 15.1392C15.5524 15.1392 17.2661 15.4883 18.865 16.1664C20.4639 16.8445 21.9167 17.8384 23.1405 19.0914C24.3643 20.3444 25.335 21.832 25.9973 23.4691Z" fill="#1F9FE8"/>
</svg>
