<svg width="280" height="987" preserveAspectRatio="xMaxYMid slice" viewBox="0 0 280 987" fill="none" xmlns="http://www.w3.org/2000/svg">
<mask id="path-1-inside-1_490_2014" fill="white">
<path fill-rule="evenodd" clip-rule="evenodd" d="M207 20C207 8.95431 198.046 0 187 0H30C13.4315 0 0 13.4315 0 30V40V95V957C0 973.569 13.4315 987 30 987H250C266.569 987 280 973.569 280 957V70C280 53.4315 266.569 40 250 40H227C215.954 40 207 31.0457 207 20Z"/>
</mask>
<path fill-rule="evenodd" clip-rule="evenodd" d="M207 20C207 8.95431 198.046 0 187 0H30C13.4315 0 0 13.4315 0 30V40V95V957C0 973.569 13.4315 987 30 987H250C266.569 987 280 973.569 280 957V70C280 53.4315 266.569 40 250 40H227C215.954 40 207 31.0457 207 20Z" fill="white"/>
<path d="M30 2H187V-2H30V2ZM2 40V30H-2V40H2ZM2 95V40H-2V95H2ZM2 957V95H-2V957H2ZM250 985H30V989H250V985ZM278 70V957H282V70H278ZM227 42H250V38H227V42ZM227 38C217.059 38 209 29.9411 209 20H205C205 32.1503 214.85 42 227 42V38ZM-2 957C-2 974.673 12.3269 989 30 989V985C14.536 985 2 972.464 2 957H-2ZM282 70C282 52.3269 267.673 38 250 38V42C265.464 42 278 54.536 278 70H282ZM187 2C196.941 2 205 10.0589 205 20H209C209 7.84974 199.15 -2 187 -2V2ZM250 989C267.673 989 282 974.673 282 957H278C278 972.464 265.464 985 250 985V989ZM30 -2C12.3269 -2 -2 12.3269 -2 30H2C2 14.536 14.536 2 30 2V-2Z" fill="#1F9FE8" mask="url(#path-1-inside-1_490_2014)"/>
</svg>
