<svg width="35" height="36" viewBox="0 0 35 36" fill="none" xmlns="http://www.w3.org/2000/svg">
<path id="Union" fill-rule="evenodd" clip-rule="evenodd" d="M32.3358 21.6405C33.6188 24.7428 34.4476 28.0077 34.8022 31.334C35.0205 33.3817 33.3306 35.0557 31.2713 35.0557C29.2121 35.0557 27.5685 33.3789 27.2915 31.3383C26.9731 28.9936 26.3542 26.6945 25.4461 24.4988C24.062 21.1518 22.0332 18.1107 19.4756 15.5491C16.918 12.9874 13.8818 10.9554 10.5401 9.56909C8.35156 8.66111 6.06008 8.04173 3.72315 7.72239C1.67958 7.44314 0 5.79715 0 3.73459C0 1.67203 1.67673 -0.0206381 3.72753 0.199373C7.04448 0.55522 10.3001 1.38492 13.3939 2.66846C17.6403 4.43017 21.4987 7.01235 24.7487 10.2676C27.9988 13.5228 30.5769 17.3873 32.3358 21.6405Z" fill="#1F9FE8"/>
</svg>
