<svg width="35" height="35" viewBox="0 0 35 35" fill="none" xmlns="http://www.w3.org/2000/svg">
<path fill-rule="evenodd" clip-rule="evenodd" d="M32.3358 21.6061C33.618 24.7017 34.4466 27.9594 34.8016 31.2784C35.0205 33.326 33.3306 35 31.2713 35C29.2121 35 27.5686 33.3231 27.2907 31.2827C26.9721 28.9437 26.3534 26.6503 25.4461 24.4599C24.062 21.1182 22.0332 18.082 19.4756 15.5244C16.918 12.9668 13.8818 10.938 10.5401 9.55388C8.34973 8.64659 6.05626 8.02792 3.7173 7.70932C1.67686 7.43139 0 5.78794 0 3.72866C0 1.66938 1.67404 -0.0205434 3.72165 0.198427C7.04064 0.553359 10.2983 1.38196 13.3939 2.66422C17.6403 4.42313 21.4987 7.00121 24.7487 10.2513C27.9988 13.5013 30.5769 17.3597 32.3358 21.6061Z" fill="#1F9FE8"/>
</svg>
