<svg width="412" height="373" viewBox="0 0 412 373" fill="none" xmlns="http://www.w3.org/2000/svg">
<path fill-rule="evenodd" clip-rule="evenodd" d="M380.638 215.334C401.343 265.321 412 318.895 412 373H324.217C324.217 330.423 315.831 288.263 299.537 248.928C283.244 209.592 259.362 173.85 229.256 143.744C199.15 113.638 163.408 89.7562 124.072 73.4628C84.7366 57.1694 42.5768 48.7833 0 48.7833L0 -39C54.1046 -39 107.679 -28.3433 157.666 -7.63837C207.652 13.0666 253.07 43.4143 291.328 81.672C329.586 119.93 359.933 165.348 380.638 215.334ZM232.928 276.518C245.598 307.107 252.119 339.891 252.119 373C112.878 373 0 260.122 0 120.881C33.1088 120.881 65.8934 127.402 96.4819 140.072C127.07 152.742 154.864 171.313 178.275 194.725C201.687 218.136 220.258 245.93 232.928 276.518Z" fill="#1F9FE8"/>
</svg>
