<svg width="24" height="24" viewBox="0 0 24 24" fill="none" xmlns="http://www.w3.org/2000/svg">
<path d="M23.953 2.8586C23.0545 3.34531 22.1027 3.66658 21.1281 3.81208C22.1542 3.05329 22.9225 1.86334 23.291 0.461982C22.3401 1.1448 21.2861 1.64184 20.1642 1.91865C19.424 0.944786 18.4431 0.298871 17.3739 0.0812076C16.3047 -0.136456 15.2071 0.0863121 14.2513 0.71492C13.2956 1.34353 12.5353 2.3428 12.0886 3.55756C11.6418 4.77232 11.5335 6.13459 11.7805 7.43284C7.69068 7.19539 4.06583 4.77909 1.63993 1.12634C1.19874 2.04883 0.968624 3.101 0.973959 4.17132C0.973959 6.27513 1.84392 8.12426 3.16187 9.21061C2.38076 9.18002 1.6169 8.92018 0.933961 8.45275V8.5278C0.933518 9.92589 1.32621 11.2811 2.04542 12.3636C2.76463 13.446 3.76606 14.189 4.8798 14.4664C4.15813 14.7044 3.40227 14.7401 2.66789 14.571C2.98413 15.7742 3.59768 16.8259 4.42297 17.5795C5.24825 18.3331 6.24413 18.751 7.2717 18.7749C5.53126 20.4554 3.38232 21.3674 1.16995 21.3647C0.779967 21.3647 0.390984 21.3364 0 21.2823C2.25561 23.0592 4.87831 24.0025 7.55669 24C16.6103 24 21.5551 14.7777 21.5551 6.79308C21.5551 6.53595 21.5551 6.27636 21.5401 6.018C22.506 5.16275 23.3392 4.10096 24 2.8832L23.953 2.8586Z" fill="white"/>
</svg>
