<svg width="181" height="46" viewBox="0 0 181 46" fill="none" xmlns="http://www.w3.org/2000/svg">
<path d="M55.525 33.8667C54.317 33.8667 53.2085 33.6514 52.1993 33.221C51.1901 32.7751 50.3109 32.1602 49.5617 31.3762C48.8277 30.5767 48.2543 29.639 47.8415 28.5628C47.4287 27.4867 47.2222 26.3029 47.2222 25.0115C47.2222 23.7202 47.4287 22.5364 47.8415 21.4602C48.2543 20.3841 48.8277 19.4463 49.5617 18.6469C50.3109 17.8475 51.1901 17.2325 52.1993 16.8021C53.2085 16.3562 54.317 16.1333 55.525 16.1333C56.687 16.1333 57.7268 16.3409 58.6442 16.756C59.5769 17.171 60.3568 17.7091 60.9837 18.3702C61.6259 19.0159 62.0846 19.7 62.3598 20.4225L60.6396 21.1835C60.2115 20.1842 59.554 19.3848 58.6672 18.7853C57.7956 18.1703 56.7482 17.8628 55.525 17.8628C54.2711 17.8628 53.1549 18.1626 52.1763 18.7622C51.1978 19.3618 50.4332 20.1996 49.8828 21.2758C49.3323 22.3365 49.0571 23.5818 49.0571 25.0115C49.0571 26.4259 49.3323 27.6711 49.8828 28.7473C50.4332 29.8234 51.1978 30.6613 52.1763 31.2609C53.1549 31.845 54.2711 32.1371 55.525 32.1371C56.7482 32.1371 57.7956 31.8374 58.6672 31.2378C59.554 30.6382 60.2115 29.8388 60.6396 28.8395L62.3598 29.6005C62.0846 30.3077 61.6259 30.9918 60.9837 31.6529C60.3568 32.2986 59.5769 32.829 58.6442 33.244C57.7268 33.6591 56.687 33.8667 55.525 33.8667Z" fill="#24506A"/>
<path d="M71.3847 33.8667C70.2226 33.8667 69.1675 33.5899 68.2195 33.0365C67.2715 32.4677 66.5146 31.699 65.9489 30.7305C65.3984 29.7466 65.1232 28.632 65.1232 27.3867C65.1232 26.1569 65.3984 25.0576 65.9489 24.0891C66.4993 23.1206 67.2409 22.3596 68.1737 21.8062C69.1217 21.2373 70.192 20.9529 71.3847 20.9529C72.5773 20.9529 73.64 21.2296 74.5727 21.7831C75.5207 22.3365 76.2623 23.0975 76.7975 24.0661C77.3479 25.0346 77.6232 26.1415 77.6232 27.3867C77.6232 28.6474 77.3403 29.7696 76.7745 30.7535C76.2088 31.7221 75.4519 32.4831 74.5039 33.0365C73.5712 33.5899 72.5314 33.8667 71.3847 33.8667ZM71.3847 32.1371C72.2103 32.1371 72.9519 31.9296 73.6094 31.5145C74.2822 31.0994 74.8097 30.5306 75.192 29.8081C75.5895 29.0855 75.7883 28.2784 75.7883 27.3867C75.7883 26.4951 75.5895 25.6956 75.192 24.9885C74.8097 24.2813 74.2822 23.7202 73.6094 23.3051C72.9519 22.89 72.2103 22.6824 71.3847 22.6824C70.559 22.6824 69.8097 22.89 69.137 23.3051C68.4795 23.7202 67.9519 24.2813 67.5544 24.9885C67.1568 25.6956 66.9581 26.4951 66.9581 27.3867C66.9581 28.2784 67.1568 29.0855 67.5544 29.8081C67.9519 30.5306 68.4795 31.0994 69.137 31.5145C69.8097 31.9296 70.559 32.1371 71.3847 32.1371Z" fill="#24506A"/>
<path d="M86.6661 33.8667C85.5193 33.8667 84.4872 33.5899 83.5698 33.0365C82.6524 32.4677 81.9261 31.699 81.3909 30.7305C80.871 29.7466 80.6111 28.6397 80.6111 27.4098C80.6111 26.1645 80.871 25.0576 81.3909 24.0891C81.9261 23.1206 82.6447 22.3596 83.5469 21.8062C84.4643 21.2373 85.504 20.9529 86.6661 20.9529C87.7212 20.9529 88.6615 21.1835 89.4872 21.6447C90.0645 21.9672 90.5558 22.3686 90.9612 22.8489C91.0305 22.9309 91.1615 23.102 91.1615 23.102V22.6833V16.1333H92.8817V33.5899H91.1615V31.7771V31.5758C91.1615 31.5758 91.0738 31.7114 91.0277 31.7771C90.633 32.3391 90.1271 32.7973 89.5101 33.1518C88.6692 33.6284 87.7212 33.8667 86.6661 33.8667ZM86.7579 32.1371C87.5835 32.1371 88.3251 31.9296 88.9826 31.5145C89.6554 31.0994 90.1829 30.5383 90.5652 29.8311C90.9627 29.1086 91.1615 28.3015 91.1615 27.4098C91.1615 26.5181 90.9627 25.7187 90.5652 25.0115C90.1829 24.289 89.6554 23.7202 88.9826 23.3051C88.3251 22.89 87.5835 22.6824 86.7579 22.6824C85.9475 22.6824 85.2135 22.89 84.556 23.3051C83.8985 23.7202 83.3787 24.2813 82.9964 24.9885C82.6294 25.6956 82.4459 26.5028 82.4459 27.4098C82.4459 28.3015 82.6294 29.1086 82.9964 29.8311C83.3787 30.5383 83.8909 31.0994 84.5331 31.5145C85.1906 31.9296 85.9322 32.1371 86.7579 32.1371Z" fill="#24506A"/>
<path d="M102.469 33.8667C101.322 33.8667 100.282 33.5899 99.3494 33.0365C98.432 32.4677 97.7057 31.6913 97.1705 30.7074C96.6353 29.7235 96.3677 28.6089 96.3677 27.3637C96.3677 26.1184 96.6277 25.0192 97.1476 24.0661C97.6674 23.0975 98.3708 22.3365 99.2576 21.7831C100.16 21.2296 101.169 20.9529 102.285 20.9529C103.172 20.9529 103.959 21.122 104.648 21.4602C105.351 21.7831 105.947 22.2289 106.437 22.7977C106.926 23.3512 107.3 23.9815 107.56 24.6887C107.82 25.3805 107.95 26.0954 107.95 26.8333C107.95 26.987 107.943 27.1638 107.927 27.3637C107.912 27.5482 107.889 27.7403 107.859 27.9402H98.1058V26.326H106.106C106.106 26.326 106.099 26.0224 106.082 25.8758C106.036 25.4777 105.925 25.1051 105.748 24.7579C105.427 24.0814 104.961 23.551 104.349 23.1667C103.738 22.767 103.05 22.5671 102.285 22.5671C101.521 22.5671 100.81 22.767 100.152 23.1667C99.5099 23.5664 99.0054 24.1276 98.6384 24.8501C98.2714 25.5573 98.2014 26.3815 98.2026 27.3867C98.2038 28.4113 98.2791 29.2316 98.6613 29.9695C99.0589 30.692 99.594 31.2532 100.267 31.6529C100.955 32.0526 101.689 32.2524 102.469 32.2524C103.371 32.2524 104.128 32.0372 104.739 31.6068C105.351 31.1763 105.848 30.6382 106.23 29.9925L107.698 30.7766C107.453 31.33 107.079 31.845 106.574 32.3216C106.07 32.7828 105.466 33.1595 104.762 33.4516C104.074 33.7283 103.31 33.8667 102.469 33.8667Z" fill="#24506A"/>
<path d="M111.327 33.5899V16.4101H122.726V19.1773H114.446V23.9277H121.694V26.6949H114.446V33.5899H111.327Z" fill="#24506A"/>
<path d="M124.973 33.5899V16.1333H127.977V33.5899H124.973Z" fill="#24506A"/>
<path d="M135.66 33.8667C134.696 33.8667 133.855 33.6514 133.137 33.221C132.433 32.7905 131.89 32.191 131.508 31.4223C131.141 30.6536 130.958 29.7543 130.958 28.7242V21.0452H133.962V28.4706C133.962 28.9933 134.062 29.4545 134.26 29.8542C134.474 30.2385 134.773 30.546 135.155 30.7766C135.552 30.9918 135.996 31.0994 136.485 31.0994C136.974 31.0994 137.41 30.9918 137.793 30.7766C138.175 30.546 138.473 30.2308 138.687 29.8311C138.901 29.4314 139.008 28.9548 139.008 28.4014V21.0452H142.013V33.5899H139.169V31.1225L139.421 31.5606C139.13 32.3293 138.649 32.9058 137.976 33.2902C137.319 33.6745 136.546 33.8667 135.66 33.8667Z" fill="#24506A"/>
<path d="M151.182 33.8667C149.897 33.8667 148.774 33.5746 147.81 32.9904C146.847 32.4062 146.098 31.6144 145.563 30.6152C145.027 29.6159 144.76 28.509 144.76 27.2945C144.76 26.0339 145.027 24.9193 145.563 23.9508C146.113 22.9669 146.855 22.1905 147.787 21.6217C148.735 21.0529 149.79 20.7684 150.952 20.7684C151.931 20.7684 152.787 20.9299 153.521 21.2527C154.27 21.5756 154.905 22.0214 155.425 22.5902C155.945 23.159 156.342 23.8124 156.618 24.5503C156.893 25.2729 157.03 26.0569 157.03 26.9025C157.03 27.1177 157.015 27.3406 156.985 27.5712C156.969 27.8018 156.931 28.0017 156.87 28.1708H147.237V25.8648H155.173L153.751 26.9486C153.888 26.2414 153.85 25.6111 153.636 25.0576C153.437 24.5042 153.101 24.0661 152.627 23.7432C152.168 23.4204 151.61 23.2589 150.952 23.2589C150.326 23.2589 149.767 23.4204 149.278 23.7432C148.789 24.0507 148.414 24.5119 148.154 25.1268C147.91 25.7264 147.818 26.4566 147.879 27.3176C147.818 28.0862 147.917 28.7703 148.177 29.3699C148.452 29.9541 148.85 30.4076 149.37 30.7305C149.905 31.0533 150.517 31.2147 151.205 31.2147C151.893 31.2147 152.474 31.0687 152.948 30.7766C153.437 30.4845 153.819 30.0925 154.095 29.6005L156.526 30.7997C156.281 31.3992 155.899 31.9296 155.379 32.3908C154.859 32.852 154.24 33.2133 153.521 33.4746C152.818 33.736 152.038 33.8667 151.182 33.8667Z" fill="#24506A"/>
<path d="M159.767 33.5899V21.0452H162.588V23.5126L162.358 23.0745C162.649 22.3212 163.123 21.7523 163.78 21.368C164.453 20.9683 165.233 20.7684 166.12 20.7684C167.037 20.7684 167.848 20.9683 168.551 21.368C169.27 21.7677 169.828 22.3289 170.225 23.0514C170.623 23.7586 170.822 24.5811 170.822 25.5189V33.5899H167.817V26.2337C167.817 25.6803 167.71 25.2037 167.496 24.804C167.282 24.4043 166.984 24.0968 166.602 23.8816C166.235 23.651 165.799 23.5357 165.294 23.5357C164.805 23.5357 164.369 23.651 163.987 23.8816C163.605 24.0968 163.306 24.4043 163.092 24.804C162.878 25.2037 162.771 25.6803 162.771 26.2337V33.5899H159.767Z" fill="#24506A"/>
<path d="M179.509 33.7283C178.102 33.7283 177.009 33.344 176.229 32.5753C175.465 31.7912 175.083 30.692 175.083 29.2777V23.7432H172.927V21.0452H173.156C173.768 21.0452 174.242 20.8837 174.578 20.5609C174.914 20.2381 175.083 19.7692 175.083 19.1542V18.1857H178.087V21.0452H180.954V23.7432H178.087V29.1163C178.087 29.5313 178.156 29.8849 178.294 30.177C178.446 30.4691 178.676 30.692 178.982 30.8458C179.303 30.9995 179.708 31.0764 180.197 31.0764C180.304 31.0764 180.427 31.0687 180.564 31.0533C180.717 31.0379 180.862 31.0226 181 31.0072V33.5899C180.786 33.6207 180.541 33.6514 180.266 33.6822C179.991 33.7129 179.739 33.7283 179.509 33.7283Z" fill="#24506A"/>
<path fill-rule="evenodd" clip-rule="evenodd" d="M17.6164 13.8967C12.806 15.3544 9.3064 19.8009 9.3064 25.0601C9.3064 31.5045 14.5611 36.7287 21.0432 36.7287C26.333 36.7287 30.8055 33.2495 32.2718 28.4672C30.2023 28.3995 28.2378 27.9197 26.4584 27.1078C25.628 29.2771 23.5167 30.8185 21.0432 30.8185C17.8443 30.8185 15.2511 28.2404 15.2511 25.0601C15.2511 22.601 16.8016 20.5019 18.9837 19.6763C18.167 17.9073 17.6845 15.9541 17.6164 13.8967ZM26.5551 23.2855C25.9845 21.5326 24.5914 20.1476 22.8282 19.5803C22.2912 18.7287 21.8618 17.8032 21.5588 16.8227C21.231 15.7616 21.0512 14.6361 21.0435 13.4699L21.0432 13.3915C22.2151 13.3915 23.3782 13.566 24.4943 13.9074C24.8462 14.015 25.1934 14.1392 25.5347 14.2798C26.934 14.856 28.2076 15.6959 29.2855 16.7531C29.3235 16.7903 29.3613 16.8279 29.3988 16.8657C30.4621 17.9373 31.307 19.2036 31.8866 20.5947C32.028 20.9341 32.1529 21.2792 32.2611 21.6291C32.5998 22.7235 32.7752 23.8634 32.7799 25.0123C32.78 25.0283 32.78 25.0442 32.78 25.0601L32.7012 25.0598C31.5282 25.0522 30.3961 24.8734 29.3288 24.5475C28.3426 24.2463 27.4117 23.8194 26.5551 23.2855Z" fill="#24506A"/>
<path fill-rule="evenodd" clip-rule="evenodd" d="M38.7629 17.7631C39.7268 20.0765 40.2229 22.5561 40.2229 25.0601H36.1363C36.1363 23.0896 35.7459 21.1383 34.9874 19.3178C34.2289 17.4973 33.1172 15.8431 31.7157 14.4497C30.3141 13.0563 28.6503 11.9511 26.8191 11.197C24.9879 10.4429 23.0253 10.0548 21.0432 10.0548L21.0432 5.99197C23.5619 5.99197 26.056 6.48519 28.3829 7.44345C30.7099 8.40171 32.8243 9.80626 34.6053 11.5769C36.3863 13.3475 37.799 15.4496 38.7629 17.7631ZM31.8866 20.5947C32.4764 22.0104 32.78 23.5278 32.78 25.0601C26.298 25.0601 21.0432 19.8359 21.0432 13.3916C22.5845 13.3916 24.1107 13.6934 25.5347 14.2798C26.9587 14.8662 28.2525 15.7257 29.3424 16.8092C30.4322 17.8927 31.2968 19.1791 31.8866 20.5947Z" fill="#1F9FE8"/>
</svg>
