<svg width="1058" height="498" preserveAspectRatio="xMinYMin slice" viewBox="0 0 1058 498" fill="none" xmlns="http://www.w3.org/2000/svg">
<path opacity="0.1" fill-rule="evenodd" clip-rule="evenodd" d="M974.648 344.962C1029.68 477.813 1058 620.203 1058 764H824.692C824.692 650.841 802.404 538.79 759.1 434.245C715.796 329.699 652.324 234.707 572.309 154.691C492.293 74.6759 397.301 11.2041 292.755 -32.1C188.21 -75.4041 76.1591 -97.6924 -37 -97.6924L-37 -331C106.797 -331 249.187 -302.677 382.038 -247.648C514.89 -192.619 635.602 -111.962 737.282 -10.282C838.962 91.3982 919.619 212.11 974.648 344.962ZM582.068 507.573C615.743 588.871 633.075 676.004 633.075 764C263.003 764 -37 463.997 -37 93.9254C50.9955 93.9254 138.129 111.257 219.426 144.932C300.724 178.606 374.592 227.964 436.814 290.186C499.037 352.408 548.394 426.276 582.068 507.573Z" fill="#1F9FE8"/>
</svg>
