<svg width="1165" height="494" viewBox="0 0 1165 494"
     preserveAspectRatio="none"
     fill="none" xmlns="http://www.w3.org/2000/svg">
<path fill-rule="evenodd" clip-rule="evenodd" d="M0 30C0 13.4315 13.4314 0 30 0H362.5C376.031 0 387 10.969 387 24.5C387 38.031 397.969 49 411.5 49H1135C1151.57 49 1165 62.4314 1165 79V407.397V412V463.931C1165 480.499 1151.57 493.931 1135 493.931H765C748.431 493.931 735 480.499 735 463.931V442C735 425.431 721.569 412 705 412H30C13.4315 412 0 398.569 0 382V136V49V30Z" fill="#115074"/>
</svg>
